<?xml version="1.0" encoding="utf-8"?>
<!-- Generator: Adobe Illustrator 18.0.0, SVG Export Plug-In . SVG Version: 6.00 Build 0)  -->
<!DOCTYPE svg PUBLIC "-//W3C//DTD SVG 1.1//EN" "http://www.w3.org/Graphics/SVG/1.1/DTD/svg11.dtd">
<svg version="1.1" id="Layer_1" xmlns="http://www.w3.org/2000/svg" xmlns:xlink="http://www.w3.org/1999/xlink" x="0px" y="0px"
	 viewBox="0 0 100 100" enable-background="new 0 0 100 100" xml:space="preserve">
<path d="M43.9,31.5l1-0.2l0.3-1.9l0-1.3l-0.5-1.3l0,0.4L43.8,27l-1,0.9l-0.7-0.1l0,2l1-0.2l0,1.5L43.9,31.5z M51.3,32.7l1.3,0
	l1.8-0.4l0.8,0.3l0.9-0.5l0.4-0.6l-0.1-1l-0.7-1l-1-0.2l-1.3,0.2l-1,0.5l-0.9-0.2l-0.9-0.1l-0.4-0.6l-0.7-0.6l0.1-1l-0.5-0.9l-1.2,0
	l-0.7-0.9l-1.3-0.2l-0.2,1.1l0.7,0.8l1.3,0.3l0.6,1.1l0.1,1.3l0.2,1.3l1.7,0.8L51.3,32.7z M43.2,41.8c-0.8-0.6-1.5-1.2-2.2-1.8
	c-0.2-1.1-0.4-2.3-0.6-3.4l-0.7-0.9L39,35.3l-0.6,0.3l0.4,2.2l-0.3,0.8l-0.5-2l-0.6-0.7L36.8,37l-0.9-1.1l-1.4,0.6l0.3-1l-0.6-0.4
	l-1.7,1.3l-0.4,0.8l-0.5,1.5l1.1,0.5l1,0l-1.5,0.8l0.3,0.7l0.9,0l1.3-0.2l1.2,0.4l-0.8,0.3l-0.9-0.1l-1,0.3l-0.4,0.2l0.8,1.4
	l0.6-0.2l0.9,0.5l0.3,0.8c0.9-0.1,1.8-0.3,2.7-0.4l1.2-0.6l0.7-0.1l1.1,0.5l1.1,0.3l0.2-0.6l-0.4-0.7l1-0.1L43.2,41.8z M47.4,37.9
	l0.7-1.6l0.8-0.4l0.9-2l-1.2-0.6l-1.3-0.1l-0.6,0.6l-0.3,1l0,1.1l0.4,1.8L47.4,37.9z M47.5,32.2l0.3-0.9l-0.2-0.8L47,29.6l-0.9,0.7
	l-0.3,1.1l0.8,0.6L47.5,32.2z M64,41.6l-0.5-0.8L62,40.1l-0.7-1.3l-1.2,0.4l-0.1-0.9l-0.9-1l-1.4-1.1l-0.6,0.8l-1.2,0.6l0.1-1.4
	L55,34.2l-1.6,0.9l-0.6,1.7l-0.5-1.3l0.5-1.4l-1.6,0.6l-0.6,0.9L50,37.4l0.2,2l0.9,0l-0.7,0.9l0.5,0.7l1,0.3l1.3,0.5l2.3,0.4
	l1.1-0.2l0.3-0.5l0.5,0.6l0.6,0.1l0.7,1.1l-0.4,0.4l1.3,0.6l1,0.8l0.2,0.6l0.2,0.7l-0.8,1.6L60,48.9l0.2,0.5l-1.3,0.2l-1.2,0
	l-0.4,1.1l0.5,0.5l1.8-0.2l0-0.4c0.6,0.5,1.2,1,1.9,1.4l-0.2,0.4l0.8,0.7l1.4,0.8l1.7,0.5L65,54c-0.5-0.7-1-1.4-1.5-2l1.6,1.1
	l0.8,0.4l0.2-1L65.7,51l-0.3-0.4l-0.9-0.7L63.9,49l0.1-0.9l0.8-0.2l1,1.5l0.8,0.6l1.1-1.8l0.2-1.1l-1-0.1L66,45.6l-1-0.4l-1.5-1.1
	l1.2-0.8L64,41.6z M50,11.6l0.5,1.6l1.1,1.3l2.2-0.2l1.4,0.4l-1,1.4l-0.5-0.4L52,15.5l0.3,1.9l0.9,1.4L53,19.9l-1.1,0.8l-0.5,1.2
	l1,0.6l0.9,1.9l-1.7-1.3l-0.4,0.2l0.3,2.1l-1.2,0.6l0.1,1.3l1.2,0.1l0.9,0.3l1.9-0.4l1.6,0.7l1.7-1.6l0-0.7l-1.1,0.1l-0.1-0.6
	l0.9-0.9l0.3-1.2l1-0.9l0.6-1.1l-0.5-1.6l0.4-0.6l-0.9-0.4l1.9-0.4l0.4-0.7l1.3-0.6l1.1-3l1-1.1l1.5-2.5l-1.4,0l0.6-1l1.5-0.9l1.5-2
	l0-1.3L66.7,4l-1.4-0.7c-1.5-0.4-2.9-0.7-4.4-1.1l-1.8,0.9l-0.3-0.6l-1.9,0.2l-1.1,0.6l-0.8,0.8l-0.5,2.6l-0.7-1.3l-0.8-0.3L52,7.1
	l-1.2,0.8L50,8l-0.9,0.9l0.1,1.5L50,11.6z M44.9,41.5l-0.4,0.8l-0.6,0.6l0.9,0.8l0.5-0.2l0.9,0.5l0.4-0.6c-0.2-0.3-0.4-0.7-0.6-1
	C45.6,42.1,45.3,41.8,44.9,41.5z M55.9,35.1l0.7,1.1l0.2,0.1l0.7-0.3c0.5,0,0.9,0.1,1.4,0.1l-0.1-0.6l-1.1-1.2l-1.4-0.2l-0.3,0.1
	L55.9,35.1z M55.4,50.9l-0.7-0.5L54,49.9l-0.4-0.4l-0.3,0.2l-0.1-0.7L52.7,49l-0.2,1.4l-0.1,1.2l-0.5,0.7l0.9-0.1l0.2,0.8l0.9-0.7
	l0.6-0.8l0.4,0.6l1,0.3l0.6-0.4l-0.5-0.5l-0.5,0.1L55.4,50.9z M45.6,34.8l-0.2-0.6l-1.1,0.3L43.6,34L42.8,35l0.7,1.4l-1.3-0.3l0,0.7
	l1.6,1.6l0.4,0.8l0.6,0.2l1-0.8l0.1-1.8l-1-0.9L45.6,34.8z M60.1,91.5l-0.5-0.3l-0.5,0l0-0.2l-0.4-0.1l-0.2,0
	c-0.4-0.3-0.8-0.6-1.2-0.9l-0.6,0.1l-0.3-0.3L56,89.6l-0.5,0l-0.5,0l-0.2,0.1l-0.5,0.1L54,89.8l-0.3,0.2l-0.1,0.2l-0.3,0.2l0.3,0.1
	l0.3-0.1l0.1-0.2l0.3,0l0.5-0.4l0.6,0L55,90.1l0.2,0.1l0.8,0.1l0.2,0.1l0.6,0.2l0.4,0l0.1,0.4l0.2,0.2l0.4,0l0.3,0.2l-0.4,0.4
	l0.9-0.1l0.4,0.1l0.4,0l0.4-0.1L60.1,91.5z M63.2,92.3l0-0.2l-0.3,0l-0.1-0.2l-0.2,0l-0.4-0.2l-0.5,0l-0.1,0.1l-0.5-0.1l-0.4,0
	l-0.1,0.2L61,92l0,0.3l0.3,0.3L61,92.7c-0.4,0-0.7-0.1-1.1-0.1l-0.1,0.2l0.3,0.2l0.3-0.1l0.4,0l0.3,0l0.4,0.1l0,0.2l0.2,0.1l0.3-0.5
	l0.2-0.1l0.1,0.2l0.2,0l0.1-0.1l0.2,0l0.3,0l0.3,0.1l0.2-0.3l-0.3-0.2L63.2,92.3z M68.7,70.9l-0.6,1L67,72l-0.8-0.5L66,70.9l-0.2-1
	l0.6-0.6l-0.6-0.5l-0.9,0.1l-1.3,0.8l-1,1.2L62,71l0.7-0.9l0.9-1.3l0.8-0.4l0.5-0.7l0.7-0.1l0.9,0l1.4,0.2l1.1-0.2l0.8-0.8l1-0.4
	c0.3-0.2,0.6-0.5,0.9-0.7l0-1.2l-0.3-0.4L71,64.1l-0.3-0.9l-0.4-0.3l-1-0.3L68.7,62l-0.8-0.6l0.3-0.7c-0.5-1-1-2-1.5-3l-0.5-1.1
	l-0.4,0.6l-0.6,1.4l-0.9,0.7l-0.5-0.7l-0.6-0.2L63,56.7l0-1.1l-1.1-0.1L61.7,55l-0.8-0.8l-0.6-0.5l-0.5,0.4L59.1,54L58,53.6
	l-0.4,0.3l0.2,2.1l0.3,1.2l-0.7,1.3l0.8,0.9l0.4,1l0.1,0.8l-0.3,0.8l-0.7,0.8l-1,0.5l0.4,0.6l0.3,1.7L57,66.5l-0.5,0.3l-0.9-1
	l-0.5-1.2l-0.2-1.1l0.1-0.9l-0.7-0.1l-1-0.1L52.6,62l-0.8-0.3l-0.5-0.5l-0.6-0.4l-1.2-0.5l-0.9,0.2l-0.3-0.9l-0.3-1.1l-0.9-0.2
	l0-1.4l0.2-1l0.7-1.5l0.8-1.1l0.7-0.2l0-0.9l0.5-0.6l0.9-0.1l0.7-1l0.2-0.7l0.6-1.3l0.2-0.8l0.7,0.5l0.9-0.2l1.2-1.1l0.1-0.8
	l-0.4-0.9l0.5-0.9l0-0.9l-0.8-0.9l-0.9-0.3L52.9,42l0,2l-0.5,1.5l-0.7,1.2l-0.6-1.1l0.2-1.3l-0.8-1.1l-0.8,1.4l0-1.8l-1.2-0.4
	l0.6-0.9l-0.9-2.2l-0.6-0.9l-0.8-0.3l-0.7,1.4L46,41.6l0.7,0.7l0.7,1.1l-0.3,1.7l-0.5,0l-0.4,1.3l0-1.6l-1-0.6l-0.6,0.3l0.1,1.1
	l-0.9,0l-1,0.3l-1.1-0.8L41,45.3l-0.6-0.9L39.9,44l-0.5,0.2l-0.8,0.1l-0.4,0.6l0.6,0.7l-0.7,0.8l-0.7-1L37,45.7l-1.7,0.2l-1.1-0.4
	l0.9-0.8l-0.9-0.9l-0.6,0.1l-0.9-0.3l-1.5-0.7l-1-0.8l-0.8-0.1l-0.2,0.5l-0.8,0.3l-0.1-1.4l-0.8,1.2l-1.1-1.6L26,40.9l-0.1,0.9
	l-0.5,0.4L25,41.4l-1,0.5L23,42.7l-0.9-0.2L21.3,43l-0.6,0.7l-0.7-0.2l-1-0.9c-0.6-0.2-1.2-0.5-1.9-0.7l-1-0.6l-0.8,0.3l-0.5-0.2
	l-1.2-0.2l-1.3-0.6L11.8,41l-1-0.3l0-0.4l-1.1-0.1l-0.3,0.4L9,39.6l-1-0.4l-1,1l-0.6-0.1L5.3,41l-0.6,0.2l-0.6,0.9l-0.2,0.9
	l-0.8,0.8L2,43.8l-0.4,0.9l0.9,0.5L3.1,46l0.4,0.8l0.8,0.6l0.5,1l-1.3,0.1l0.1-0.8H3.1l-1.4,0.8l-0.9,0.6l0.8,0.9l0.3,0.6l0.9,0.4
	l0.9-0.2l0.5,0.3l0.2-0.3L5,50.4l0.4,0L5,51l0.4,0.3l0.1,0.7l-0.5,0.4l-0.5-0.1L4,52.9l-0.4-0.2L3,52.8l-0.2,0.7l-0.5,0.8L2,55
	l0.5,0.6l0,0.7L3,56.6l0.5,0.6l0.8-0.2l0.4,0.4l-0.1,0.5l0.1,0.7l0.4,0l0.6-0.5l0.2,0.6l0.2-0.4l0.4,0.6l0.3-0.4l0.2,0.2l0.7-0.4
	L7.5,59l-0.1,0.9l-0.5,0.4l-0.1,0.2l-0.9,0.7l-0.3,0.5l-0.8,0.1l-0.7,0.6l-0.6,0.3l-0.7,0.5l0.1,0.2L4,63.2l0.5-0.4
	c0.4-0.2,0.8-0.5,1.2-0.7l0.4,0.1l0.7-0.5l0.2-0.5l1-0.6l0.2-0.5l0.6-0.4l0.7-0.5l0.6-0.9l-0.5-0.6l0.9-0.9L11,56l0.8-0.7l0.2,0.3
	L11.3,56l-0.3,1.2l0.1,0.7l0.7-0.3l0.6-0.4l0.7-0.3l0.3-0.1l-0.1-0.9l0.7-0.3l0.8,0.5l1.2,0.6l0.9-0.1c0.6,0.2,1.1,0.5,1.7,0.7
	l1.3,1.3l0.7,0.3l1,0l0.6,0.1l0.3,1.1l0.8,0.9l0.2,1l0.6,0.4l0.3,0.4l0,0.6l0.8,0.8l0.1,0.8l0.8,0.4l-0.1,0.6l0.4,0.9l1.1,0.4
	l0.5,0.4l1.2,1l0.1,0l0.2,0.8l0.1,0.8l-0.2,0.2l-0.3-0.9l-0.9-0.3l-0.1,0.2l0.2,0.4l0.2,0.8l0.1,1.2c-0.1,0.5-0.1,1.1-0.2,1.6
	l-0.2,0.8l0.2,0.7l0,0.7l-0.1,0.7l0.3,0.5l0.1,0.7l0.5,0.7l0.3,0.3l0,0.2l0.5,1.1l0.6,0.8l0.1,0.4l0.2,0.1l0.6,0.1l0.2,0.2l0.4,0
	l0.1,0.2l0.3,0.1l0.4,0.4l0.1,0.4l0.3,0.7c0.3,0.5,0.5,1,0.8,1.5l0.4,0.2l0.5,0.5l0,0.3l-0.2,0.3l-0.3,0l0,0.1l0.4,0.4l0.4,0.2
	l0.2,0.2l0.1-0.1c0.2,0.2,0.5,0.4,0.7,0.5l0.1,0.4l0,0.5l0.3,0.2l0.5,0.3l0.4,0.4l0.2,0.4l0.1,0l0.3-0.3l0-0.1
	c-0.2-0.2-0.3-0.4-0.5-0.6l-0.3,0l0-0.4c-0.1-0.2-0.2-0.4-0.4-0.6l-0.2-0.7l-0.4-0.4l-0.1-0.3l-0.2-0.2l-0.1-0.5l-0.1,0l-0.1-0.2
	l-0.1-0.1l-0.1-0.2l-0.5-0.5l-0.2-0.3L34.5,84l-0.1-0.4l0.1-0.3l0.4,0.2l0.2,0l0.5,0.3l0,0.3l0.2,0.6l0.3,0.5l0,0.2
	c0.2,0.3,0.4,0.5,0.7,0.7l0.3,0.1l0.2,0.5l0.4,0.3l0.3,0.2l-0.1,0.4l0.1,0.2l0.5,0.3l0.3,0.4l0.6,0.5l0.6,0.7l0.2,0.3l0.1,0.3
	l0.2,0.3l0,0.2l-0.1,0.2l0.1,0.2l-0.2,0.1l0.2,0.3l0.3,0.4l0.7,0.4l0.3,0.3l0.6,0.2l0.4,0l0.2,0.2l0.5,0.3l0.7,0.3l0.5,0.1l0.6,0.3
	l0.5,0.1l0.4,0.2l0.3-0.1l0.5-0.2l0.4,0l0.5,0.2l0.3,0.2l0.7,0.7l0.3,0.3l0.3,0.1l0.4,0l0.3,0.1l0.2,0.1l0.4,0l0.3,0.1l0.2,0.1
	l0.4,0l0.1-0.2l0.2,0.1l0.1,0.2l0,0l-0.1-0.1l-0.1,0.1l0.3,0.3l0.3,0.2l0.1,0.2c0.2,0.2,0.3,0.3,0.5,0.5l-0.1,0.1l0.2,0.1l-0.1,0.2
	l0,0.2l0.1,0.1l0.2,0.1l0.1,0.2l0.1-0.2l0-0.2l0.2,0.1l0,0.2l0.2,0.1l0.2,0.1l0.2,0.2l0,0.1l-0.1,0.1l0.1,0.1l0.3,0.1l0.1,0.1l0-0.1
	l0.3,0l0.2,0.1l0.3,0l0.1,0.3l0.2,0l0.1-0.1l0.1,0.4l0.3,0l0.1-0.1l0.2-0.1l-0.3-0.3l0.1-0.1l0.1,0l0.3-0.2l0.1-0.2l0.3,0l0.3,0.2
	l0.1,0.2l0.2,0l-0.2,0.2l0.1,0.3l0.2,0.2l0.1-0.3l0.2,0l0.1-0.2L58,99.2l0.1-0.1l-0.2-0.2l-0.2-0.2l-0.3-0.1l-0.4,0l0-0.1l-0.3,0
	l-0.2,0.2l-0.4,0.1L55.8,99l-0.3,0l-0.2-0.2l-0.1,0.1l-0.3,0l0-0.1c-0.2-0.3-0.5-0.5-0.8-0.8l-0.2-0.3L54,97.5l0-0.2l0.1-0.2l0-0.2
	l0.1-0.3l0.1-0.1l0-0.3l0-0.2l0-0.3l0.1-0.3l0.1-0.2l-0.1-0.2l0-0.1l0.1-0.1l-0.2-0.2L54,94.7l-0.2-0.1l-0.2-0.1l-0.1,0l-0.3-0.1
	l-0.1,0.1l-0.2,0l-0.2,0l-0.2,0l-0.1,0.1l-0.2,0.1l-0.3,0l-0.3-0.1l-0.1,0l-0.1-0.1l-0.2,0l-0.1,0.1c-0.1,0-0.2-0.1-0.3-0.1L51,94.5
	l-0.2-0.1l0.1-0.2l0.1,0l0.1-0.2l0.1-0.3l0-0.1l0.1-0.2l-0.1-0.1l0.1-0.3l0-0.2l-0.1,0l0-0.1l0.1,0l0.2,0.2c0.1-0.3,0.2-0.5,0.3-0.8
	l-0.1-0.1l0.2-0.4l0.3-0.4l0-0.3L52,90.6l-0.4,0.1l-0.6,0l-0.7,0.2L49.9,91l-0.1,0.2l-0.1,0.6l-0.2,0.4l-0.4,0.3
	c-0.3,0.1-0.6,0.2-0.9,0.2l-0.5,0.1l-0.6,0.2L47,92.6l-0.7-0.2l-0.2-0.3L46,91.8l-0.4-0.5l-0.1-0.5l-0.2-0.3L45.1,90l0.1-0.3l0-0.9
	l0.1-0.5l0.2-0.6l-0.2,0l0.2,0l-0.1-0.2l0-0.3l0-0.5l0.1-0.3l0.3-0.3l0.6-0.3l0.6-0.5l0.5-0.2l0.4-0.1l0.5,0.2l0.6-0.1l0.5,0.4
	l0.5,0l0.2-0.1l0.2,0.1l0.1-0.1l-0.1-0.1l0-0.3l-0.1-0.2l0.3-0.1l0.5-0.1l0.6,0.1l0.7-0.1l0.4,0.2l0.3,0.3l0.1,0l0.6-0.3l0.2,0.1
	l0.5,0.6l0.2,0.4l-0.1,0.5l0.1,0.3c0.2,0.4,0.4,0.8,0.6,1.1l0.2,0.2l0.1,0.3l0.3,0.1l0.2-0.1l0.2-0.4c0-0.2,0-0.5,0-0.7l-0.3-0.8
	l0-0.3l-0.3-0.5l-0.2-0.6l-0.1-0.5l0.1-0.5l0.3-0.4l0.4-0.4l0.7-0.5l0.1-0.3l0.3-0.3l0.3,0l0.4-0.4l0.7-0.2l0.4-0.6L59,79.8L59,79.5
	l-0.2-0.1l0-0.8l-0.4-0.3l0.4,0.1L58.6,78l0.1-0.4l0.1,0.7l0.3,0.3l-0.2,0.5l0.1,0c0.2-0.3,0.3-0.6,0.6-0.9l0-0.3l-0.2-0.1l-0.1-0.4
	l0.2,0.2l0.1,0l0,0.2l0.5-0.6l0.1-0.6l-0.2,0l0.2-0.2l0,0.1l0.4,0l0.9-0.3L61.3,76l-0.9,0.2l0.5-0.2c0.2,0,0.4,0,0.6-0.1l0.5-0.1
	l0.3,0l0.4-0.1l0.1-0.2l-0.2-0.2l0.1,0.3l-0.3,0L62.2,75l0-0.5l0.1-0.2l0.3-0.5c0.4-0.2,0.9-0.4,1.3-0.6l0.7-0.4l-0.1-0.3l0.7-0.1
	l1,0l-1.1,0.7l0,0.7l0.5,0.1l0.7-0.6L67,73l1.4-0.5l0.8-0.6l-0.4-0.3L68.7,70.9z M50.8,70.7L50.3,71l-0.5,0.2l-0.4-0.3l-0.6,0.2
	l0-0.1c0.3-0.3,0.6-0.5,0.9-0.8l0.6-0.3h0l0.3-0.4l0.4-0.1l0.1-0.2l0.1-0.1l0.6,0.2l0.4,0l0.2,0.1l0.2,0.5l0.7,0.1l-0.1,0.3l0.2,0.3
	L53.4,71l0.3,0.1c0,0.1-0.1,0.2-0.1,0.3v0l-0.2,0l-0.1-0.3l-0.6,0.1L52,71.4L51.6,71l-0.4-0.1l0.2-0.5L50.8,70.7z M54,73.9l0-0.2
	l0.3-0.4l0.1-0.4l-0.1-0.4l-0.5-0.4L53.3,72l-0.1,0.3l-0.1,0.1L53,72.9l-0.1-0.3l-0.3,0.2l-0.2,0.3l-0.2,0.4l0,0.4l0.2,0.5l0,0.6
	l-0.3,0.4l-0.1,0.1l-0.2,0.1l-0.2,0l-0.1-0.1l-0.2-0.4l0-0.2l0-0.2l-0.1-0.4c0.1-0.4,0.2-0.7,0.3-1.1l0.3-0.7l-0.1,0L51.5,73
	l-0.1-0.1l0.2-0.3L52,72l0.4-0.1l0.5-0.2c0.2,0,0.3,0.1,0.5,0.1l0.6-0.1l-0.3-0.4l0.1-0.1l0.1,0.2l0.5,0.1l0.5,0l0.5,0.1l0.6,0.2
	l0.2,0.3l0.4,0.7l-0.2,0.3L55.8,73l-0.3-0.6l0.1,0.6l-0.3,0.5l0,0.4l-0.1,0.2l-0.4,0.3l0,0l0-0.4l-0.1-0.5l-0.2-0.1l-0.4,0.4
	L54,73.9z M56.6,75.1l-0.5,0.2l-0.3,0.1l-0.4,0.2l-0.5,0.1l-0.3,0l-0.4-0.2l0.2-0.3l0,0l0.3,0.1l0.5-0.3l0.3-0.2l0.2,0l0.3,0.1
	l0.2-0.1l0.3-0.1l0.6-0.1v0l0,0.1L56.6,75.1z M58.4,74.2l-0.5-0.1l-0.5,0c-0.1,0-0.2,0.1-0.3,0.1l-0.2,0l-0.3-0.1l0.2-0.3l0.2-0.1
	c0.3-0.1,0.6-0.2,1-0.2l0.3,0.2l0.2-0.2l0.2-0.1l0.1,0.1c0,0,0,0.1,0.1,0.1l0,0.3L58.4,74.2z M73.4,69.3L73,69.4l0.2-0.7l-0.6-0.3
	l-0.3,0.2l-0.6-0.3l0.2-0.3l-0.4-0.2l-0.4,0.3c0.2-0.5,0.5-1,0.8-1.5l0.1-0.3l-0.3,0l-0.5,0.3l-0.4,0.6l-0.7,1.6l-0.5,0.6l0.3,0.3
	L69.4,70l0.1,0.3l1.2,0l0.7-0.1l0.6,0.2l-0.4,0.4l0.4,0l0.7-0.8l0.2,0.1l-0.1,0.8l0.4,0.2l0.3,0l0.3-0.8l-0.2-0.6L73.4,69.3z
	 M98.9,9.6L97,8.7l-3.1,1.7L92.3,12L93,9.5l-0.5-1.6l-1.2,1.4l-1.9-1.6l-2.2,0.5l-0.3-0.8c1.9-0.3,3.9-0.5,5.8-0.7l1.2-1.9l-3.9-4.2
	l-5-0.7l-2.2,0.5l-0.8,2l-2.2-0.2l-2.1,3.1l-0.1,2l1.5,2.4l-1.3-1.4l-0.9-0.4l-1.5-1.8l-1.7,2.5l-0.7-1.4l-1.9,0l-1.9,0.7l-1.5,1.2
	l0.3,1.9l-0.9,0.4l-2.2,2.8L64,16l1.7,1.3l-0.2,1.3c-1.6,1.1-3.1,2.1-4.7,3.2L60.6,23l1.4,1.2l2.7,0.8l-1.3,0.2L61.8,26l1.1,1.7
	l0.7,0.8c1.1-0.1,2.1-0.2,3.2-0.3l1.3,0.2l1.7,1.5l0,1l0.8,0.9c0.4,1.3,0.8,2.7,1.3,4l0.4,0.8l-0.7,1.9l0.5,0.5l0.6-0.3
	c0.5,0.6,1.1,1.3,1.7,1.9l-1.3-0.5l-0.6,0l-0.2,1l0,1.3l0.8,0.6l0.6-0.3c0.4-0.3,0.7-0.6,1.1-0.9l-0.1,1.4l-0.2,0.7l-1,0.6l-0.6,2
	l0.4,0.6L73,48.4l0.9,1.4l0.1,1.3l0.3,0.9l1.1,1.7l0.4,1.3l0.6,0.7l1.3,0l0.9,1l0.9-0.1c0.2-0.8,0.4-1.6,0.6-2.3l-0.3-1.1l1-1.1
	l0.3-0.9l0-1l0.5-0.9c0.6-0.2,1.2-0.5,1.7-0.7l0.4-0.1l1.4-1.1l0.9-1.7l0.7-0.6l0.7,0l1.8-0.6l1.7-1.4l1.7-1.6
	c-0.8-0.1-1.7-0.1-2.5-0.2l0.7-1l-0.2-1.3c0.4,0.6,0.9,1.2,1.3,1.9l1.1-0.4L92.9,39l-0.8-1.2l-0.9-0.5l0.3-0.6l1.2,0.9l0-0.9
	L92,35.2l0.9,0l0.9-0.3L94,34l-0.7-0.9l1.4-0.2l-0.8-2.1l0.7-0.2l-0.1-2.2L93.2,27l1-0.9l1-0.1l-0.8-1.9l0-3.4
	c0.4-1.6,0.8-3.2,1.2-4.8l-1.5-0.2l2-0.6l0.4-0.9l2.6-2.9L98.9,9.6z M47,18.7l1.2,0l-0.5,0.9l0,1.2l0.7,1.3l1.3,0.4l1.1-0.2l1.2-2.4
	l0.9-1L52,17.7l-0.5-2.4c-0.7-0.5-1.4-1-2.1-1.5l-0.8-2.2l-1.5,0.2l0.3,0.9L46.7,13l-0.4,1.2l-0.4,1.7l0.4,1.6L47,18.7z M45,22.8
	l0.5,0.7l0.9-0.6l0.2-1.1l-0.8-1.1l-0.4-0.2l-0.8-0.1l0,1.3L45,22.8z M41.1,21l-0.6,0.9l1.4,0.1l1,1l1,0.3l-0.2-1.3l-0.5-1.5
	l-1.7-1.2l-1.2-0.5l0,1.3L41.1,21z M31.2,28.6l1.2-1.1l0.6-0.1l0.5-1l0.1-2.2l-0.9,0.4l-1,0l-1.3,1.8l-1.1,2l0.9,0.6L31.2,28.6z
	 M32.6,30.7l0.9,0.4l2.9-0.3L35,31.9l0.1,0.8l1-0.1l1.6-1l2.1-0.4l0.4-1.2l-0.1-1.3l-0.7-0.1l-0.6,0.4l-0.2-0.9l-0.2-1.3l-0.7-0.3
	l-0.6,1l0.9,2.5L37,29.9l-1.1-1.5l-1.8-0.9l-0.6,0.7L32.6,30.7z M29.2,40.1l1.7-0.9v-0.9l0.8-1.4l1.5-1.5l0.8-0.6l-0.7-0.9l-0.6-0.7
	L31.1,33l-0.9-0.5l-2.1,0.4l0.6,1.4l-0.5,1.4c-0.2,0.8-0.5,1.6-0.7,2.4l1.5,1.1L29.2,40.1z"/>
</svg>
