<svg xmlns="http://www.w3.org/2000/svg" xml:space="preserve" viewBox="0 0 100 100"><path d="M30.2 30.6c.1.2.2.5.3.7l.1.1c.1.1.2.2.2.3h.2l.1.1v.2l.1.1.1.1.1.1.1.1.1.1h.1c.1 0 .1.1.2.1l.1.1c.2.4.4.7.5 1.1l.1.4-.1-.1v.3h-.2l.1.1c.1.2.3.4.4.6v.2l.1.1.2.2.2.1.8-1.3v-.1l-.1-.1V34l.7-2.2h-.2v-.1h.1l-.1-.2V31l-.3-.4-.2-.1-.2-.2-.1-.1-.2-.2c-.2-.1-.3-.2-.5-.3l-.1-.1h-.1l-.1.1-.2.2-.1.2h-.1l-.1-.1-.1-.1v-.1l.2-.4-.1-.1-.1-.2.1-.1c-.1-.1-.1-.1-.2-.1h-.1l-.2-.1h-.6l-.4.1-.2.1-.1.1-.2.2-.1.1-.1.2v.7c.1.1.1.2.2.3m1.2 7.4.2.1h.3l.2-.1.4-.4-.1-.2c-.1-.1-.1-.2-.2-.3l-.1-.1c-.2-.1-.4-.2-.6-.4l-.1-.1-.1-.1H31l-.2-.1-.2-.2-.2-.1-.2.2v.2l.1.1v.1l.1.1h.1v.2l.1.1.1.1h.3l.1-.1.1.1v.1l-.1.2-.6 1.2h-.1l-.2-.1h-.1v.1l.1.1h.2l.2-.1.9-.3-.1-.1zm-4.8.6.1.2v.1l.1.3.2.4.1.1.2.2.4.2h.4l.1-.1.1-.2v-.4l-.2-.1h-.2c-.1-.1-.3-.2-.4-.3-.3-.4-.5-.7-.8-1.1l-.2-.2-.1-.1-.1-.2-.1-.1h-.1l-.1.1v.2zm74 19-.3-.1-.4-.5-.1-.3v-.4c-.1-.3-.1-.5-.2-.8V55l.3-.1.1-.1.1-.1.1-.2-.2-.5.1-.3.2-.2c-.1-.2-.1-.4-.1-.6v-.8l.2-.2.1-.1.1-.2-.1-.2-.2-.3-.1-.2v-.1l.1-.2.1-.3v-.2l-.1-.3c0-.1 0-.1.1-.2l.1-.1.1-.2-.1-.3-.1-.2-.1-.5-.3-.4-.1-.2v-1.5l-.1-.4.1-.3-.4-.8-.1-.1-.1-.2-.1-.5-.2-.3v-.2l.1-.3v-.5l-.3-.3-.1-.2-.4-.3-.4-.1v-.1l-.1-.5-.2-.3v-.2c-.4-.7-.8-1.4-1.3-2.1l-.2-.2-.3-.2-.2-.1h-.5l-.3-.1-.3-.1-.5-.1-.3-.2-.1-.3-.3-.2-.4-.2v-.2l-.2-.1H92l-.1-.1v-.2l-.2-.4c.1-.2.1-.4.2-.5l-.2-.3-.1-.2-.4-.1-.2-.1h-.3l-.3.1c-.2 0-.3-.1-.5-.1l-.2-.1-.2-.2h-1.3l-.4.1h-.5l-.3-.2-.1-.1h-.2l-.3-.1h-.3c-.2 0-.4 0-.6-.1l-.1-.1-.1-.1-.3-.4-.3-.1h-.2l-.3.2-.3.1-.2-.1-.4-.1v-.5l.1-.1h.4c.7-.1 1.3-.3 2-.5.3 0 .6-.1 1-.1h.4l.3.1.1.1.2.1h1l.2-.1.3-.1.2-.1V32l-.2-.1-.1-.1-.2-.5.1-.3v-.3c.2 0 .3 0 .5.1l.4.1h.1l.2.1-.1.2.1.2.1.1.1.1h.2l.2-.1.1-.1v-.2l.1-.1.2-.1.1.1.1.2.1.1h.1l.2-.1.2-.2h.2l.1-.1.2-.1.3.1.2.1h.2l.1-.1.2-.2c.1-.1.3-.2.4-.3l.4-.1.2-.2v-.1l-.2-.1-.2-.4v-.2l-.1-.5v-.3l-.2-.5c-.1-.5-.3-1.1-.4-1.6l-.1-.6-.1-.2-.2-.3-.1-.2-.3-.2-.1-.5-.3-.7V23l-.3-.3-.2-.1-.2-.3.2-.7-.1-.4v-.7l-.2-.2-.2-.3-.1-.1-.2.1h-.3l-.2-.1-.1-.3.7.2.2-.1.1-.1v-.2l.1-.2.1.1v.2l.1.3.1.1h.3l.2-.3V19c.1-.3.1-.6.2-.8v-.4l-.1-.3-.6-1-.5-.4-.4-.4-.4-.3-.2-.1-.8-.3-.3-.2-.3-.1-.3.2-.2.2v.2l-.2.2-.3.4h-.1l-.1-.2-.2-.2v-.8l-.2-.3-.4-.1-.1.3v.1l.1.1.1.2-.3.1h-.5l-.2.1-.3.3-.3.1h-.2l.1-.1.2-.2.1-.2-.1-.2-.2-.1-.1-.1v-.5l.2-.1h.2V14l-.1-.1v-.3l-.2-.2h-.1l-.2.1-.1.1v.2l-.2.1-.2-.1-.2-.2-.3-.1-.2-.2-.2-.1h-.4l-.3-.1-.1-.1-.5-.2-.3-.2c-.1 0-.2-.1-.3-.1l-.6.1-.5-.2-.4-.1H80l-.4.1-.2-.1h-.5l-.2.1-.3.3-.2.3-.4.2c-.2.1-.5.2-.7.3l-.2.1-.1.2-.1.1-.1-.4.1-.6-.1-.3-.1-.1h-.4V12l-.1-.2-.2-.1-.2-.1-.3-.2-.2-.1v-.1l.1-.3.1-.7V10l-.3-.2-.1-.1.1-.2h.1l.2-.1.2-.1.1-.2-.2-.2-.2-.2-.3-.1h-.3l-.2.1-.3.3-.1.4v.3l-.2.3-.1.2c-.2.1-.3.3-.4.4l-.3.1h-1l-.2-.1h-.2l-.6-.3h-.5l-.5.1h-.4l-.5-.1h-.2l-.3.1h-.5l-.4-.1-.2-.2-.3-.2-.2-.3v-.5l.1-.3v-.2l-.1-.1-.1-.1-.2.3-.3.2-.4.1h-.1l-.3-.3-.1-.1v-.1l.2-.1v-.2l-.1-.2-.1-.3-.1-.1-.1-.1-.4.4c-.2.2-.3.4-.5.6l-.7-.1-.1-.1-.2-.1-.2-.1-.1-.1v-.5l.2-.3.2-.4-.1-.2-.1-.1-.2.1h-.2l.1.4-.2.2h-.1l-.9-.6V6h-.3l-.2.2h-.2l-.3-.2-.4-.1h-.5l-.2-.2-.1-.2-.1-.4h-.3v.1l.1.1.1.1v.1l-.4.1-.2.1-.1.1-.3.3-.2.2h-.1l-.3-.2-.2-.1-.5-.5-.1-.1-.2-.3-.3-.2-.3.4-.2.1h-.2l-.5-.4-.2.3h-.3l-.3.1h-1l-1.2.3-.7.1-.6.3-.3.2-.5.3H50l-.3.3-.2.3-.1.2-.1.2-.2-.2-.1-.2v-.4l-.1-.2h-.1l-.1.2-.1.1-.4.1-.2-.2-.2-.1h-.1l-.3.1-.4.1-.2-.1h-.3l-1.1.2h-.1v-.3l.1-.2.1-.2.1-.2-.1-.2-.2-.1-.2.1-.2.2-.2-.1h-.1l-.3-.1-.2.1H44v.3c.1.1.2.2.2.4v.9l-.1.2H44l-.2.1h-.1l-.3-.6-.3-.3-.1-.1h-.1l-.2-.1-.2-.2h-.1v.2l.2.1-.1.1-.1.2-.1.1-.1.1v.3l-.1.3H42l-.2-.1-.1-.1-.3-.2-.2-.1h-.1l-.1.1v.2l.1.2.1.2.4.2.3.1h.1l.1-.1.1.1v.2l-.1.3c0 .3 0 .6-.1.9l-.1.1-.2.2-.4.4-.2.4h-.6v.1l.1.1.2.3v.2l-.1.1h-.5l-.3.2-.1.2-.1.4v.1l-.1.1v.5l.1.1h.2l.1.1v.1l-.1.1v.1l.1.1h.3l.3-.2.4-.2.1.2v.1l-.2.4v.3l-.1.2-.1.1h-.5l-.2.1h-.2l-.2.1v.1l-.1.7v.7l-.1.2v.4l.1.2.1.1h.1l.1.1-.1.1-.1.1-.3.3-.5.1-.3-.1-.1.1-.2.2-.2.1h-.3l-.3.3-.5.3-.7.8-.3.6-.2.3-.2.2-.3.4-.1.7-.1.2v.3l-.2.8v.3h-.2l-.1.1-.1.5-.1.1-.1.3v.2l.2.4v.2l-.1.1.1.5.3.9.2.3.2.3h.2l.2.1h.6l.6-.1.1-.1.3-.4.1-.1.1-.1h.2l.2.2.2.3.2.2c.7-.2 1.3-.4 2-.6v-.1h.1l.1.1h.3v.2l-.1.2v.1l-1.6 1.1-.1.1v.1l.1.3-.2.2.1.3-.1.1-.2.1-.1.2v.1h-.1v.1c-.1.2-.3.4-.5.6l.1.2v.6l-.1.1v.2h-.7l-.1.5v.4l-.1.1v.3l.1.2.2.4.1.4.2.5.3.5v.2h-.1v.3l-.1.2.3.2h-.2l-.2-.2-.1-.2-.1-.2-.2-.2H37v.1l-.1.1-.1.1h-.2l-.2.1-.2.5-.1.2v.8l-.1.1v.3l.1.3.1.4-.1.1.1.2.1.1.2.5c.2.4.6.8.9 1.2l-.1.1-.1.1-.1.1-.1-.2h-.1l-.1-.1-.1-.1-.1-.1-.2-.1-.2-.1h-.1l.1.2h-.1l-.3-.1h-.2c-.1 0-.3-.1-.4-.1v-.3l-.2-.5-.1-.2v.4l-.1.2v.4l.1.2-.1.1h-.2v.1h-.2l-.3-.2h-.3l-.1-.1.1-.4v-.2l-.2-.1-.1.2c0 .1-.1.1-.1.2h-.1v-.3h.1v-.1l.1-.1v-.1l.1-.2v-.2h-.2l-.2.3-.2.3-.2.2-.9.5h-.3l-.1.1v.2l-.1.1h-.9l-.1.1v.1l.1.1.1.3.1.2.1.2-.1.1-.2.1v.2l.1.1-.1.1H30c-.2 0-.3 0-.5-.1h-.7v.3l-.1.4c-.1.2-.3.3-.5.5l.1-.4.1-.4v-.2l-.1-.1-.1-.2-.2-.1-.4-.2-.3-.1h-.2l-.1.5-.3 1.1-.1.3v.1h.3l.2.1v.2l-.2.1h-.2l-.3.1h-.1l-.4.3-.2.1-.1.1-.6.1h-.5l-.1-.1.1-.1v-.1h-.1l-.2.1-.2.2h-.4c.3-.2.7-.3 1-.4l.4-.3.5-.4.2-.2V43l-.1-.5.1-.4-.2-.1-.2-.1-.3-.1v.1l-.1.1c-.4.5-.8.9-1.3 1.4l-.1.1v-.2l-.1-.1-.1-.1.1-.2.1-.2.4-.8.4-.5.4-.4.1-.2v-.4l-.2-.3-.1-.2-.5-.5-.2-.1-.2.2-.3.5-.1.4-.2.1-.2.1-.2.1c-.3.1-.7.1-1 .2h-.3l-.1-.1v-.6l.1-.1v-.3l.4-.6V39l.1-.4.3-.4.1-.4v-.5l-.2-.2-.2-.4-.1-1.1v-.9l-.1-.4v-.2c0-.2-.1-.5-.2-.7l-.1-.5v.1h-.1l-.1.1H21v.2l-.1.1-.1-.3v-.4l-.1-.1h-.2l-.1.1v.3l-.1-.1v-.2l.1-.1-.1-.1-.2-.1-.2-.1v-.1l.1-.1h.1l.3.1h.2v-.1l-.1-.2-.1-.1h-.6l-.1-.1.1-.1h.1l.2-.1.1-.1v-.2l-.2-.5-.1-.1h-.1v.3l-.2.2-.1-.1v-.1l.1-.2-.1-.2h-.2l-.1.1-.2.3v-.1l-.1-.1v-.2h.2v-.1l-.1-.2-.3-.2h-.4l-.2.1v.2l-.3-.1-.2-.1h-.3l.1-.1.1-.1h.4v-.3l-.1-.1.1-.1.2-.1-.1-.3-.3-.2-.2-.1v.1l.1.1-.1.1-.4-.1-.3-.2-.1.1v.2l-.3.1-.2-.1.1-.1v-.2l-.1-.1-.6-.3h-.1v.3l-.1.1-.1.1v.2l-.2.2-.1-.4v-.2l.1-.4-.1-.2h-.4l.1.3-.1.1-.1.1v-.2l-.2-.3v-.1l-.1-.1-.1-.1v-.1l-.1-.1h-.6l-.3-.1-.1.1-.1.1v.2h-.2l-.1-.1v-.2l-.1-.1v-.1l-.2-.1-.2.3-.2.1h-.2l-.1-.1v-.1l.2-.1-.1-.1-.1-.2-.3.1-.4-.1-.5-.2h-.3l-.3.1-.1.1H9l-.2-.1-.2-.2h-.1l-.2.2h-.1l-.2-.2v-.6l.1-.1H8l-.1.1-.1.1-.1.5v.1l.1.3.2.1h.2l-.2.2-.3.3-.2.1h-.1l-.1-.2v-.1l-.1-.1h-.1l-.1.3-.1.1-.1-.1-.1-.5-.1-.1h-.2v.1l.1.3v.1l-.1.1-.1.1-.1-.1v-.1h-.3l-.1-.1-.2-.2h-.3l-.1-.3H5v-.2l.1-.1v-.3h-.2l-.1.1v-.3h-.1l-.2-.1-.1-.1c-.1-.1-.2-.2-.3-.2v-.1h.1l.1-.1.3-.2v-.3l-.1-.1h-.1l-.3.1L4 25v-.1l-.1-.2v-.1h-.2v-.2l.1-.1.1-.1H5v-.1l-.2-.1h-.2l-.1-.1-.1-.1h-.3l-.1-.1v-.4l.1-.1.3-.1.2.1h.1l-.2-.2-.2-.1v-.1l-.1-.2.1-.1.2-.1.2.1h.1l-.1-.1-.1-.1h-.2v-.2h.1l-.1-.2-.1-.1h-.1l-.1.2v.1l.1.1v.1h-.1v.1l.1.2-.1.2v.3L4 23h-.7l-.1-.1-.1-.1-.1-.3.1-.2H3l-.1.1-.2.1h-.3l-.1-.1-.1-.1v-.1h.1l.1-.2-.1-.1h-.4l.1-.3v-.1l.1-.1h.1l.1-.1V21l-.1-.2-.2-.3v-.3l-.1-.1V20l-.1-.4.1-.1.1-.1.2.1h.1l-.1-.1-.2-.1-.1-.1v-.1h.2l.1-.1.1-.1h.2v-.1l-.2-.1h-.2v-.1l-.1-.1v.1h-.2l-.1-.1.1-.1-.3-.6-.1-.4v-.9l.1-.2.1-.1h.1l.1.1h.1l.1-.1.1-.1-.2-.1h-.5l-.2-.1h-.1l-.1.2-.1.5.1.4-.1.5-.1.2v.9l-.1.5-.1.3v.8h.1l.3.2v.4l.1.1.2.1.1.2v.2l.1.3v.1l-.1.1h-.2L1 22l.2.2h.2v.1l-.1.1v.4l.2.1h.1l.1.1h-.2l-.1.2-.2.2.1.2.1.2.2.1.2.1.2-.1.1.1v.1l-.1.2v.1l.1.1-.1.2h.2l.1.1-.1.1.1.1h.1l.1-.1h.1l.1.1-.1.1-.2.2v.3h.3v.1l-.1.1v.1l.2.2v.1h.3l.3.2.1.1v.2l-.2.1v.2l.1.2.1.1.3.1.1.1.1.1.2.1h.1l.3.1.1.1h-.2v.1l.1.1h-.1l-.1-.1h-.1l-.3-.1h-.1v.1l.2.2v.2l.6.3h.2v-.3l.1-.2-.1-.2H5v.1l.1.2c.1.1.3.2.4.3l.2.1H6l.2-.1.1.1.3.2.2.2H7l.2.1-.1.1.2.1.3-.1.2-.1.2.4.1.2.2.2.2.1-.4.5v.5h.5l.3.1.4.2h.9c.5.1.9.1 1.4.3l.4.2.5.2h.9l.4.1c.3.2.6.5.9.7l.4.4.1.3.1.6v1l-.2.4.1.3-.1.1v.7l-.1.1.3.8v.4h.1l-.1.1-.1.1.1.2v.2l.1.3-.1.3v.2h-.1l-.2-.1-.3-.2h-.2v.2l-.1.2v.7l-.2.2h-.4l-.5.3-.2.2.2.1-.1.2.1.1.2.1.3-.1h.4l-.5.4v.1l.1.1h.6l.2.1.1.2.1.4-.3.4v.3l-.1.1-.2.2-.1.2-.1.2-.2.2-.3.2-.2.1v.1l.3.4v.3l-.4.2v.1l.1.2-.1.2v.1l-.2.3-.4-.2-.2-.1h-.2l-.2.2v.4l.3.1.1.1v.3l.2.1v.1l.1.1h.3l.3.1.2.3v.2l-.3.7v.4l.1.6.2.2.1.2-.1.2v.4l.1.2.1.2.1.2v.4l-.1.2-.1.4.1.1-.1.1-.1.1v.1l.1 1 .1.3v.4l.1.3.1.2v.4l-.1.1-.1-.1h-.2l-.1.1v.5h.1l.1.1.3-.1.5-.3.2-.2v-.2l-.1-.5v-.2l-.1-.2v-.5l.1-.3.1-.3.1-.2.1-.2.1.2v.2l.1.1.1.1.2.6v.3l-.1.1v.7l.1.2h.3l.2-.1v-.4l.1-.3.1-.1.5-.3.3-.1V54l.1-.1-.1-.2v-.2l.1-.1.3-.1.4.1.1.1.1-.1v-.1l-.1-.2V53l.2-.3.1-.3.1-.1h.3v.4l.2.3v.2l.1.1.1.2-.1.2-.3.2H18l.1.6v.2l.1.2.2.2v.2l.1.2v.2l.2.2.5.6v.2l.1.2.1.3-.1.3v.6l.2.4.2.6.1.1-.2.1-.5-.3-.3-.1h-.3l-.4.1-.3.2-.1.2v.3l-.1.1.1.2v.1h.2l.2-.1.2-.1h.2l.2-.1.2-.2h.1l.1.1.1.1.3.4.2.2.1.1.1.1v.1l-.1.1h-.2l-.4.1h-.3l-.3-.1-.1.1.1.1h-.1l-.3.1V61h-.1l-.1.1-.1.6v.2h.2c.3-.1.7-.2 1-.3h.1l.2.7.2.3.1.5.1.3.1.2h.3l.3.1.1.1.7.8.8 1.1.1.2.3.5.4.4.1.4.3.4.7.4.1.1.3.2.1.2.1.4.3.4.1.2.2.1.3.2.3.1.1.1.1.2.1.2v.3l.2.2.4.2h.2l.4-.2.2-.1h.1l.2.2.1.3.8.4.3.1.5-.1h.3l.2.1h.1l.1-.5h.1v.1l.1.2v.5l.1.1.4.1.3.1.5-.1h.5l.4.2.3-.1.1-.1v-.9h.1l.1.1.2.4.1.1.2.6.2.2h.2l.1-.1h.5l-.1-.2-.1-.2-.2-.2-.6-.2-.2-.3c0-.2-.1-.5-.1-.7v-.1l.1-.2.1-.1.1-.1h.1l.1-.1v-.4h.2l.1-.1c0-.1.1-.2.1-.2h.1l.2.1.1.1v.5h.3v1h.1l.1-.1.1-.1V71l-.1-.1-.1-.2v-.1l.2-.1h.4l.2-.1.1-.1h.1l.1.1v.1l.1.4.2.5.1.1.5.2.1.1v.4l.3.4.1.1h.1l.2.2h.2l.2-.1h.2l.5.2v.4h.1l.1-.1c.1-.2.2-.5.3-.7s.2-.3.3-.5v-.3l-.1-.3V71l-.3-.1-.5-.2-.1-.1-.1-.1-.1-.2.2-.1h.9l.2-.1v-.3l-.2-.6-.2-.3-.3-.3-.3-.2h-.2v-.2l.1-.1V68l-.1-.1v-.4l-.1-.3-.4-.5-.1-.3v-.1l.1-.2-.2-.1h.2v-.2l.1-.1h.2l.3.2h.3l.1-.1.2-.2v-.4l-.2-.2.1-.1v-.2l-.1-.1-.1-.2.1-.1c.9.3 1.7.5 2.6.8h.2l.1-.1.1-.1-.1-.2-.4-.5-.1-.2v-.3l.1-.1.1-.1.1-.1.1-.1v-1.2l.2-.2.2-.1.5-.2.2-.2h.7v-.2l.2-.2h.1l.5-.2.1.1.2.1.4.1v.6h.2l.1-.1.1-.1v.4l.1.2.1.1.4.1h.2v.2l.1.1.4.4.2.2h.1l.1-.1h.1l.1-.1h.1l.3.3v-.2l-.5-1.1-.1-.1-.4-.6-.1-.2v-.7h-.5l-.1-.1-.3-.3v-.3h.1l.1-.1v-.1l-.1-.2v-.1h.3V59l-.2-.1v-.2l-.8-.9-.2-.2v-.2h.2V57l.1-.2h.1l.5.7.3.3h.1l.6.3h.1l.1.2.1.1.6.4.6.2h.2l.1-.1v.2l.1.1h.2l.1.1h.4l.1.2v.1l.1.1.1.1.1.1.4.2h.1l.1.1v.2h.3v.1h.1l.1.2h.1l.1.1.1.1h.1v.2l.1.1h.1l.1-.1.2.1h.4l.1.1.1.1v.1h-.1v.3l.1.1h.1v-.1h.1l.1.1v.3l.1.2.1.1h.1l.1.1.6.6h.1l.2-.1.2-.2v-.1l.1.1.4-.1v.2l-.3.3-.3.4.1.1.3.3.1.1v.1h.1l.1.1.2.2.1.1.4.4.2.1v.3c.1.2.1.4.2.6l.1.1v.1h-.1l-.1.1v.2l.1.1.1.1v.3h.1l.5-.2h.2l.1.1v.1c-.1.2-.3.5-.4.7v.1l.2.1.1.1.1-.1h.1l.1.1-.1.2v.2h.1l.1.1v.1l-.2.3v.1l.1.1.1.2v.4l-.1.2h-.2l-.1-.1H57v.2l.1.1.3.4.1.2v.1l-.2-.3-.4-.3-.1.1-.2.3-.1.1-.1.2-.1.1-.6.2-.1-.1-.1-.1-.1.1h-.1v.2l.1.2h.2l.2.1.2.3.1.3.1.2h.1v-.4l.1-.2.2.1h.1v.2l-.1.3v.2l.1.1h.2v.2l.2.1.1.2.1.4c.1.2.3.5.5.7h.2l.1.1v.5l.1.2.1.2v.2l.2.5h.1l.1.1v.7l.1.1h.1l.2.1.1.1.1.3.2.1.4-.1.1-.1.1.1-.3.4h-.2l-.1.1h-.1v.2l.2.7v.2l-.1.2-.1.1.1.4v.1h-.1l-.2-.3h-.1l-.1.1h-.4l-.1.1h-.2v.3l.1.1c.2.2.3.5.5.8l-.1.1v.2l.1.2.2.6.1.3-.2-.2h-.1l-.2-.4-.1-.4-.1-.2-.1.1h-.1l-.1.1-.1.2.1.2.1.1-.1.1-.2.1h-.4l-.1.3h-.1l-.1.1.1.1.3.1.3.1.3.4v.1H58l-.2-.3-.4.1h-.2l-.1.2h-.2l-.2-.2-.3.4v.4l-.1.2v.1l.4.2.3.1.3.3h-.2l-.3-.1h-.2l-.2-.1-.2-.1-.1.1v.2l.1.2.1-.1h.1l.1.6-.1.4h-.3l-.1.2.1.3.2.3.2.4.1-.1v-.4l.1.1.2.1.7.4.3.1h.2l.2.2c.1.1.1.2.2.3l.1.1.1.1h.3l.5.1h.4l.2-.1h.5l.4-.1h.2l.2-.3.3-.1h.2l.3.2.4.3.3-.2.1-.3-.1-.4-.4-.6v-.2l.3.2.2-.1.2.1.6.9.4.4.4.1.2.3.1.2.2.2-.1.4h.3l.7.1h.2l.3.1h.2l.1-.1.1-.3.4.1.4-.2.4.1.4-.1.4.1h.2c.2.1.3.2.5.3l.5.3.2.1h.1l.1-.1-.1-.3-.1-.3v-.2l.1-.1.1-.2.1-.2.3.1h.2l.2-.1.5-.2v-.2l.1-.2h.2c.1.2.3.5.4.7h.1l.1-.2.2-.2.2-.1.2-.1.3-.2.3-.2.3-.2.7-.2.1-.1.2-.1h.3v.2l.1.1.1.1.1.1c.3.1.7.1 1 .2l.3-.1.3-.3.1-.3.2-.4v-.3h.2l.1.1v.4l.1.3.1.5.1.3.2.1.2-.1.1-.2.1-.1.2.2h.2l.2-.1.1-.3.1-.2.1-.1.3-.1h.4l.3-.2.1-.2.4-.1.7-.5h.3l.3-.1.6-.5v-.1h.6l.4-.2.3-.3v-.2l.1-.2h.4l.2-.1.4-.2h.2l-.1-.5.1-.2v-.4l.1-.1.2.2.1.1h.3l.4-.2.2-.2v-.3l.4-.3.2-.4.4-.4.2-.2.2-.3.1-.3.1-.2v-.2l-.1-.3c-.2-.4-.4-.7-.7-1.1v-.2l.1-.1.1-.2.1-.1.4-.2.2-.3h.9l.6.2.2-.1.3-.2.2-.1.1-.2.1-.2-.1-.2-.1-.1v-.3l.1-.2.2-.1.2-.1.1-.2v-.3l.1-.4.3-.9v-.6l.1-.4.1-.5.3-1.1.2-.1.1.4c0 .4-.1.7-.1 1.1h.1v-.1l.1-.3v-.7l.1-.2.1-.1.2-.1.1-.1.1-.1v-.2l.2-.3.1-.1.2-.1.1-.2v-.8l.1-.4-.1-.2v-.4l.1-.3v-.3h.2l.3.2v.5l-.1.6.1.2.3.3.5-.1.2-.1.1-.2.1-.2.3-.1.7-.1.3-.1.2-.1.1-.1.2-.2.1-.5c0-.3.1-.7.1-1l.1-.9-.4-.4-.4-.1-.1-.3-.2-.7v-.4l.3-.4.3-.4.3-.1v-.2l.1-.2h.2l.1-.1.3-.3.3-.6.8-1.1.1-.3.3-.3.2-.3v-.3l.3-.4.2-.4-.1-.3zM10.4 35.1v.3h.2l.2-.3.2-.1v.5l-.2.2v.2h.2l.2-.1.1.1-.2.1-.2.1-.1.1-.1.1v.2l.1.1h.4l-.1.1-.1.1v.2l.1.2h.7c.1 0 .1-.1.2-.1l.1-.1.1-.1.1-.1v-.3l.1-.1h.2l.1-.1v-.1l-.2-.3h-.1c-.1 0-.2.1-.3.1v-.1l.1-.1.2-.1.1-.1-.4-.5V35l.2-.1.2-.1.1-.1v-.2l.3-.3h.1l.1.1.1.1v.7h.1l.2-.1.1-.1v-.4l-.1-.2v-.2l.1-.1h.1l.1.2v.3l-.2.5-.2.3-.4.4-.1.1v.2l.2.2h.5l.1-.1V36h.2v-.3l.1-.4v-.2l.1-.1.1-.1V34l-.2-.3-.3-.5-.1-.1-.1-.1-.2-.1-.3-.2c-.6-.3-1.3-.5-2-.7h-.1l-.3-.1H8.8l-.5-.1h-.8l-.1.1v.2l-.2-.1h-.1l-.4-.1h-.1l-.2.1h-.1l-.1.8v.6l.1.1.1.1h.5l.1-.1h.3l.6.3h.4l.7-.4v-.3l.1-.3.1-.1h.1l.2-.1.3-.1-.2.2v.5l.1.4.2.2h.1l.1-.1.1-.1.1-.2.1-.2.1-.1h.1l.1-.1v-.1h.1c.1 0 .2.1.4.1h.1l-.4.1v.3l-.3.6v.1l.2.2v.2l-.3.4z"/></svg>
