<?xml version="1.0" encoding="utf-8"?>
<!-- Generator: Adobe Illustrator 18.0.0, SVG Export Plug-In . SVG Version: 6.00 Build 0)  -->
<!DOCTYPE svg PUBLIC "-//W3C//DTD SVG 1.1//EN" "http://www.w3.org/Graphics/SVG/1.1/DTD/svg11.dtd">
<svg version="1.1" id="Layer_1" xmlns="http://www.w3.org/2000/svg" xmlns:xlink="http://www.w3.org/1999/xlink" x="0px" y="0px"
	 viewBox="0 0 100 100" enable-background="new 0 0 100 100" xml:space="preserve">
<g id="Layer_7">
	<path d="M41.5,26.8l1.6,0.1l0.8,0.3l1.2-0.5l-0.2-1.1l0.9-0.5l1.3-0.4l2,0.7l0.8,1.3l0.9,0.8l1.2,1c0.9,0.1,1.9,0.3,2.8,0.4
		l0.4,0.4l1-0.1l0.2-0.4L54.6,28l0.4-0.3l-1.2-0.3l0.1-0.7H53l-1-1.6l-1.3-1l-0.3-1l1.4-0.2l-0.4-0.8L49,21.3l-0.2-0.9L48,19.6
		l-1-0.8l-2.8-0.9l-2.6-1C41.5,20.3,41.5,23.6,41.5,26.8z M51.5,74.4c-0.7,0.2-1.3,0.3-2,0.5l-1.4-0.5l-1-0.1V75l0.9,1.3l0.2,1
		l0.9,1.3H50l0.3,0.1l1-1l0.5,0.4l0.2-1.2l0.5-0.5l-0.1-1.8L51.5,74.4z M59.7,53.1v-0.9L59.3,51l-1.2-1.2c-0.6-0.5-1.2-1-1.8-1.5
		L56,46.7L55.7,47l-0.6-0.7l-0.6,0.3L53.9,45L53,44.1l0.2-0.4c-0.7-0.4-1.4-0.9-2.1-1.4l-1.6-0.8l-0.5-1l0.1-0.8l-0.4-1.3l-0.4-0.2
		c-0.2-0.7-0.4-1.4-0.5-2l0.2-0.7L47.3,35l-0.5-0.6l-1,0.6l-0.5-1.2l0.1-0.5l-0.1-0.8l-0.5-0.8L44.7,31l-0.4-0.2l-0.1-0.9l-0.4-0.7
		l-0.6,0.6v0.4L42.9,31l-0.4,0.8l0.2,0.5l-0.3,0.3l-0.2,1.1l0.2,0.9L42.3,35l0.2,0.7L42,36.9l-0.2,0.8l-0.3,0.7l-0.3,0.8l-1,0.5
		l-1.4-0.5l-0.2-0.5l-0.8-0.4h-0.4l-1.1-0.9l-0.8-0.5l-1.2-0.5l-1.2-0.8L33,35.2l0.5-0.7l0.4-0.7l-0.2-0.6h0.5l0.6-0.6l0.4-0.8
		l-0.7-0.7l-0.4,0.3l-0.6-0.1l-0.9,0.4L32,31.1l-0.4,0.2l-1.3-0.4l-0.8-0.6l-1-0.4l-0.8,0.2l1.1,0.5v0.8l-1.3,0.3l-0.8-0.2L25.8,32
		l-0.7,0.9l0.2,0.4l-0.7,0.4l-0.7,1.2l0.3,0.8l-1-0.1h-0.9l-0.8-0.9L20.4,34c-0.5,0.1-0.9,0.3-1.4,0.4v0.4l-0.7-0.2V35l-0.8,0.3
		l-0.4,0.6l-0.8,0.7l-0.2,1.1l-0.7-0.3L15.2,38l0.5,0.7L15.1,39l-0.6-1.3l-1,1.3c0,0.5,0,0.9-0.1,1.4l-0.9,0.8L12.1,42l-0.8,0.7
		l-1.6,0.4H8.9l-0.4,0.1l-0.2,0.3l-0.9,0.2l-1.2,0.6l-0.4-0.2l-0.7,0.1L4,44.8l-0.7,0.6L2,45.9l-0.6,1l-0.1-1.1l-0.6,1.1l0.2,0.9
		l-0.2,0.8L0.4,49l-0.2,0.9l0.3,0.4l0.1,0.5L1.3,52v0.8L0.9,52l-0.7-0.4L0.7,53L0,52.3L0.2,53l0.9,1.2l0.2,1.2L2,56v0.4l0.6,1
		l-0.1,0.9L2.7,59l0.8,1.5l0.2,0.9l-0.2,1L3.6,63l-0.3,0.3l-0.7,0.2v0.9l0.8,0.3l1.6,1c0.7,0,1.4,0,2.1,0.1l0.7-0.5l0.8-0.4L9,65
		l0.9-0.8l1-0.1l1.1-0.2l1.3,0.3l0.9-0.1h1.3l0.6-0.6l0.3-0.8l1.3-0.3l1.6-0.8l1.4,0.1c1.2-0.4,2.4-0.7,3.6-1l2.7-0.1l1.4,0.7h1.1
		l1.9,0.9l-0.3,0.3l0.8,0.6l0.9,1.1V65l1.2,0.6l0.6-1.2l0.9-0.5l1.2-1.3l0.1,1.1l-0.6,0.7L36,65.2L35.2,66l1.3-0.3l0.7-1l0.4,1.1
		l-0.5,0.7l1.4,0.2l0.7,0.6l0.3,0.8l0.3,1.1l1,0.9l1.5,0.4l0.9,0.1c0.7,0.2,1.4,0.4,2.1,0.6l1.3-1.1l0.8-0.3l-0.2,0.8l0.9,0.3
		l1.2,0.7l0.9-0.6l0.7-0.6l1.4-0.6l1.7-0.1l0.9-0.5l-0.1-0.5l0.2-1l0.4-1.1l0.6-0.7l0.4-1.3l0.5-0.7l0.5-1.2l1.1-0.7l0.7-1.4
		l0.3-1.1v-0.9c0.2-0.7,0.4-1.4,0.7-2l0.1-1.3L59.6,54L59.7,53.1z M62.6,21.5l-0.5-0.3L62,20.7l-0.2,0.1l0.3,1.1l0.7,1l0.6,0.6
		l0.4-0.2L64,23l-0.7-0.5L62.6,21.5z M57.9,18.3l0.7,0.5l0.3,0.6l0.3,0.9l0.5-0.4l-0.2-0.8L59,18.6L58.4,18
		c-0.4-0.2-0.8-0.4-1.1-0.7l-0.8-0.4L56,17.3l1.1,0.4L57.9,18.3z M72.3,27.8l0.2-0.3l-0.6-0.7l-0.5-1.2h-0.5l0.3,0.9L72.3,27.8z
		 M54.6,22.6h0.8c0.5-0.2,1.1-0.5,1.6-0.7l0.2-0.4l0.8-0.1l0.5-0.9v-0.8l-0.3-0.2h-0.9l0.2,0.9l-0.8,0.5l-0.4,0.5l-0.9,0.1l-0.1-0.8
		h-0.2l-0.2,0.7l-0.8,0.1l-1.3-0.2l-0.1,0.5l0.9,0.4L54.6,22.6z M96.2,70.1l-1-0.1L94,69.5l-0.2-1.1L93,67.9v1l-1.1-1.6L91.5,66
		l-1.2-0.4l-0.8-0.8L89,64.9l0.6,1.1l1.2,1.3l0.7,0.6v0.3l0.6,1l0.1,1l-0.3,1.2l-1.1,0.5v0.5l1.6,0.6l0.5,0.8L92,75.1l0.6,0.2
		l0.3,0.4l1.2-0.6c0.5-0.7,1-1.4,1.5-2.1l-0.1-0.6l0.4-0.5H97l0.5-0.9l0.4-1.3L97,69.5L96.2,70.1z M90.9,74.5l-1.1,0.6
		c-0.2-0.4-0.5-0.8-0.7-1.3L88,74.5l-0.2,0.8l-0.6,0.4l-0.7,1.1l-0.9,0.8c-0.8,0.5-1.5,0.9-2.4,1.4l-1,0.3l-1.9,1.5l-0.8,1.1
		l0.3,0.6l1.6,0.1l1,0.5h1.4c0.6-0.4,1.3-0.7,1.9-1.1l0.9-1.5l0.4-1l1.3-0.6h1.2l-0.6-0.7l0.8-0.6c0.5-0.6,1.1-1.2,1.5-1.8v-0.6
		L90.9,74.5z M97.2,39.4l-0.7-0.2l-0.6,0.5l0.1,0.7l0.8,0.2l0.9-0.2l0.2-0.8l-0.5-0.4L97.2,39.4z M99.1,37.7l-0.5,0.1l-0.7,0.3
		l0.2,0.6c0.6-0.2,1.3-0.4,1.9-0.7v-0.7L99.1,37.7z M80.7,46.4l-0.8-0.7l-1.2-0.9c-0.4-0.3-0.7-0.6-1.1-0.9l-0.8-0.5h-0.6l0.2,0.5
		l1,1.1l1,0.8l1.1,0.7l0.8,0.4L80.7,46.4z M69.8,25.6l-0.4-0.5c-0.6-0.4-1.3-0.7-1.9-1.1l-0.2,0.2l0.6,0.5l0.8,0.5l1.2,0.6
		L69.8,25.6z M64.8,23l-0.1,0.2l0.6,0.6l0.7,0.3l0.3-0.1l-0.6-0.5L64.8,23z"/>
</g>
</svg>
