<?xml version="1.0" encoding="utf-8"?>
<!-- Generator: Adobe Illustrator 18.0.0, SVG Export Plug-In . SVG Version: 6.00 Build 0)  -->
<!DOCTYPE svg PUBLIC "-//W3C//DTD SVG 1.1//EN" "http://www.w3.org/Graphics/SVG/1.1/DTD/svg11.dtd">
<svg version="1.1" id="Layer_1" xmlns="http://www.w3.org/2000/svg" xmlns:xlink="http://www.w3.org/1999/xlink" x="0px" y="0px"
	 viewBox="0 0 100 100" enable-background="new 0 0 100 100" xml:space="preserve">
<path d="M48.4,90.7l-1.1-0.5l-1.4,1.2l0.6,0.9l1.1-0.9l0.6,0.7l1.7-0.6l0.4-0.7l-1-0.9L48.4,90.7z M78.9,23.7l-0.4-1.6L78,21.7
	l-1.1-0.1l-1-0.4l-1.6-1.4l-1.9-1h-1.9l-2.4-0.7l-1.5,0.4l0.2-0.7l-0.6-0.7c-1.2-0.5-2.4-0.9-3.7-1.3l-1,0.8v-1.3l-2.2-0.2l-0.4-0.4
	l0.9-1v-0.9l-0.7-0.2l-0.7-2.2l-0.3-0.7L57.8,10l-0.2-0.5l-1.3-1.1c-0.9-0.3-1.8-0.5-2.7-0.8l-1,0.1l-0.1,0.2L51,7.6
	c-0.4-0.3-0.8-0.7-1.2-1.1h-0.5V5.8L48.5,5c-0.4-0.2-0.9-0.5-1.3-0.8h-0.7l-0.2-1l-1-0.6l-1-0.1L44,1.9l1.1-0.4c-1,0-2,0-3.1,0.1
	v0.3l-0.7,0.6l-1-0.2l-0.7-0.6l-1.3,0.1h-1.1V1.4l-0.8-0.7h-0.9L35-0.2l-0.4,0.4l0.2,0.6l-1.6,0.5l0.1,1l0.4,0.4l-0.3,0.9l-0.5,0.1
	l-0.5-1L32.8,2V1.3l-0.4-0.6l0.7-0.1V0.3l0.2-0.4l-0.3-0.3l-0.4-0.1l-0.6,0.6c-0.5,0.3-1,0.6-1.5,0.9l-1-0.1l-0.1,0.3h-0.8L28,1.9
	l-0.2,1.1v0.4l-0.5,0.2l-0.9,0.9h-0.6l-0.2,0.1l0.3,0.7l-0.2,0.4l-0.5-0.1L25,6.1l0.5,0.7l0.2,1.1l-0.3,0.3l0.3,1.2l-0.2,0.7
	l0.5,0.3c-0.4,0.5-0.7,1-1,1.4l-0.6,0.1l-0.3,0.5l0.1,0.6l-0.5,0.1l0.2,0.4L23,14l-0.7,0.3l0.1,0.5l-0.5,0.8l-0.2,0.8l-0.5,0.1
	l0.2,1.1L21.1,18l0.8,0.6l0.5-0.6l0.3,0.5l-0.7,1l-1,0.8l-0.4,0.9l0.6,1.2L20.8,23l0.9,0.5l1,0.8l0.4,0.9l0.5,0.6
	c0.8,1.7,1.6,3.3,2.4,4.9l1.1,1.7l-0.2,0.3l0.5,1.1l1,0.8l2.2,1.4l2.5,1.3l0.1,0.5l1.3,0.8l0.3,1.9l0.1,2.2c-0.4,2.9-0.8,5.7-1,8.6
	L33.2,53l0.2,1.8L33,55.9l0.3,2.2c-0.7,2.4-1.6,4.8-2.3,7.3h-0.6l0.1,1.8l0.4,1.6l-0.6,1.1c-0.3,1.8-0.5,3.7-0.8,5.5l0.8,0.2
	l0.4-2.1l0.8,0.5l-0.6,3.5l-1.4-0.6L29,79.8l-1.2,1.6l1.9,0.5l-1.4,1.5l-0.5,1.8l0.2,3.3l0.6,1.3L28.2,91l0.4,1.3l0,0l0.2,1.4
	l0.4,0.4l0.3,0.2l1.2,1.6l1.3,1.2l1.6,1.2l1.3,0.3l0.9,0.7l0.7,0.2l0.6,0.1l1.1-0.7l0.4-0.9l0.6,0.8l1.2-0.1l0.6-1.1l-1.8-0.5
	l-1.5-1.5l-0.5-1.3l-0.1-1.8l-0.2-0.1l-0.7-1l-0.4-2.1l0.5-0.9l1.1-0.8l0.8-2.3l1.5-1.1l0.4-1.7l-1.2-0.4l-1.2-1.3l0.4-1.4l1-0.9
	h1.2l0.3-0.9l0.2-1.8l1-1.1l1.2-0.5l-0.4-0.9l-0.7,0.5l-0.8-0.4l-0.2-1.7l0.5-0.4l1.2,0.6l1.3-0.2l0.8-0.6l-0.2-0.8l0.3-1.2l-0.3-1
	l1.4,0.2l2.5-0.3l1.9-0.9l1.2-2l0.1-0.8l-0.8-0.7l0.2-1.1l-1.6-1.3l0.1-0.8l0.8,0.8h0.9l1.2,0.7l0.7-0.2L54,62l1.4-0.8l0.5-1
	l0.8-0.9l0.6-1.4l0.9-0.7l1.1-1.2l1.4-2.6l0.9-0.8l0.3-0.7l0.2-1.4l-0.2-0.8l0.2-1l1.1-1.4l1.5-1.1l1.4-0.4l0.9-0.6l2-0.5h1.4
	l0.3-0.8l1-0.6l0.2-1.4l1.3-1.7l0.2-1.8l0.4-0.5c0.1-1,0.3-1.9,0.5-2.9l-0.5-2.4l0.4-0.9h0.3l0.9-1.1l0.8-1.4l1.8-1.8l0.6-0.8
	l0.5-2.1L78.9,23.7z"/>
</svg>
