<?xml version="1.0" encoding="utf-8"?>
<!-- Generator: Adobe Illustrator 18.0.0, SVG Export Plug-In . SVG Version: 6.00 Build 0)  -->
<!DOCTYPE svg PUBLIC "-//W3C//DTD SVG 1.1//EN" "http://www.w3.org/Graphics/SVG/1.1/DTD/svg11.dtd">
<svg version="1.1" id="Layer_1" xmlns="http://www.w3.org/2000/svg" xmlns:xlink="http://www.w3.org/1999/xlink" x="0px" y="0px"
	 viewBox="0 0 100 100" enable-background="new 0 0 100 100" xml:space="preserve">
<path d="M93,69.7l-0.3-0.9l-0.3-0.6l-0.5-0.6l-0.4,0.6l0,0.8L90.7,70l-0.5-0.2l0.2,0.6l-0.4,0.7l-1.1,0.8l-0.7,0.8l-0.6,0l-0.5,0.2
	l-0.7,0.3l-0.6,0l-0.2,0.9l-0.5,0.8l0.1,1.2l0.2,0.9l0.3,0.6l-0.1,0.9l-0.6,1l0,0.5l-0.6,0.2l-0.2,1l0.1,1l0.5,1.1l0.1,1.3l0.4,0.7
	c0.6,0.3,1.2,0.6,1.8,0.9l1.1-0.6l1-0.3l0.6-1.6c0.7-2.7,1.6-5.4,2.4-8.1l0.1-1.1l0.4-0.3l0.1-0.6l-0.2-1l0.2-0.4l0.4,0.8l0.2-0.4
	l0.1-0.6l-0.3-0.6L93,69.7z M94.4,36.8l0-0.4l-0.5,0l-0.6,0.5L92.5,37L92,37.2l-0.4,0v0l-0.7,0l-0.5,0.2l-0.6,0.1L88.6,38l-1.4,0.2
	l-1.2,0.3l-0.6,0l-0.6-0.5l-0.3-0.5l-0.4-0.2l-0.5,0.7l-0.3-0.2L83,37.7l-0.7,0l0-0.4l-0.1-0.4c0.3-0.4,0.6-0.8,0.9-1.2l0.6,0.1
	l0.4-0.3l-0.6-0.4c-0.6-0.7-1.2-1.3-1.8-2l-1.8-1.3L79,31.2L78.7,30l-0.7-1.6c-0.4-0.3-0.8-0.6-1.2-0.8l-0.5-1.6l-0.2-1.4l0.3-0.3
	L76,22.9l-0.2-0.3l-1.5-1.3l0-0.9l0.3-0.2l-1.2-1.6l-0.4-0.8l-0.5-0.8l-1-2.3l-0.8-1.5l-0.5-1.6l0.1-0.1l0.9,2.1
	c0.3,0.4,0.7,0.8,1,1.1l0.3-0.3l0.4-0.8l0.3-1.1l0.4-0.6c-0.3-0.9-0.6-1.7-0.8-2.6L72,10l-1-0.1l-1-0.4L69.6,10l-0.4-0.7l-0.9-0.2
	l-1.1,0.1l-0.5,0.4l-1,0.5c-1-0.4-2.1-0.7-3.1-1.1l-1.7,0l-0.3-0.5l-1.3-0.2l-0.4-0.3l-0.5,0l-0.4-0.7l-1.7-0.3l-0.9,0.2L54.4,8
	L54,8.8l0.3,1.2l-0.6,0.7L53,11l-1.4-0.7l-1.8-0.6l-1.2-0.3L48.1,8l-1.7-0.7l-1.1-0.3l-0.5,0.1l-1.5-0.5l-0.5-0.2l-0.3-0.7l-0.7,0
	l-0.2-0.8L42.3,4l0.2-1.4l-0.4-0.4l0-0.7l0.6-0.8l-0.1-0.3L41.5,1l0-0.8L40.7,0l-1.4,0.7l-0.9,0.1l-0.5-0.4l-1.4,0L35.2,1l-0.7-0.2
	c-1.5,0.1-2.9,0.2-4.3,0.4L29,1.7l-0.8,0.7l-1.4,0.3l-1.2,0.9l-0.6,0l-1.3-0.3l-1.2,0.1l-0.8-0.7l-0.9,0l-0.4,1l-0.9,1.6l-1,0.6
	l-1.3,0.7l-0.8,1l-0.2,0.8l-0.5,1.3l0.3,1.9L15,12.7l-0.6,0.4l-1,1l-1.2,0.2c-0.2,0.2-0.4,0.4-0.7,0.6l-0.8,1.5l-0.9,0.5l-0.5,0.9
	l0,0.8l-0.3,0.8l-0.4,0.2l-0.7,0.9l-0.4,1L7.4,22L7,22.7l-0.5,0.4c0,0.4-0.1,0.8-0.1,1.2L7,24.9l0.3,0.7l-0.1,0.7l0.2,0.7l0.1,1.3
	l-0.2,1.3L7,30.2l0.1,0.7l-0.3,0.7l-0.6,0.9l-0.6,0.3l0.6,0.5l0.5,1l-0.2,0.6l0.2,1l0.1,0.3l0.4,0.3l0,0.2L7.6,37l0.5,0.1l0.7,0.6
	l0.4,0.2l0.2,0.3l0.1,0.6L9.9,39l0.3,0.2l0.5,0.5l0.6,0.8l0.2,1l0.2,0.5l0.7,0.7l0.9,0.5l0.3,0.1l0.9,0.8l1.1,0.7l1.2,1l1.3,0.6
	l0.3,0l0.2,0c0.7-0.3,1.5-0.5,2.2-0.8l1.5-0.2l0.8,0l0.9,0.3l0.6,0l1.2,0.4l1.2-0.4l0.7-0.4l2-0.8l1-0.3l1.1-0.2c0.7,0,1.4,0,2.1,0
	l0.9,0.9l0.4,0.9l0.7,0.8l1,0l0.5-0.3l0.5,0.1l1.3-0.5l0,0.4l0.3,0.2l0.3,0.6l0.6,0.2l0.5,0.9l-0.2,1l-0.4,1.4l0.2,0.2
	c-0.2,0.6-0.4,1.3-0.6,1.9L39.8,53l0,0.4l0.8,1.3l0.9,1.1l1.3,1.3l1.1,1.4l0.3,1l0.2,0.4l-0.1,0.3l0.6,0.8c0.2,0.7,0.4,1.4,0.7,2.1
	l-0.4,0.5L45,63.9c0.2,0.5,0.4,1.1,0.7,1.6l0.4,0.5l0.1,0.7l-0.1,1l-0.4,0.6l-0.7,0.9l-0.3,0.5l-0.4,1.2L44,71.4l-0.4,1.2l-0.2,1.2
	c0.1,0.6,0.2,1.3,0.2,1.9l1,1.3l0.3,0.9l0.7,1.7l0.7,1.1l0.5,0.6l0.2,0.8l0,1.7l0.4,2.2l0.3,1l0.3,1.4l0.5,1.1l1,1.1
	c0.8,1.6,1.5,3.1,2.4,4.6l0,1.2l-0.4,0.3l0.4,1l0,0.9l0.2,0.4l0.1-0.2l0.6,0.7l0.4,0l0.5,0.6l0.6,0l0.8-0.6l1.1-0.2l1.3-0.6l0.5,0.1
	l0.8-0.2l1.4,0.3l0.6-0.3l0.8,0.2l0.2-0.4l0.7-0.1l1.3-0.6l1-0.7c0.8-0.8,1.6-1.6,2.4-2.5l0.7-1.1l0.4-0.8l0.5-0.8
	c0.4-0.3,0.8-0.6,1.1-1l0.3-0.7l0.2-1.2l0.3-1.1l0.1-0.8L70.5,87l-0.1-0.6l0.6-0.5c0.9-0.4,1.7-0.9,2.6-1.3l0.5-0.5l0.2-0.6L74,83.3
	l0.2-0.7l0-1.4L74,81.3l0-0.4l-0.3-0.8l-0.6-1l0.1-1l0.5-0.3l0.9-1l0.5-0.2l1.5-1.5c0.9-0.4,1.8-0.8,2.6-1.2l0.8-0.8l0.5-0.9l0.4-1
	l-0.2-0.7l-0.1-2.1l-0.2-1.2l0.1-1.3l-0.2-0.6l-0.5-0.3l-0.5-1.3L78.9,63l0.1-0.6L79,62l0.4-0.8l0-0.3l-0.8-0.5l-0.1-0.7l0.6-1.6
	l0.5-0.4l0.3-0.9l0.4-0.5l0.2-0.9l0.5-0.1l0.3-0.5l0.9-0.5l0.3-0.3l0.3-0.7l1.4-1.6l1.2-1l1.9-1.3l1.3-1c0.9-1.1,1.8-2.1,2.6-3.2
	l1.1-1.9c0.5-1,1-2.1,1.4-3.1l0.4-1.4l0.3-0.5l0-0.7L94.4,36.8z"/>
</svg>
