<svg xmlns="http://www.w3.org/2000/svg" xml:space="preserve" viewBox="0 0 100 100"><path d="m93 69.7-.3-.9-.3-.6-.5-.6-.4.6v.8l-.8 1-.5-.2.2.6-.4.7-1.1.8-.7.8h-.6l-.5.2-.7.3h-.6l-.2.9-.5.8.1 1.2.2.9.3.6-.1.9-.6 1v.5l-.6.2-.2 1 .1 1 .5 1.1.1 1.3.4.7 1.8.9 1.1-.6 1-.3.6-1.6c.7-2.7 1.6-5.4 2.4-8.1l.1-1.1.4-.3.1-.6-.2-1 .2-.4.4.8.2-.4.1-.6-.3-.6zm1.4-32.9v-.4h-.5l-.6.5-.8.1-.5.2h-1.1l-.5.2-.6.1-1.2.5-1.4.2-1.2.3h-.6l-.6-.5-.3-.5-.4-.2-.5.7-.3-.2-.3-.1h-.7v-.4l-.1-.4.9-1.2.6.1.4-.3-.6-.4c-.6-.7-1.2-1.3-1.8-2l-1.8-1.3-.9-.6-.3-1.2-.7-1.6c-.4-.3-.8-.6-1.2-.8l-.5-1.6-.2-1.4.3-.3-.4-1.4-.2-.3-1.5-1.3v-.9l.3-.2-1.2-1.6-.4-.8-.5-.8-1-2.3-.8-1.5-.5-1.6.1-.1.9 2.1c.3.4.7.8 1 1.1l.3-.3.4-.8.3-1.1.4-.6c-.3-.9-.6-1.7-.8-2.6l-.8.7-1-.1-1-.4-.4.5-.4-.7-.9-.2-1.1.1-.5.4-1 .5c-1-.4-2.1-.7-3.1-1.1h-1.7l-.3-.5-1.3-.2-.4-.3h-.5l-.4-.7-1.7-.3-.9.2-1 .8-.4.8.3 1.2-.6.7-.7.3-1.4-.7-1.8-.6-1.2-.3-.5-1.4-1.7-.7-1.1-.3-.5.1-1.5-.5-.5-.2-.3-.7h-.7l-.2-.8.7-.9.2-1.4-.4-.4v-.7l.6-.8-.1-.3-1.1.6V.2l-.8-.2-1.4.7-.9.1-.5-.4h-1.4l-1.3.6-.7-.2c-1.5.1-2.9.2-4.3.4l-1.2.5-.8.7-1.4.3-1.2.9H25l-1.3-.3-1.2.1-.8-.7h-.9l-.4 1-.9 1.6-1 .6-1.3.7-.8 1-.2.8-.5 1.3.3 1.9-1 1.1-.6.4-1 1-1.2.2c-.2.2-.4.4-.7.6l-.8 1.5-.9.5-.5.9v.8l-.3.8-.4.2-.7.9-.4 1-.1.5-.4.7-.5.4c0 .4-.1.8-.1 1.2l.6.6.3.7-.1.7.2.7.1 1.3-.2 1.3-.3.6.1.7-.3.7-.6.9-.6.3.6.5.5 1-.2.6.2 1 .1.3.4.3v.2l.4.3.5.1.7.6.4.2.2.3.1.6.4.2.3.2.5.5.6.8.2 1 .2.5.7.7.9.5.3.1.9.8 1.1.7 1.2 1 1.3.6h.5c.7-.3 1.5-.5 2.2-.8l1.5-.2h.8l.9.3h.6l1.2.4 1.2-.4.7-.4 2-.8 1-.3 1.1-.2h2.1l.9.9.4.9.7.8h1l.5-.3.5.1 1.3-.5v.4l.3.2.3.6.6.2.5.9-.2 1-.4 1.4.2.2c-.2.6-.4 1.3-.6 1.9l-.1.3v.4l.8 1.3.9 1.1 1.3 1.3 1.1 1.4.3 1 .2.4-.1.3.6.8c.2.7.4 1.4.7 2.1l-.4.5-.2.3c.2.5.4 1.1.7 1.6l.4.5.1.7-.1 1-.4.6-.7.9-.3.5-.4 1.2-.3.5-.4 1.2-.2 1.2c.1.6.2 1.3.2 1.9l1 1.3.3.9.7 1.7.7 1.1.5.6.2.8v1.7l.4 2.2.3 1 .3 1.4.5 1.1 1 1.1c.8 1.6 1.5 3.1 2.4 4.6v1.2l-.4.3.4 1v.9l.2.4.1-.2.6.7h.4l.5.6h.6l.8-.6 1.1-.2 1.3-.6.5.1.8-.2 1.4.3.6-.3.8.2.2-.4.7-.1 1.3-.6 1-.7c.8-.8 1.6-1.6 2.4-2.5l.7-1.1.4-.8.5-.8c.4-.3.8-.6 1.1-1l.3-.7.2-1.2.3-1.1.1-.8h-.3l-.1-.6.6-.5c.9-.4 1.7-.9 2.6-1.3l.5-.5.2-.6-.3-.2.2-.7v-1.4l-.2.1v-.4l-.3-.8-.6-1 .1-1 .5-.3.9-1 .5-.2 1.5-1.5c.9-.4 1.8-.8 2.6-1.2l.8-.8.5-.9.4-1-.2-.7-.1-2.1-.2-1.2.1-1.3-.2-.6-.5-.3-.5-1.3-.4-.7.1-.6V62l.4-.8v-.3l-.8-.5-.1-.7.6-1.6.5-.4.3-.9.4-.5.2-.9.5-.1.3-.5.9-.5.3-.3.3-.7 1.4-1.6 1.2-1 1.9-1.3 1.3-1c.9-1.1 1.8-2.1 2.6-3.2l1.1-1.9c.5-1 1-2.1 1.4-3.1l.4-1.4.3-.5z"/></svg>
