<?xml version="1.0" encoding="utf-8"?>
<!-- Generator: Adobe Illustrator 18.0.0, SVG Export Plug-In . SVG Version: 6.00 Build 0)  -->
<!DOCTYPE svg PUBLIC "-//W3C//DTD SVG 1.1//EN" "http://www.w3.org/Graphics/SVG/1.1/DTD/svg11.dtd">
<svg version="1.1" id="Layer_1" xmlns="http://www.w3.org/2000/svg" xmlns:xlink="http://www.w3.org/1999/xlink" x="0px" y="0px"
	 viewBox="0 0 100 100" enable-background="new 0 0 100 100" xml:space="preserve">
<path d="M28,81.6l-0.1-0.4l-0.1-0.2l0,0L27.6,81l-0.3,0.2l-0.1,0.3l-0.1,0.2l-0.4-0.2l-0.4-0.3l-0.2-0.1l0.4,0.5l0.3,0.3l0.4,0.3
	l0.3,0.1l0.2,0.1l0.3,0.1l0.2-0.2l0.1-0.2l0.1,0.2l0.3,0l0.1-0.2l-0.4-0.1L28,81.6z M88.2,76.2c-0.1,0-0.2,0.1-0.4,0.1l-0.3-0.1
	l-0.2,0l0,0.2l0.2,0.3l0,0.2l0.2,0.3l0.2,0l0.1,0l0.2-0.3l0.1,0.1l0-0.3l0.1-0.1l0-0.4L88.2,76.2z M95.5,76.3l-0.2,0.2
	c0-0.1-0.1-0.2-0.1-0.3L95,76.3l0,0.2l-0.1,0.1l-0.1,0.3l-0.2,0.2c-0.1,0.1-0.3,0.2-0.4,0.3l-0.2,0.1l-0.4,0.4l-0.1,0.3l0,0.1l0.3,0
	l0.2,0.1l0.3,0c0.1-0.1,0.2-0.2,0.4-0.3l0.2-0.4l0.1-0.3l0.2-0.1l0.2,0l-0.1-0.2l0.1-0.2c0.1-0.1,0.2-0.3,0.3-0.5l0-0.2L95.5,76.3z
	 M96.5,75.2l-0.2,0L96,75.1l0-0.3l-0.1-0.1l0,0.2l-0.2-0.4l-0.1-0.3l-0.2-0.1L95.2,74l-0.1,0l0.1,0.2l0.2,0.3l0.1,0.1l0,0.1l0.1,0.2
	l0,0.2l0,0.3l-0.2,0.1l0,0.1l0.3,0.1l0.1,0.2l-0.2,0.3l0.1,0.1l0,0.1l0.2-0.1c0.1-0.2,0.2-0.4,0.3-0.5l0-0.2l0.1-0.1l0.2,0l0.1-0.2
	l0.1-0.3l-0.1,0L96.5,75.2z M60.9,67.6l-0.1-0.2l-0.1-0.1l-0.1-0.1l-0.1,0.1l0,0.2l-0.2,0.2l-0.1,0l0,0.1l-0.1,0.1L60,68l-0.2,0.2
	l-0.1,0l-0.1,0.1l-0.2,0.1l-0.1,0l0,0.2l-0.1,0.2l0,0.3l0.1,0.2l0.1,0.1l0,0.2l-0.1,0.2l0,0.1l-0.1,0.1l0,0.2l0,0.2l0.1,0.2l0,0.3
	l0.1,0.2c0.1,0.1,0.3,0.1,0.4,0.2l0.2-0.1l0.2-0.1l0.1-0.4c0.1-0.6,0.3-1.2,0.5-1.7l0-0.2l0.1-0.1l0-0.1l-0.1-0.2l0.1-0.1l0.1,0.2
	l0-0.1l0-0.1l-0.1-0.1L60.9,67.6z M89.7,71.5l0-0.2L89.6,71l-0.2-0.2c-0.1-0.1-0.2-0.2-0.3-0.3l0-0.3l-0.1,0l-0.1-0.1l-0.1,0.1
	l-0.1-0.3l-0.2-0.2l0-0.1c-0.1-0.1-0.3-0.2-0.4-0.3l-0.3-0.2l-0.1-0.2l0-0.2l-0.1-0.2l-0.1,0c0-0.1-0.1-0.3-0.1-0.4l0-0.1l-0.1-0.1
	l-0.1-0.1l-0.2,0.1L87,67.6l0-0.1l0-0.2l-0.1-0.1l0-0.1l-0.1,0l0-0.2l-0.1-0.1l-0.1,0.1l0,0.1l-0.1,0.2l-0.1,0.2l0,0.1l-0.1,0.1
	l0,0.2l0,0.2l0,0.1l0,0.1l-0.1,0.2l0,0.2l-0.1,0.1l-0.1,0.2l-0.2,0.1l-0.3-0.1l0-0.1l-0.1-0.1l-0.1,0l-0.2-0.2l-0.1-0.1L85,68.1
	L84.8,68l0-0.1l0.1-0.1l0.1-0.1l0-0.1l0.1,0l0.1-0.1l0.1-0.2L85,67.1L85,67.1l-0.1,0l-0.2,0.1l-0.2-0.1l-0.1,0l-0.2-0.1l-0.1-0.1
	l-0.2-0.1l-0.1,0l0.2,0.1l0,0.1l-0.2,0.1l-0.1,0l-0.2,0.1l-0.1,0.2l0,0.1l-0.1,0.1l-0.1,0.2l0.1,0.2l-0.2,0l-0.2,0l-0.2-0.2
	l-0.2-0.1c-0.1,0-0.2,0.1-0.3,0.1l0,0.1l-0.1,0l0,0.1l-0.1,0L81.8,68l-0.2,0.1l0,0.2l-0.1-0.1l-0.1,0.1l0.1,0.1l-0.1,0.1l-0.1-0.3
	l-0.2,0.2c0,0.1,0,0.2,0,0.3l-0.2,0.1l-0.1,0.2l-0.2,0.1l-0.3,0.1l-0.2,0l-0.1,0l0,0.1l-0.2,0l-0.2,0.1l-0.1,0l-0.1,0l-0.2,0.1
	l-0.1,0.1L78.9,70l-0.1,0.2l0-0.2l-0.1,0.2l0,0.2l0,0.2l-0.1,0.1l0,0.2l0.1,0.1l0,0.1l0.1,0.2l0,0.2l-0.1-0.1l-0.1-0.1l0.1,0.3
	l-0.1-0.1l0,0.1l0.2,0.2l0,0.2l0.1,0.1l0,0.1l0.1,0.2l0,0.2l0,0.2l0.1,0.3l0,0.2l0,0.2l0,0.1l0,0.1l-0.1,0l0,0.2l0.2,0.1l0.3,0.2
	c0.1,0,0.3,0,0.4,0l0.1-0.1l0.1-0.1l0.1,0l0.2-0.2l0.2,0l0.2,0l0.2,0.1l0.2,0l0.2,0l0.1-0.1l0.1-0.2l0.2-0.1l0.3-0.2l0.3,0
	c0.2-0.1,0.5-0.2,0.7-0.2l0.5,0l0.3,0.2l0.2,0l0.4,0.2l-0.1,0.1l0.1,0.1l0.2,0.2l0,0.2l0.2,0.1l0.1-0.3l0.2-0.1l0.2-0.3l0,0.2
	l-0.1,0.2l0,0.2l-0.1,0.2l0.2-0.1l0.1-0.2l0.1,0.3l-0.1,0.2l0.3,0l0.1,0.1l0.1,0.2L86,75l0.2,0.2l0.3,0.1l0.2,0
	c0.1,0,0.3,0.1,0.4,0.2l0.2-0.3l0.2-0.1l0,0.2l0.2,0.1l0.2,0.2l0.2-0.2l0.1-0.1l0.3-0.1l0.3,0l0.2-0.1l0-0.1l0-0.2l0.1-0.3l0.1-0.2
	l0.1-0.3l0.1-0.2l0.1-0.3l0.2-0.2l0.1-0.3l0.1-0.2l0-0.2c0-0.1,0.1-0.3,0.1-0.4l0-0.3l-0.1-0.3L89.7,71.5z M81.8,66.2L81.8,66.2
	l-0.3,0.2l-0.1,0.2l0,0.1l0,0l0.2-0.1l0.2-0.2c0.2-0.1,0.4-0.1,0.5-0.2l0.1-0.1l-0.1,0l-0.1,0l-0.2,0L81.8,66.2z M79.9,66.1L79.8,66
	l-0.1,0.1l-0.2,0l-0.1,0.2l0.2,0c0.2,0,0.3-0.1,0.5-0.1l-0.1-0.1L79.9,66.1z M80.8,66.1L80.6,66l-0.2,0.1l0,0.1l0.4,0l0.4-0.1l0-0.2
	L81,66.1L80.8,66.1z M78.9,66.2l0.3-0.1l-0.3-0.2l-0.4-0.1l-0.1-0.2l-0.5-0.1l-0.1,0.1l-0.5,0l0-0.1l-0.1,0l-0.2-0.1l-0.3,0
	l-0.2,0.3l0.3,0l0,0.1l0.5,0.1l0.1,0l0.2,0l0.3,0.1l0.3,0.1l0.3,0l0.3,0L78.9,66.2z M88.1,65.4l-0.5-0.2l0-0.2L87.5,65l-0.2-0.1
	l-0.5-0.2l-0.5-0.2L86,64.4c-0.1-0.1-0.3-0.1-0.4-0.2l-0.2,0L85,64.4l-0.2,0.3l-0.3-0.2l-0.1-0.5l0-0.1l-0.4-0.1l-0.1,0.1L83.4,64
	l0.1,0.1l0.2,0.1l0.1,0.2l0.4,0l0,0.1l-0.2,0l-0.3,0.1l0.2,0.1l0,0.1l0.1,0.1l0.1,0l0.1-0.1l0.4,0.3l0.2,0l0.5,0.2l0.1,0.2l0.1,0.3
	l-0.2,0.1l-0.1,0.2l0.4,0l0.1-0.1l0.3,0.1l0.2,0.2l0.3,0l0.2,0l0.2-0.1l0-0.2l0.2-0.1l0.2-0.1l0.4,0.1l0.1,0.2l0.2,0.2l0.2,0.2
	c0.2,0,0.3,0.1,0.5,0.1l0.1,0.1l0.2,0l0-0.1l-0.3-0.1l0.1-0.1l-0.2,0l0-0.1l-0.2,0L88.3,66L88,65.8L88,65.6l0.3,0L88.1,65.4z
	 M80.2,64.1l0,0.2l-0.1,0.2l0.1,0.2l0.1,0l0,0.3l-0.1,0.3l0.1,0.1l0.2,0c0-0.2,0-0.5,0-0.7l0.2-0.1l0,0.3l0.2,0.2l0,0.1l0.1,0.1
	l0.3-0.1L81,65.2l0.1,0.1l0.1-0.1l0-0.2l-0.3-0.3l0.1-0.1l-0.3-0.4l0.2-0.1l0.1-0.2l0.1,0l0-0.1L80.8,64l-0.2,0.1l-0.2-0.2l0-0.2
	l0.2,0l0.5,0l0.3,0.1l0.2-0.1l0.2-0.3l0-0.1l-0.3,0.2l-0.3,0l-0.4,0l-0.2-0.1l-0.2,0.2l-0.1,0.1L80.2,64.1z M76.5,64.9l0.1-0.3
	l-0.1-0.2l-0.2,0l-0.1-0.2l0-0.2L76,64l-0.2-0.1l0.1-0.2l-0.2-0.1l-0.2-0.2l-0.2-0.2l-0.3,0l-0.3-0.3l-0.2-0.1l-0.2-0.2l-0.2-0.3
	c-0.2,0-0.4-0.1-0.6-0.1l0,0.1l0.3,0.3l0.2,0.2l0.1,0.2l0.3,0.2l0.1,0.2l0.1,0.2l0.2,0.2l0.2,0.4l0.1,0.2l0.2,0.2l0.1,0.2l0.4,0.2
	l0.2,0.2l0.3,0L76.5,64.9z M79.5,61.8L79.4,62l-0.2,0.2l-0.2,0.2l-0.1,0.1l-0.1,0.2l-0.2,0.2l-0.3,0.1L78,63L78,63.2l-0.2,0.1
	l-0.2-0.1l-0.2,0.2l0,0.3l0,0.2l0.1,0.2l0.1,0.1l0,0.4l0.2,0l0.2,0l0.1,0.1l0.3-0.1l0.1,0.1l0.2,0l0.1,0.2l0.3-0.1l0,0.1l0.1-0.4
	l0-0.3l0.3-0.2l0-0.3l0.1-0.2l0.3,0l-0.3-0.3l0-0.1l-0.2-0.3l0.2-0.3l0.2-0.1l0-0.1l0.2,0l0-0.1c-0.1,0-0.3-0.1-0.4-0.2l0-0.1
	l-0.1-0.1L79.5,61.8z M81.4,61.3l-0.2,0.1l-0.2,0.1L81,61.7l0,0.1l0.2-0.2l0.1,0l0.1-0.1l0.2,0.1l-0.1,0.1l0.1,0.2l0.3,0.2L82,62
	l-0.1-0.2l0.1-0.1l0.1,0.3l0.1-0.3c0-0.2-0.1-0.4-0.1-0.6L81.9,61l0,0.2l-0.2,0l0,0.1l-0.2,0.1L81.4,61.3z M81.2,60.7l0,0.2
	l-0.1,0.1L81.1,61l0.2,0.2l0.1-0.1l0.1-0.2l0.1-0.1l0-0.3l-0.2,0.3l0-0.2L81.2,60.7z M80.1,60.8L80,61l-0.2,0.2l-0.1,0.2l0.4-0.3
	l0.1-0.2l0.2-0.2l0-0.2L80.1,60.8z M82,60.3l-0.1-0.1l-0.3,0l0.2,0.2l0,0.1l-0.2,0l0,0.2l0.1,0l0,0.2l0.1-0.1l-0.1-0.2l0-0.1
	l0.2,0.1L82,60.3z M81.1,58.5L81.1,58.5l-0.3,0l-0.2,0l-0.1,0.3l0,0.5l-0.1-0.1l0,0.3l0,0.1l0.1,0.2l0-0.1l0.1,0.1l-0.1,0.1l0,0.1
	l0.1,0.1l0.3,0l0.2,0.2l0.1-0.1l0.1,0.2l0.2,0.1l0-0.1L81.5,60l0-0.2l-0.3-0.2l-0.1,0l-0.1,0l-0.1-0.2l0-0.2l0.2-0.1l0.1-0.2
	L81,58.7L81.1,58.5L81.1,58.5z M25.6,58.1l0.2,0l0.2,0l0.2,0l0-0.1L26,57.8l-0.2,0l0-0.1l-0.2-0.1l-0.1,0c-0.2-0.1-0.3-0.3-0.5-0.4
	l-0.3,0l-0.1-0.1l-0.3-0.1l-0.2,0l-0.2,0l-0.1,0l-0.2,0l-0.1,0.1l-0.1,0.1l-0.1,0.1l-0.1,0.1l0.1,0l0.1,0l0-0.1l0.1,0l0.2-0.2l0.3,0
	L24,57.3l0.1,0.1l0.4,0l0.1,0.1l0.3,0.1l0.2,0l0.1,0.2l0.1,0.1l0.2,0l0.1,0.1l-0.2,0.2L25.6,58.1z M84.1,53.9l0.1-0.1l0.1,0.1
	l0.2-0.2l0-0.1l-0.2-0.1l-0.1,0.1l-0.2,0l-0.2,0.2l0,0.2l0.2,0.1L84.1,53.9z M85.7,52.3l-0.4,0.4l-0.2-0.2l-0.3,0.6L84.5,53
	l-0.6,0.1l-0.2,0.2l-0.3,0.2l-0.1,0.2l-0.3,0.1l0.1,0.2l0.2,0.1l-0.1,0.3l0.1,0.1l0.2-0.1l0.2-0.6l-0.3-0.2l0.3,0l0.3-0.2l0.5-0.1
	l0,0.3l0.2,0.1l0.4-0.4l0.5,0l0.4-0.2l0.1-0.2l0-0.2l0.1-0.3l0-0.4l0.3-0.4l0-0.3L86.4,51l-0.3,0.1L86,51.3l0,0.4l-0.2,0.4
	L85.7,52.3z M86.1,50.3L86,50.6l0,0.4l0.3,0l0.2-0.4l0.4,0.3l0.2-0.4l0.4-0.1l-0.1-0.4L87.3,50L87.1,50l-0.2-0.1l-0.3-0.4l-0.1,0.3
	l-0.1,0.5L86.1,50.3z M31.4,47l0.1-0.1l-0.1,0L31.1,47l-0.2,0.3L30.6,48l-0.2,0.3l0.1,0.1l-0.2,0.1l0,0.1l0.5,0l0.3,0l0.3,0.1
	l-0.2,0.2l0.2,0l0.3-0.4l0.1,0.1l-0.1,0.3L32,49l0.1,0l0.1-0.4l-0.1-0.3l0-0.2l-0.2,0.1l0.1-0.3l-0.3-0.1l-0.1,0.1l-0.2-0.1l0.1-0.2
	l-0.2-0.1l-0.2,0.1C31.2,47.4,31.3,47.2,31.4,47z M86.5,46.7l0.2,0.4l0,0.6l-0.1,0.3l0,0.5l0,0.4l0.1,0.3l0.2-0.3l0.2,0.2l0-0.3
	l-0.3-0.4l0.2-0.6l0.4,0.1L87,47.2l-0.1-0.5l0-0.4c-0.1-0.3-0.1-0.5-0.2-0.8l-0.1,0.1l0.1,0.2l-0.3,0.2L86.5,46.7z M44.5,46.8
	l0.5-0.3l0.2-0.4l0-0.3l0.1-0.3L45,45.2l-0.2,0c-0.2,0.2-0.4,0.4-0.6,0.6l0.1,0.5l-0.2,0.5L44.5,46.8z M45.4,45.1l0.2-0.2l0.1,0.1
	l-0.1,0.2l0.1,0.1l0.3,0.1l0.2,0.3l0,0.3l-0.4,0l-0.1,0.3l0.2,0.2l-0.3,0.1l0.1,0.2l0.4,0.1L45.7,47l-0.4,0.5l0.1,0.1l0.2-0.2l0.3,0
	l0.2-0.2l0.1,0.1l0.5-0.1l0.4,0l0.3-0.2l-0.1-0.2l0.1-0.1l0-0.3l-0.3-0.1L47,46.1l-0.2-0.5l-0.2-0.1l-0.3-0.6l-0.3,0l0.3-0.5
	l0.1-0.4l-0.3,0L45.8,44l0.3-0.6l-0.3,0l-0.2,0l-0.2,0.4l-0.1,0.5l0.1,0.3L45.4,45.1z M43.1,39.6l-0.3-0.5l0.1-0.4l-0.5,0L42,39
	l-0.4-0.2l-0.4,0.4l-0.4-0.5l-0.4,0.1l-0.2,0.4l0.6,0.2l0,0.2l-0.5,0.1l0.6,0.3l-0.3,0.3c0.4,0.1,0.8,0.2,1.1,0.3
	c0.4-0.2,0.7-0.4,1-0.6L43.1,39.6z M37.1,65.3L37,65.2l-0.2,0l-0.2-0.1l-0.4-0.3l-0.4-0.2l-0.4,0l-0.5-0.1l-0.3,0.1l0-0.2l-0.1-0.2
	L33.9,64l-0.4-0.1l-0.2,0.2l0-0.3l-0.5,0l-0.1-0.1l0.2-0.2l0-0.2l-0.1,0l-0.2-0.5l-0.1-0.2l-0.1,0l0-0.1l-0.3-0.2
	c-0.2-0.1-0.4-0.1-0.6-0.2l-0.2,0l0,0.1L31,62.1c-0.1-0.1-0.2-0.2-0.3-0.2l-0.1,0l0-0.1l-0.2-0.2c-0.1-0.1-0.2-0.1-0.3-0.2l-0.1,0
	l0-0.2L29.7,61l-0.2,0l-0.1-0.1l0.2-0.1c-0.2,0-0.5,0-0.7,0l0,0.1l-0.2,0.1l-0.2,0l-0.2-0.1l-0.3,0l-0.3,0l0-0.1l-0.2-0.2l-0.2,0
	l-0.1-0.2l-0.1,0.1l0,0.1L27,60.7l0,0.2l0.1,0.1L27,61.2l-0.1,0L26.8,61l0.1-0.2l0-0.1l-0.1-0.1l0.2,0l0-0.1l0.1-0.1L27,60.3l-0.1,0
	l-0.1,0.1c-0.1,0.1-0.2,0.1-0.3,0.2l-0.2,0l0,0.1l-0.2,0l-0.2,0.1L25.8,61l0,0.1l-0.1,0l-0.2,0.2l-0.1,0l-0.1-0.1l-0.1-0.1l-0.1,0
	l-0.2,0l0,0l-0.2,0l-0.1,0.1l-0.2,0.1l-0.1,0.1l-0.1,0l-0.1-0.1l0,0l-0.1,0l0-0.1c-0.1-0.1-0.2-0.2-0.3-0.3l-0.1-0.2l0,0l0-0.1
	l0.1-0.1l0-0.1l0-0.1l0,0l0-0.1l0-0.1l0-0.1l0-0.1l0.1-0.1l0-0.1l0-0.1l0,0l-0.1-0.1l-0.1,0l-0.1-0.1l-0.1-0.1l0,0l-0.1,0l-0.1,0
	l-0.1,0l-0.1,0l-0.1,0l0,0l-0.1,0l-0.1,0l-0.1,0l0,0l0,0l-0.1,0l-0.1,0.1c0,0-0.1,0-0.1,0l0,0l-0.1-0.1l0.1-0.1l0.1,0l0.1-0.1l0-0.1
	l0,0l0-0.1l0,0l0-0.1l0-0.1l-0.1,0l0,0l0.1,0l0.1,0.1c0-0.1,0.1-0.2,0.1-0.4l-0.1-0.1l0.1-0.2l0.2-0.2l0-0.1l-0.1-0.1l-0.2,0l-0.2,0
	l-0.3,0.1l-0.2,0.1l0,0.1l0,0.2l-0.1,0.2l-0.2,0.1c-0.1,0-0.3,0.1-0.4,0.1l-0.2,0l-0.2,0.1l-0.1-0.1l-0.3-0.1L20,58.2L20,58.1
	l-0.2-0.2l-0.1-0.2l-0.1-0.1l0-0.2l0-0.1l0-0.4l0-0.2l0.1-0.3l0,0l0,0l-0.1-0.1l0-0.1l0-0.2l0.1-0.1l0.2-0.2l0.3-0.1l0.3-0.2
	l0.2-0.1l0.2,0l0.2,0.1l0.2,0l0.2,0.2l0.2,0l0.1-0.1l0.1,0l0.1,0L22,55.1l0-0.1l-0.1-0.1l0.1,0l0.2,0l0.2,0l0.3,0l0.2,0.1l0.1,0.2
	l0,0l0.3-0.1l0.1,0l0.2,0.3l0.1,0.2l-0.1,0.2l0,0.1c0.1,0.2,0.2,0.3,0.3,0.5l0.1,0.1l0,0.1l0.1,0l0.1,0l0.1-0.2c0-0.1,0-0.2,0-0.3
	l-0.1-0.4l0-0.1l-0.1-0.2l-0.1-0.3l0-0.2l0-0.2l0.1-0.2l0.2-0.2l0.3-0.2l0-0.1l0.1-0.1l0.1,0l0.2-0.2l0.3-0.1l0.2-0.3l0-0.3l0-0.1
	l-0.1,0l0-0.3l-0.2-0.1l0.2,0.1L25.6,52l0.1-0.2l0,0.3l0.1,0.1l-0.1,0.2l0,0c0.1-0.1,0.2-0.3,0.2-0.4l0-0.1l-0.1-0.1l-0.1-0.2
	l0.1,0.1l0.1,0l0,0.1l0.2-0.3l0.1-0.3l-0.1,0l0.1-0.1l0,0l0.2,0l0.4-0.1l-0.1-0.1l-0.4,0.1l0.2-0.1c0.1,0,0.2,0,0.3,0l0.2-0.1l0.1,0
	l0.2-0.1l0-0.1l-0.1-0.1l0,0.1l-0.1,0l-0.1-0.2l0-0.2c0.1-0.1,0.1-0.2,0.2-0.3c0.2-0.1,0.4-0.2,0.6-0.2l0.3-0.2l0-0.1l0.3,0l0.4,0
	l-0.5,0.3l0,0.3l0.2,0l0.3-0.3l0.3-0.2l0.6-0.2l0.3-0.3l-0.2-0.1l0-0.3l-0.3,0.5l-0.5,0.1l-0.4-0.2l-0.1-0.3l-0.1-0.4l0.3-0.3
	l-0.2-0.2l-0.4,0l-0.6,0.4l-0.4,0.5l-0.2,0.1l0.3-0.4l0.4-0.6l0.4-0.2l0.2-0.3l0.3,0l0.4,0l0.6,0.1l0.5-0.1l0.4-0.4l0.5-0.2
	c0.1-0.1,0.3-0.2,0.4-0.3l0-0.5l-0.1-0.2L31,45.9l-0.1-0.4l-0.2-0.2l-0.4-0.1L30,44.9l-0.4-0.3l0.1-0.3c-0.2-0.4-0.4-0.9-0.7-1.3
	l-0.2-0.5l-0.2,0.3l-0.3,0.6L28,43.6l-0.2-0.3l-0.3-0.1l-0.1-0.7l0-0.5L27,42l-0.1-0.2l-0.3-0.3l-0.3-0.2l-0.2,0.2l-0.3-0.1
	l-0.5-0.2l-0.2,0.1l0.1,0.9l0.1,0.5L25,43.3l0.3,0.4l0.2,0.4l0,0.3l-0.2,0.3l-0.3,0.3l-0.4,0.2l0.2,0.3l0.1,0.7l-0.2,0.5L24.6,47
	l-0.4-0.4L24,46.1l-0.1-0.5l0-0.4l-0.3,0l-0.5,0l-0.3-0.2l-0.3-0.1l-0.2-0.2l-0.3-0.2l-0.5-0.2l-0.4,0.1L21,43.8l-0.1-0.5l-0.4-0.1
	l0-0.6l0.1-0.4l0.3-0.7l0.3-0.5l0.3-0.1l0-0.4l0.2-0.3l0.4,0l0.3-0.4l0.1-0.3l0.3-0.6l0.1-0.3l0.3,0.2l0.4-0.1l0.5-0.5l0-0.4
	L24,37.4l0.2-0.4l0-0.4l-0.4-0.4l-0.4-0.1l-0.4-0.1l0,0.9l-0.2,0.7l-0.3,0.5l-0.3-0.5l0.1-0.6L22,36.6l-0.4,0.6l0-0.8l-0.5-0.2
	l0.2-0.4l-0.4-1l-0.3-0.4l-0.4-0.1L20,35l0,0.9l0.3,0.3l0.3,0.5l-0.1,0.8l-0.2,0l-0.2,0.6l0-0.7l-0.4-0.3l-0.2,0.1l0,0.5l-0.4,0
	l-0.4,0.1l-0.5-0.3l-0.3,0.1l-0.3-0.4l-0.2-0.2L17.1,37l-0.3,0l-0.2,0.3l0.3,0.3L16.5,38l-0.3-0.4L16,37.7l-0.8,0.1l-0.5-0.2
	l0.4-0.4l-0.4-0.4l-0.3,0l-0.4-0.1l-0.7-0.3L13,36.1l-0.3,0l-0.1,0.2l-0.3,0.1l0-0.6l-0.4,0.5l-0.5-0.7l-0.2-0.1L11.1,36l-0.2,0.2
	l-0.2-0.3L10.2,36l-0.4,0.4l-0.4-0.1l-0.3,0.2l-0.2,0.3l-0.3-0.1l-0.4-0.4c-0.3-0.1-0.5-0.2-0.8-0.3l-0.4-0.2L6.5,36l-0.2-0.1
	l-0.5-0.1l-0.6-0.3l-0.3,0.1l-0.4-0.1l0-0.2L4,35.2l-0.1,0.2L3.6,35l-0.4-0.2l-0.4,0.5l-0.3-0.1L2,35.6l-0.3,0.1l-0.3,0.4l-0.1,0.4
	L1,36.8l-0.5,0l-0.2,0.4l0.4,0.2L1,37.8l0.2,0.4l0.3,0.3l0.2,0.4l-0.6,0l0-0.3H1l-0.6,0.3L0,39.2l0.4,0.4l0.1,0.3L0.9,40l0.4-0.1
	l0.2,0.1l0.1-0.1l0.3-0.1l0.2,0L1.8,40L2,40.2L2,40.4l-0.2,0.2l-0.2-0.1l-0.2,0.3l-0.2-0.1l-0.2,0l-0.1,0.3l-0.2,0.3l-0.1,0.3
	l0.2,0.2l0,0.3L1,42.5l0.2,0.3l0.4-0.1l0.2,0.2l-0.1,0.2l0,0.3l0.2,0l0.3-0.2l0.1,0.3l0.1-0.2l0.2,0.3l0.2-0.2l0.1,0.1l0.3-0.2
	l-0.1,0.3l0,0.4l-0.2,0.2l-0.1,0.1l-0.4,0.3l-0.1,0.2l-0.3,0.1l-0.3,0.3l-0.3,0.2l-0.3,0.2l0,0.1l0.5-0.1l0.2-0.2
	C1.8,45.2,2,45.1,2.2,45l0.2,0l0.3-0.2l0.1-0.2l0.4-0.3l0.1-0.2l0.3-0.2l0.3-0.2l0.3-0.4L3.9,43l0.4-0.4l0.2-0.4l0.4-0.3L5,42.1
	l-0.3,0.2l-0.1,0.6l0,0.3L4.9,43l0.2-0.2l0.3-0.1l0.2,0l-0.1-0.4l0.3-0.1l0.3,0.2l0.5,0.3l0.4,0c0.3,0.1,0.5,0.2,0.8,0.3l0.6,0.6
	l0.3,0.2l0.4,0l0.3,0l0.2,0.5l0.4,0.4l0.1,0.4l0.2,0.2l0.2,0.2l0,0.2l0.3,0.3l0,0.4l0.4,0.2l0,0.3l0.2,0.4l0.5,0.2l0.2,0.2l0.5,0.4
	l0,0l0.1,0.3l0,0.3l-0.1,0.1l-0.1-0.4l-0.4-0.1l0,0.1l0.1,0.2l0.1,0.4l0.1,0.5l-0.1,0.7l-0.1,0.4l0.1,0.3l0,0.3l-0.1,0.3l0.1,0.2
	l0,0.3l0.2,0.3l0.1,0.1l0,0.1l0.2,0.5l0.3,0.3l0,0.2l0.1,0.1l0.3,0l0.1,0.1l0.2,0l0,0.1l0.1,0l0.2,0.2l0,0.2l0.1,0.3
	c0.1,0.2,0.2,0.5,0.3,0.7l0.2,0.1l0.2,0.2l0,0.1l-0.1,0.1l-0.1,0l0,0l0.2,0.2l0.2,0.1l0.1,0.1l0,0c0.1,0.1,0.2,0.2,0.3,0.2l0,0.2
	l0,0.2l0.1,0.1l0.2,0.1l0.2,0.2l0.1,0.2l0,0l0.1-0.1l0-0.1c-0.1-0.1-0.1-0.2-0.2-0.3l-0.1,0l0-0.2c0-0.1-0.1-0.2-0.2-0.3L15.8,56
	l-0.2-0.2l-0.1-0.1l-0.1-0.1l-0.1-0.2l0,0l0-0.1l0,0l0-0.1L15,55l-0.1-0.1l0-0.2l0-0.2l0-0.1l0.2,0.1l0.1,0l0.2,0.1l0,0.1l0.1,0.2
	l0.2,0.2l0,0.1c0.1,0.1,0.2,0.2,0.3,0.3l0.2,0l0.1,0.2l0.2,0.2l0.1,0.1l0,0.2l0.1,0.1l0.2,0.1l0.1,0.2l0.3,0.2l0.2,0.3l0.1,0.2
	l0,0.1l0.1,0.1l0,0.1l-0.1,0.1l0,0.1l-0.1,0l0.1,0.1l0.1,0.2l0.3,0.2l0.1,0.1l0.3,0.1l0.2,0l0.1,0.1l0.2,0.1l0.3,0.1l0.2,0l0.3,0.1
	l0.2,0.1l0.2,0.1l0.1,0l0.2-0.1l0.2,0l0.2,0.1l0.1,0.1l0.3,0.3l0.2,0.1l0.1,0.1l0.2,0l0.1,0.1l0.1,0.1l0.2,0l0.1,0.1l0.1,0l0.2,0
	l0-0.1l0.1,0l0,0.1l0,0l0,0l0,0l0.1,0.1l0.1,0.1l0.1,0.1c0.1,0.1,0.2,0.1,0.2,0.2l-0.1,0.1l0.1,0l0,0.1l0,0.1l0,0.1l0.1,0l0.1,0.1
	l0.1-0.1l0-0.1l0.1,0.1l0,0.1l0.1,0l0.1,0.1l0.1,0.1l0,0.1l0,0l0.1,0.1l0.2,0.1l0,0l0-0.1l0.1,0l0.1,0l0.1,0l0.1,0.1l0.1,0l0,0
	l0,0.2l0.1,0l0,0l0.1,0l-0.1-0.2l0-0.1l0.1,0l0.1-0.1l0.1-0.1l0.1,0l0.1,0.1l0.1,0.1l0.1,0L25,61.5l0.1,0.2l0.1,0.1l0.1,0.1l0,0.2
	l-0.1,0.1l0.1,0.3l-0.1,0.2l0.1,0.1c-0.1,0.1-0.2,0.2-0.2,0.3L25,63L25,63.1l0,0.1l-0.1,0l0,0.1l-0.2,0.1l-0.2,0.1l0,0.1l-0.1,0.2
	L24.4,64l-0.1,0l0,0.3l-0.1,0.1l0.2,0.1l0.1-0.1l0.1,0.1l-0.1,0.2l-0.2,0.2l-0.1,0.2l0.1,0.3l-0.1,0.1l0.2,0.1l0.2,0.2l0.1,0.2
	l0.1,0.1c0.2,0.4,0.4,0.7,0.5,1.1l0.2,0.4l0,0.1l0.1,0.2l0.2,0.2l0.5,0.3l0.6,0.3l0,0.1l0.3,0.2l0.1,0.4l0,0.5
	c-0.1,0.6-0.2,1.3-0.2,1.9L27,72.2l0,0.4l-0.1,0.3l0.1,0.5l-0.1,0.5c-0.1,0.4-0.3,0.7-0.4,1.1l-0.1,0l0,0.4l0.1,0.3l-0.1,0.2
	c-0.1,0.4-0.1,0.8-0.2,1.2l0.2,0.1l0.1-0.5l0.2,0.1l-0.1,0.8l-0.3-0.1l-0.1,0.7l-0.3,0.4l0.4,0.1l-0.3,0.3l-0.1,0.4l0,0.7l0.1,0.3
	l-0.1,0.3l0.1,0.3l0.3,0.3l0.3,0.3l0.3,0.2l0.1,0l0-0.4l0.3-0.2l0.1-0.1l0.2,0l0.1,0l-0.2-0.3l-0.1-0.5l0.1-0.2l0.3-0.2l0.2-0.5
	l0.3-0.2l0.1-0.4l-0.3-0.1l-0.3-0.3l0.1-0.3l0.2-0.2l0.3,0l0.1-0.2l0-0.4L29,77l0.3-0.1l-0.1-0.2L29,76.8l-0.2-0.1l0-0.4l0.1-0.1
	l0.3,0.1l0.3-0.1l0.2-0.1L29.5,76l0.1-0.3l-0.1-0.2l0.3,0l0.6-0.1l0.4-0.2l0.3-0.5l0-0.2l-0.2-0.2l0-0.2L30.6,74l0-0.2l0.2,0.2
	l0.2,0l0.3,0.1l0.2,0l0.2,0.1l0.3-0.2l0.1-0.2l0.2-0.2l0.1-0.3l0.2-0.2l0.2-0.3l0.3-0.6l0.2-0.2l0.1-0.2l0.1-0.3l0-0.2l0-0.2
	l0.2-0.3l0.3-0.2l0.3-0.1l0.2-0.1l0.4-0.1l0.3,0l0.1-0.2l0.2-0.1l0-0.3l0.3-0.4l0-0.4l0.1-0.1c0-0.2,0.1-0.4,0.1-0.6l0-0.5l0.1-0.2
	l0.1,0l0.2-0.2l0.2-0.3l0.4-0.4l0.1-0.2l0.1-0.5C37.2,65.6,37.1,65.4,37.1,65.3z M14.5,34.9l-0.6,0.3l0.1,0.3l0.4,0l0.6-0.1l0.5,0.2
	l-0.4,0.1l-0.4,0l-0.4,0.1L14.2,36l0.3,0.6l0.2-0.1l0.4,0.2l0.2,0.4c0.4-0.1,0.8-0.1,1.2-0.2l0.5-0.3l0.3,0l0.5,0.2l0.5,0.1l0.1-0.3
	l-0.2-0.3l0.5-0.1l0-0.4c-0.3-0.3-0.7-0.5-1-0.8c-0.1-0.5-0.2-1-0.3-1.5l-0.3-0.4l-0.3-0.2l-0.2,0.1l0.2,1l-0.1,0.4l-0.2-0.9
	l-0.3-0.3l-0.3,0.5l-0.4-0.5l-0.6,0.3l0.1-0.4L14.8,33L14,33.6L13.8,34l-0.2,0.7l0.5,0.2L14.5,34.9z M28,35.9l-0.2-0.3l-0.7-0.3
	l-0.3-0.6l-0.5,0.2l0-0.4L25.8,34l-0.6-0.5l-0.3,0.4l-0.6,0.3l0-0.6l-0.5-1L23.2,33L23,33.8l-0.2-0.6l0.2-0.6l-0.7,0.3L22,33.2
	l-0.2,0.8l0.1,0.9l0.4,0l-0.3,0.4l0.2,0.3l0.5,0.1l0.6,0.2l1,0.2l0.5-0.1l0.1-0.2l0.2,0.3l0.2,0l0.3,0.5l-0.2,0.2l0.6,0.3l0.4,0.4
	l0.1,0.3l0.1,0.3l-0.4,0.7l-0.1,0.3l0.1,0.2l-0.6,0.1l-0.5,0L25,39.9l0.2,0.2L26,40l0-0.2c0.3,0.2,0.5,0.4,0.8,0.6l-0.1,0.2l0.3,0.3
	l0.6,0.4l0.8,0.2l0-0.2c-0.2-0.3-0.5-0.6-0.7-0.9l0.7,0.5l0.4,0.2l0.1-0.4L28.7,40l-0.1-0.2l-0.4-0.3l-0.3-0.4l0-0.4l0.4-0.1
	l0.4,0.7l0.3,0.3l0.5-0.8l0.1-0.5l-0.4,0l-0.4-0.7l-0.4-0.2L27.7,37l0.5-0.4L28,35.9z M18.9,32.5L18.6,33l0.3,0.6l-0.6-0.1l0,0.3
	l0.7,0.7l0.2,0.3l0.3,0.1l0.5-0.3l0.1-0.8l-0.4-0.4l0.3-0.5l-0.1-0.3l-0.5,0.1L18.9,32.5z M20.3,32.5l-0.1,0.4l0,0.5l0.2,0.8l0.3,0
	l0.3-0.7l0.3-0.2l0.4-0.9l-0.5-0.2l-0.6,0L20.3,32.5z M86.2,31.5l1,0l0.2-0.8l-1-0.6L85.7,30l-0.4,0.2L85.2,31l0.6,0.7L86.2,31.5z
	 M18.6,29.8l-0.3,0l0,0.9l0.5-0.1l0,0.6l0.3,0.2l0.5-0.1l0.1-0.8l0-0.6l-0.2-0.6l0,0.2L19,29.4L18.6,29.8z M15.7,31.1l-0.6,0.5
	l0,0.3l0.4,0l0.7-0.5l0.9-0.2l0.2-0.5l0-0.6l-0.3-0.1l-0.2,0.2L16.7,30l-0.1-0.6l-0.3-0.1l-0.3,0.4l0.4,1.1L16,30.7L15.5,30
	l-0.8-0.4L14.4,30l-0.4,1.1l0.4,0.2L15.7,31.1z M61.3,34.7l0.5,0.2l0.1,0.4l0.9,0.1l0.2-0.1l-0.5-0.7l-0.1-0.7
	c0.3-0.6,0.6-1.3,0.9-1.9l0.9-1c0.6-0.4,1.2-0.7,1.8-1.1l0.2-0.4L66,29.1l-0.5,0.2l-0.5,0.4L64,29.9l-0.9,0.7l-0.6,0.6l0.1,0.5
	l-0.7,0.9l0.3,0.1l-0.6,0.8l0,0.5l-0.3,0.2L61.3,34.7z M20.7,29.8l0.3,0.5l0,0.6l0.1,0.6l0.7,0.3l0.5,0.1l0.6,0l0.8-0.2l0.4,0.1
	l0.4-0.2l0.2-0.3l-0.1-0.5l-0.3-0.4l-0.5-0.1l-0.6,0.1l-0.4,0.2l-0.4-0.1l-0.4,0l-0.2-0.3l-0.3-0.3l0.1-0.4l-0.2-0.4l-0.5,0
	l-0.3-0.4l-0.6-0.1l-0.1,0.5l0.3,0.4L20.7,29.8z M17.8,26.8l-0.3,0.4l0.6,0.1l0.5,0.4l0.5,0.1L19,27.3l-0.2-0.7L18,26.1l-0.5-0.2
	l0,0.6L17.8,26.8z M20.4,25.8l0.5,0l-0.2,0.4l0,0.5l0.3,0.6l0.6,0.2l0.5-0.1l0.5-1.1l0.4-0.4l-0.3-0.5l-0.2-1.1
	c-0.3-0.2-0.6-0.4-0.9-0.7l-0.4-1l-0.6,0.1l0.1,0.4l-0.3,0.1l-0.2,0.5l-0.2,0.7l0.2,0.7L20.4,25.8z M21.7,22.6l0.2,0.7l0.5,0.6
	l1-0.1l0.6,0.2l-0.4,0.6l-0.2-0.2l-0.8-0.1l0.1,0.8l0.4,0.6l-0.1,0.5l-0.5,0.3l-0.2,0.5l0.5,0.3l0.4,0.9l-0.7-0.6l-0.2,0.1l0.1,0.9
	l-0.5,0.3l0,0.6l0.5,0.1l0.4,0.1l0.8-0.2l0.7,0.3l0.7-0.7l0-0.3l-0.5,0l0-0.3l0.4-0.4l0.1-0.5l0.4-0.4l0.3-0.5l-0.2-0.7l0.2-0.3
	l-0.4-0.2l0.8-0.2l0.2-0.3l0.6-0.3l0.5-1.3l0.5-0.5l0.7-1.1l-0.6,0l0.3-0.4l0.7-0.4l0.7-0.9l0-0.6l-0.5-0.6L28.6,19
	c-0.7-0.2-1.3-0.3-2-0.5l-0.8,0.4l-0.1-0.3l-0.9,0.1L24.3,19l-0.4,0.4l-0.2,1.2l-0.3-0.6l-0.3-0.1l-0.4,0.8L22.1,21L21.8,21
	l-0.4,0.4l0.1,0.7L21.7,22.6z M40.3,35.8l-0.7,0l0.3-0.4l-0.1-0.6c0.2,0.3,0.4,0.5,0.6,0.8l0.5-0.2l-0.1-0.7l-0.4-0.5L40,34l0.1-0.2
	l0.6,0.4l0-0.4L40.3,33l0.4,0l0.4-0.2l0.1-0.3l-0.3-0.4l0.6-0.1l-0.4-0.9l0.3-0.1l-0.1-1l-0.5-0.6l0.5-0.4l0.4-0.1l-0.3-0.8l0-1.5
	c0.2-0.7,0.4-1.4,0.6-2.1l-0.6-0.1l0.9-0.3l0.2-0.4l1.1-1.3l-0.2-0.8l-0.8-0.4l-1.4,0.8l-0.7,0.7l0.3-1.1L40.5,21L40,21.6l-0.8-0.7
	l-1,0.2L38,20.8c0.9-0.1,1.7-0.2,2.6-0.3l0.5-0.8l-1.7-1.9l-2.2-0.3l-1,0.2l-0.4,0.9l-1-0.1l-0.9,1.4l0,0.9l0.7,1.1l-0.6-0.6
	l-0.4-0.2l-0.7-0.8l-0.7,1.1l-0.3-0.6l-0.9,0l-0.9,0.3l-0.7,0.5l0.1,0.9l-0.4,0.2l-1,1.2l-0.2,0.7l0.8,0.6l-0.1,0.6
	c-0.7,0.5-1.4,0.9-2.1,1.4l0,0.5l0.6,0.5l1.2,0.3l-0.6,0.1L27,29l0.5,0.8l0.3,0.4c0.5-0.1,0.9-0.1,1.4-0.1l0.6,0.1l0.7,0.7l0,0.5
	l0.4,0.4c0.2,0.6,0.4,1.2,0.6,1.8l0.2,0.4l-0.3,0.8l0.2,0.2l0.3-0.1c0.2,0.3,0.5,0.6,0.7,0.8L32,35.3l-0.3,0l-0.1,0.4l0,0.6l0.3,0.3
	l0.3-0.1c0.2-0.1,0.3-0.3,0.5-0.4l-0.1,0.6L32.6,37l-0.4,0.3l-0.3,0.9l0.2,0.3l-0.1,0.5l0.4,0.6l0,0.6l0.1,0.4l0.5,0.8l0.2,0.6
	l0.3,0.3l0.6,0l0.4,0.5l0.4,0c0.1-0.3,0.2-0.7,0.3-1L35,41.1l0.5-0.5l0.1-0.4l0-0.5l0.2-0.4c0.3-0.1,0.5-0.2,0.8-0.3l0.2,0l0.6-0.5
	l0.4-0.8l0.3-0.3l0.3,0l0.8-0.3l0.8-0.6l0.7-0.7L40.3,35.8z M99.5,38.3l-0.8-0.1l0.1,0.5l-0.2-0.2l0-0.4l-0.7-0.7L97.4,37l0,0
	l-0.3-0.3l0,0l-0.3-0.2L96,36.1l-0.6,0l-0.9-0.2l-0.1,0.4l0.2,0.5L94.3,37l-0.5-0.7l-0.5,0.1l-0.5-0.2l-0.5,0l-0.4,0.2l-0.3-0.2
	l0-0.6l-0.2-0.3l-0.6-0.1l-1.1,0.2l-0.7-0.7l-0.2-0.5l-2.5-0.6l-0.4,0.4l0.2,0.8l-0.5-0.1l-0.2,0.2l-0.5-0.3l-0.5,0.2l-0.4-0.4
	l-0.3,0.9L83.1,35l-0.4-0.7l0.2-0.4l-0.1-0.6l-0.5-0.5l-0.4,0l-0.6-0.2l0,0.7l-1.2-0.1l-0.1-0.5l-0.9-0.2l-0.4,0.2L78.6,33l-0.1-0.6
	l-0.3,0.2l-0.4-0.3l-0.3-0.1l0.2-0.3l0.7-0.6l0.3-0.3l0.1-0.6l-0.2-0.4l-0.6-0.6l-0.8,0l-0.3,0.3L76.8,29l-0.6-0.2l0.4-0.3l-0.5-0.4
	l-0.7,0.5l-0.3,0.5l-0.1,0.5l-0.5,0l-0.6,0.6L73.7,30L73,30.1l-0.1,0.3l-0.7,0.2l-0.5,0.5l-0.3,0l-0.3,0.7l0.2,0.5l-0.6,0.1l-0.7,0
	l-0.5,0.2l0,1l0.2,0.8L69.2,34l-0.6,0l-0.5,0.4l0.1,0.6l-0.3-0.2l0.1-0.9l-0.1-0.5l-0.1,0l0.1,0.7l-0.5,0.6l0.4,0.7l-0.2,0.8
	l0.1,0.4l0.3,0.1l-0.1,0.5l0.2,0.4l-0.2,0.3l-0.1,0.4l-0.3,0.2l-0.1,0.3l-0.3-0.1l0.5-1l0.1-0.5l-0.3-0.5l0.1-1.1l-0.1-0.6L67,34.8
	l0.3-0.7l-0.1-0.5l-0.7-0.3l-0.2,0.2l-0.2,0.8l-0.5,0.8l0,0.3l0.1,0.6l-0.1,0.4l0.3,0.1l0,0.2l0.3,0.4l-0.2,0.4l-1-0.9l-0.4-0.2
	l-0.8-0.2l-0.1,0.3l0.3,0.5l-0.3,0.5l-0.3-0.5l-0.4,0.3l-0.5,0l-0.2,0.3l-0.3-0.1l0.3-0.5l-0.2,0c-0.5,0.3-1,0.7-1.6,1l-0.1,0.5
	l-0.4,0.2l-0.2-0.2l0-0.4l0.4-0.1l-0.2-0.4l-0.8-0.2l0.2,0.5L59.1,38l0.2,0.4l-0.2,0.5l-0.3-0.2l-0.3,0L58,39.3l0.2,0.5L58,40
	l-0.7-0.4l-0.2,0.2l0.2,0.3l0,0.3L57,40.2L56.7,40l0-1l-0.5-0.5l0.2-0.1l1.2,0.5l0.5-0.2l0.3-0.4l0-0.5l-0.2-0.3l-1.1-0.9l-0.8-0.2
	l-0.5-0.5l-0.3,0.3l-0.3-0.5l0.4-0.2L54.8,35l-0.5,0.2l-0.5,0l-0.4,0.7l-0.5,0l-0.6,0.4c-0.4,0.5-0.8,1-1.2,1.6
	c-0.4,0.8-0.8,1.5-1.2,2.3l-0.6,0.7l-0.7,0.5l-0.3,0.4l0.1,1.3l0.1,0.6l0.4,0.3l0.4-0.1l0.6-0.6l0.2,0.3l0.2,0.7l0.2,0.6l0.1,0.5
	l0.3,0l0.2-0.4l0.3,0l0.2-0.5l0.1-0.9l0.3-0.1l0.3-0.6l-0.3-0.3l-0.2-0.4l0.2-0.8l0.5-0.5l0.4-0.5l0-0.4l0.3-0.5l0.5-0.2l0.4,0.3
	l0,0.3l-0.2,0.1l-0.6,0.7l-0.3,0.4l-0.1,0.4l0.1,0.5l-0.1,0.6l0.3,0.2l0.2,0.3l0.5-0.1l0.5-0.2l0.5,0l0.3,0.3L54.7,43l-0.3,0
	l-0.3-0.1L53.8,43l-0.4,0.2l0,0.3l0.2,0.2l0.1-0.1c0,0.2-0.1,0.5-0.1,0.7l-0.2,0l-0.2-0.4L53,44.1l-0.1,0.3l0,0.4l0.1,0.4l-0.4,0.2
	l-0.1,0.2l-0.3,0l0-0.1l-0.3-0.1c-0.3,0.1-0.5,0.3-0.8,0.4l-0.2,0.1l-0.1-0.2l-0.3-0.2l-0.2,0.1L50,45.8l0-0.2l-0.3-0.1l0-0.2
	L49.6,45l0.2-0.4l0.1,0.1l0.1-0.2l-0.2-0.1l0-0.1l0.1-0.2l0-0.3L49.7,44l-0.1,0.1l-0.2,0l-0.1,0.2l0,0.1l0,0.5l0.1,0.3l0,0.3
	l0.1,0.2L49.2,46l-0.1-0.1l-0.2,0L48.9,46l-0.2,0l-0.4,0.2L48,46.9L47.9,47c-0.2,0.1-0.3,0.1-0.5,0.2l-0.1,0.4l-0.6,0.3l-0.3-0.2
	l0.1,0.5L46,48l-0.4,0.1l0,0.3l0.4,0.2l0.2,0.2l0.3,0.4L46.5,50l-0.1,0.2l-0.5,0l-0.2,0l-0.3-0.1l-0.4,0l-0.3-0.1l-0.4,0.3l0.1,0.2
	l0,0.3l0,0.1l0.1,0.1l0,0.2l-0.1,0.2l0,0.1l-0.1,0.1l0,0.2l0.1,0.1l0.1,0l0,0.2l0,0.3l0.1,0l0.1,0l0.1-0.1l0.3,0.1l0.1,0.2l0.1,0.1
	l0.1,0l0.1-0.1l0.2-0.1c0.2,0,0.4,0,0.6,0l0.2-0.3l0.2-0.1l0.1-0.2L47,52l-0.1-0.2l0.1-0.3l0.2-0.2l0-0.1l0.4-0.1l0.3-0.2l0-0.2
	l0-0.2l0.4-0.1l0.6,0.1l0.3-0.2l0.1,0l0.2-0.2l0.1-0.1l0.2,0.1l0.1,0l0.1,0.4l0.2,0.2l0.3,0.2l0.2,0.2l0.2,0l0.1,0.1l0.2,0.1
	l0.1,0.2l0.1,0c0.1,0.1,0.1,0.3,0.2,0.4L51.4,52l-0.1,0.2l0,0.1l0.1,0l0.1-0.3l0.1,0l0-0.2l-0.2-0.1l0.1-0.2l0.2,0.1l0.2,0.2
	l0.1-0.1l0-0.1l-0.2-0.2c-0.2-0.1-0.3-0.2-0.5-0.2l0.1-0.1l-0.1-0.1l-0.2,0l-0.3-0.3l-0.1-0.3L50.4,50l-0.1-0.2l0-0.1l0-0.2l0.2-0.1
	l0.2,0.1c0,0,0,0-0.1,0l0,0.1l0.1,0.1l0.1-0.2l0.2,0.1l0,0.1l0.1,0.2l-0.1,0l0.2,0.3l0.3,0.1l0.2,0.1c0.1,0.1,0.3,0.1,0.4,0.2
	l0.1,0.1l0.1,0l0,0.1l0,0.1l0,0.3l0,0.2l0.2,0.1l0,0.1l0,0l0,0.1c0.1,0.1,0.2,0.2,0.3,0.4l0,0.2l0.1,0.3l0.2,0.2l0.2,0l-0.1-0.3
	l0.2,0l-0.1-0.2l0.3,0.1l0-0.2l-0.1-0.1l-0.2-0.2l0.1-0.1l-0.1-0.2l-0.1-0.2l0.1-0.1l0.1,0.2l0.2,0l0.1-0.1l-0.2-0.2l0.3-0.1l0.1,0
	l0.2,0l0,0.1l0.1,0.2c0.1-0.1,0.2-0.2,0.4-0.3l0.3,0l0.1-0.1l-0.2-0.1l0-0.1l-0.1-0.2l0.1-0.3l0.1-0.2l0.1-0.5l0.1,0l0.1-0.1l0-0.1
	l0.2-0.3l0.1-0.2l0.3-0.1l0,0.2l0.4,0.1l0.1,0.1L56,49.4l0,0.1l0.3,0.1l-0.1,0.2l0.2,0.1l0.4-0.2l0.3-0.1l0.1-0.1l-0.3,0l-0.1-0.1
	l0-0.2l0.2-0.2l0.3,0l0.2-0.1l0.2,0l0.3-0.1l0,0.1L57.4,49l0.2,0.2l-0.2,0.3l-0.2,0.1l0.2,0.2l0.3,0.1l0.4,0.3l0.1,0.1l0.2,0
	l0.2,0.1l0.1,0.3l0,0.2l-0.3,0.2l-0.2,0l-0.3,0.1L57.2,51l-0.5-0.3l-0.5,0L56,50.9l-0.3,0.2l-0.5,0L55,51.4l-0.4,0l-0.3,0.3l0.2,0.2
	l-0.1,0.3l0.2,0.2l0.2,0.3l0.3,0l0.3,0.2l0.2,0l0.1-0.1l0.3,0l0.2,0.2l0.4,0l0.2-0.2l0.2,0.1l0.2,0l-0.1,0.1L57,53l-0.1,0.1l0,0.3
	l0,0l-0.1,0.2l-0.1,0.3l0,0l0,0.1l-0.1,0.2l-0.1,0.2l0,0l-0.1,0.1l-0.1,0.1l-0.2,0l-0.2-0.1l-0.1,0.1l-0.1-0.2l-0.2,0l-0.2,0
	l-0.1,0.1L55,54.7c-0.2-0.1-0.4-0.2-0.7-0.2l-0.4,0l-0.1-0.1l-0.3,0l-0.1-0.1l-0.1,0l-0.1-0.1L52.9,54l-0.2,0l-0.2,0.2l-0.1,0.2
	l0.1,0.3l-0.1,0.1l-0.1,0.1L52,54.7l-0.4-0.1l-0.3-0.1l-0.1-0.3l-0.4-0.1L50.6,54l-0.1,0l-0.3-0.1L50,53.9L50,53.7l-0.1,0l-0.1-0.2
	l0.2-0.2l0-0.3L49.9,53l0-0.2l0.1-0.2l0-0.1l-0.2,0.1l0-0.2l-0.2,0l-0.3,0.1l-0.2,0L49,52.6l-0.3,0l-0.3,0.1l-0.1-0.1
	c-0.3,0-0.6,0-0.9,0.1l-0.3,0.1L46.9,53l-0.3,0.1l-0.3,0.2l-0.1,0l-0.3-0.1l-0.3,0L45.5,53l-0.2,0l-0.1,0.2L45,53.6l-0.2,0.1
	l-0.3,0.2l-0.2,0.2l0,0.2l-0.1,0.3l0.1,0.4L44,55.2l-0.1,0.1l-0.2,0.2l-0.3,0l-0.1,0.1L43.1,56l-0.2,0.1l-0.1,0.2l0,0.2l-0.1,0.2
	l-0.1,0l-0.2,0.2l-0.1,0.2l0,0.1l-0.1,0.2l-0.1,0.1c0,0.1,0,0.2,0,0.3l0.1,0.1l0.1,0.1l0,0.1l0,0.1l0,0.3l0,0.3L42.3,59l0,0.2
	l-0.1,0.1l-0.1,0.2L42,59.6l0.1,0.1l0.1,0.2l0,0.1l0,0.2l0,0.1l0.1,0.1l0,0l0.1,0.1l0.1,0l0.1,0.1l0.1,0l0,0.1l0,0.1l0.1,0.1l0.1,0
	l0.1,0.1l0.1,0.2l0,0.2l0,0.1l0.1,0.2l0.2,0.1l0.1,0l0.2,0.2l0.2,0.2l0.3,0.2l0.3,0.1l0.1,0l0.1,0c0.2-0.1,0.3-0.1,0.5-0.2l0.3,0
	l0.2,0l0.2,0.1l0.1,0l0.2,0.1l0.3-0.1l0.2-0.1l0.4-0.2l0.2-0.1l0.2,0c0.2,0,0.3,0,0.5,0l0.2,0.2l0.1,0.2l0.1,0.2l0.2,0l0.1-0.1
	l0.1,0l0.3-0.1l0,0.1l0.1,0l0.1,0.1l0.1,0l0.1,0.2l0,0.2l-0.1,0.3l0.1,0c0,0.1-0.1,0.3-0.1,0.4L49.4,64l0,0.1l0.2,0.3l0.2,0.2
	l0.3,0.3l0.2,0.3l0.1,0.2l0,0.1l0,0.1l0.1,0.2c0,0.2,0.1,0.3,0.1,0.5l-0.1,0.1l0,0.1c0,0.1,0.1,0.2,0.1,0.3l0.1,0.1l0,0.2l0,0.2
	l-0.1,0.1l-0.2,0.2l-0.1,0.1l-0.1,0.3l0,0.1l-0.1,0.3l0,0.3c0,0.1,0,0.3,0,0.4l0.2,0.3l0.1,0.2l0.1,0.4l0.1,0.2l0.1,0.1l0,0.2l0,0.4
	l0.1,0.5l0.1,0.2l0.1,0.3l0.1,0.2l0.2,0.2c0.2,0.3,0.3,0.7,0.5,1l0,0.3l-0.1,0.1l0.1,0.2l0,0.2l0,0.1l0,0l0.1,0.2l0.1,0l0.1,0.1
	l0.1,0l0.2-0.1l0.2-0.1l0.3-0.1l0.1,0l0.2,0l0.3,0.1l0.1-0.1l0.2,0l0-0.1l0.1,0l0.3-0.1l0.2-0.2c0.2-0.2,0.3-0.4,0.5-0.5l0.2-0.2
	l0.1-0.2l0.1-0.2c0.1-0.1,0.2-0.1,0.2-0.2L56,72l0-0.3l0.1-0.2l0-0.2l-0.1,0l0-0.1l0.1-0.1c0.2-0.1,0.4-0.2,0.6-0.3l0.1-0.1l0-0.1
	l-0.1-0.1l0-0.1l0-0.3l0,0l0-0.1l-0.1-0.2l-0.1-0.2l0-0.2l0.1-0.1l0.2-0.2l0.1-0.1l0.3-0.3c0.2-0.1,0.4-0.2,0.6-0.3l0.2-0.2l0.1-0.2
	l0.1-0.2l0-0.1l0-0.4l0-0.3l0-0.3l0-0.1l-0.1-0.1L58,66.3l-0.1-0.2l0-0.1l0-0.1l0.1-0.2l0-0.1l-0.2-0.1l0-0.2l0.1-0.3L58,65l0.1-0.2
	l0.1-0.1l0-0.2l0.1,0l0.1-0.1l0.2-0.1l0.1-0.1l0.1-0.1l0.3-0.3l0.3-0.2l0.4-0.3l0.3-0.2c0.2-0.2,0.4-0.5,0.6-0.7l0.2-0.4
	c0.1-0.2,0.2-0.4,0.3-0.7l0.1-0.3l0.1-0.1l0-0.1l0-0.2l0-0.1l-0.1,0L61,60.5l-0.1,0l-0.1,0c-0.1,0-0.2,0-0.2,0l-0.1,0.1l-0.1,0
	l-0.2,0.1l-0.3,0l-0.3,0.1l-0.1,0l-0.1-0.1l-0.1-0.1c-0.1,0-0.1-0.1-0.2-0.1l0.2-0.1l0-0.1L59,60.2l-0.1-0.1
	c-0.1-0.1-0.3-0.3-0.4-0.4L58,59.4l-0.2-0.1L57.8,59l-0.2-0.3c-0.1-0.1-0.2-0.1-0.3-0.2l-0.1-0.4l0-0.3l0.1-0.1l-0.1-0.3l0-0.1
	l-0.3-0.3l0-0.2l0.1-0.1l-0.3-0.3l-0.1-0.2l-0.1-0.2l-0.2-0.5l-0.2-0.3L55.9,55l0,0l0.2,0.5c0.1,0.1,0.1,0.2,0.2,0.2l0.1-0.1
	l0.1-0.2l0.1-0.2l0.1-0.1l0,0l0,0.1l0,0.1l0,0.2l0.1,0c0.1,0.2,0.2,0.3,0.3,0.5l0.1,0.2l0.1,0.1l0.1,0.2l0,0.1l0.1,0.2l0.2,0.1
	l0.1,0.1l0.2,0.3l0,0.2l0,0.2l0.2,0.3l0.1,0l0.2,0.2l0.1,0.2l0.1,0.2l0.1,0.1l0,0.1l0.1,0.1l0,0.1l0,0.1l0,0.1l0,0.1l-0.1,0l0.1,0.1
	l0.1,0.2l0,0.1l0,0.2l0.1,0.2l0.2,0l0.1,0l0.1,0l0-0.1l0.1,0l0.1-0.1l0.1,0l0.2,0l0.2-0.1l0.2-0.1l0.1,0l0.1,0l0.2-0.2l0.4-0.1
	l0.3-0.1l0-0.1l0.1-0.1l0.2-0.1l0.1,0l0.2-0.1l0.2,0l0.1-0.1l0-0.1l0.1-0.1l0.2,0l0.1-0.1l0-0.1l0.2-0.1l0.1,0l0,0l0-0.2l0-0.2
	l0.1-0.1l0.1,0l0.1-0.2l0.1-0.1c0-0.1,0.1-0.2,0.1-0.3l0-0.1l-0.1,0c-0.1-0.1-0.1-0.2-0.2-0.3l-0.2-0.1l-0.2,0l-0.2-0.1l-0.1-0.2
	l0-0.2l0-0.1l0-0.1l0,0l-0.1,0.1c-0.2,0.2-0.4,0.4-0.6,0.6c-0.1,0-0.3,0-0.4,0l-0.2,0l0-0.1l0,0l-0.1-0.1l0.1-0.2l0-0.2l-0.1-0.1
	l-0.1,0l-0.1,0.2l0,0.2l0-0.1l0-0.1L61,56.3l0-0.1l0-0.1l0-0.1l-0.2-0.1l0-0.1l-0.1-0.1c-0.1-0.2-0.1-0.3-0.2-0.5l0-0.1L60.3,55
	l0.2,0l0.1-0.1l0.2,0.1l0.2-0.1l0.2,0.4l0.2,0.3l0.3,0.1l0.3,0.2l0.3,0.1l0.3-0.2l0.2-0.1l0.1,0.1l0.1,0.4l0.3,0
	c0.3,0.1,0.6,0.1,0.8,0.2l0.4,0l0.5,0l0.5-0.1l0.2,0.2l0.1,0.2l0.2,0.1l0.3,0.3l0.1,0.1l-0.1,0.1l0.4,0.4l0.2,0l0.4-0.2l0.1,0.3
	l0,0.4c0.1,0.3,0.1,0.6,0.2,0.9l0.3,0.4l0,0.2l0.1,0.4l0.1,0.3l0.1,0.1c0.1,0.2,0.2,0.5,0.2,0.7l0.3,0.3l0.1-0.1l0.1-0.2l0.3-0.1
	l-0.1-0.1l0.1-0.2l0.1,0l0-0.5l0.1-0.3l0-0.2l-0.1-0.4l0.1-0.2l0.1,0l0.3-0.1l0.1-0.1l0-0.1l0.3-0.2l0.2-0.2l0.3-0.3l0.4-0.2
	l0.1-0.2l0-0.2l0.3-0.1l0.2,0l0-0.1l0.1,0l0.1,0l0-0.1l0.1,0.1l0.1-0.2l0-0.1l0.3,0l0.1,0.2l0.1,0.1l0,0.2l0.1,0.2l0.2,0.2l0.2,0
	l0,0.1l0.2,0.3l0.1,0.3l-0.1,0.4l0.2,0.1l0.2,0l0.3-0.2l0.2-0.1l0.1,0.2l0.1,0.4l0.1,0.3l0.1,0.1l0,0.3l0.1,0.2l-0.1,0.2l0,0.2
	l-0.1,0.3l0,0.2l0.1,0.2l0-0.2c0.1,0.1,0.2,0.2,0.3,0.3l0,0.1l0.1,0.1l0.1,0.1l0,0.2l0.1,0.2l0,0.2l0.2,0.2l0,0.1l0.3,0.2l0.3,0.2
	l0.2,0l0-0.1L75.9,63L75.8,63l0-0.2l0-0.1l0-0.1l0-0.2l-0.1-0.2L75.5,62l-0.1,0l-0.1-0.1l-0.2,0L75,61.7l-0.1-0.2l-0.1-0.3l-0.2,0
	l0-0.2c0.1-0.2,0.2-0.4,0.2-0.7l0-0.3l0.2,0l0,0.2l0.2,0l0.3,0.1l0.1,0.3l0.1,0.1l0.2,0l0.2,0.2l-0.1,0.2l0.1,0.2l0.3-0.3l0.2-0.2
	l0.3-0.2l0.2-0.2l0-0.5l-0.1-0.5l-0.2-0.2L76.9,59c-0.2-0.2-0.3-0.5-0.5-0.7l0.1-0.2l0.2-0.3l0.4-0.3l0.1,0l0.4,0.1l-0.1,0.1
	l0.1,0.2l0.2,0l0.1-0.3l0.3,0l0.4-0.2l0.2-0.1l0.1,0.1l0.2-0.1l0.3,0c0.3-0.2,0.5-0.4,0.8-0.5l0.3-0.4c0.1-0.3,0.3-0.5,0.4-0.7
	l0.2,0l0.1-0.3l0-0.3l-0.2-0.1l-0.1-0.2l0.2-0.1l0-0.2l-0.2-0.3l-0.2-0.3l-0.1-0.3l-0.3-0.2l0.1-0.2l0.3-0.2l0.1-0.2l0.4-0.1l0-0.2
	l-0.2,0l-0.2-0.1l-0.3,0.3l-0.2-0.1l0-0.2l-0.2-0.1L79.7,52l0.1-0.2l0.3,0l0.2-0.2l0.3-0.3l0.2-0.1l0.1,0.2l-0.2,0.2l0.1,0.1
	l-0.1,0.2l0.3-0.1l0.2-0.2l0.4-0.1l0.1,0.1l0.2,0l0,0.1L81.9,52l0,0.1l-0.1,0l-0.1,0.2l0.1,0.1l0.1,0l0,0.1l0.1,0l0-0.1l0.1,0.1
	l0.2,0.3l-0.2,0.1l0.1,0.4l-0.1,0.3l0,0.2l0.3,0l0.2-0.1l0.3-0.1l0.1-0.2l0-0.4L83,52.5L82.8,52l-0.2-0.2l-0.1-0.1l0,0l0-0.2
	l0.1-0.1l0.2-0.1l0.1-0.1l0-0.1l0.1-0.1l0-0.3l0.1-0.1l0.1-0.1l0.1,0l0-0.1l0.4-0.3l0.2,0.2l0.2,0l0.4-0.2c0.3-0.4,0.6-0.8,0.9-1.1
	l0.1-0.3l0.4-0.6l0.1-0.7l0-0.5l0.2-0.5l0-0.4L86,45.7l-0.3,0l-0.2,0.2l-0.3-0.1l-0.1-0.3l-0.4-0.1c0.7-0.7,1.3-1.5,2-2.2l0.9-0.2
	l0.9,0.1l0.3-0.3l0.4,0.1l0,0.4l0.4-0.1l0.6-0.1L90,42.8l0.7-1l0.7-0.2l0.2,0.7l0.3-0.3v0l0.4-0.4l0.2-0.5l0.3-0.1L92.6,42l-0.5,0.5
	c-0.3,0.4-0.7,0.8-1,1.2l-0.4,0.1l0,0.2l-0.2,0.3l-0.1,0.7c0.1,0.6,0.2,1.2,0.3,1.7l0.1,0.3l0.4-0.4l0.1-0.5l0.4-0.1l0.1-0.5
	l0.2-0.1v0l0.3-0.1l-0.1-0.2l0.1-0.4l0.3,0l0-0.7l-0.3-0.1l0-0.2l0.3-0.5l0.1-0.4l0.4,0.1l0.3-0.2l0.1,0.2l0.7-0.4l0.4,0.4l0.1-0.3
	c0.3-0.2,0.6-0.5,0.8-0.8l0.2-0.1l0.8-0.4l0.5,0.1l0.1-0.2l0-0.3l-0.1-0.2l-0.2-0.5l-0.3-0.3l0.4,0l0.3-0.3l0,0l0.1-0.1l0,0l0.1-0.2
	l-0.1-0.3l0.3-0.2l-0.1,0.3l0.2,0.2l0.3-0.1l0.3,0.1l0.1,0.3l0.4,0.2l0.2,0.2l0.3,0l0.1-0.1l0-0.6l0.5-0.1L100,39L99.5,38.3z
	M62,51.3l-0.3-0.1l-0.1,0.3l0.2,0l-0.1,0.2l0.2,0.1l0,0.4l0.1,0.2l0,0.1l-0.4,0.1l-0.4-0.1l-0.2-0.2l-0.3-0.1l-0.1-0.3l0-0.2
	l0.1-0.1l0-0.1l0-0.3l0.2,0l-0.1-0.1l-0.1,0l-0.1-0.3c-0.2-0.2-0.3-0.4-0.5-0.6l0-0.3L60,49.8l0.3-0.4l0.3-0.1l0.1-0.2l0.3-0.1
	l0.3-0.2l0.2,0.1l0.3,0l0,0.3l-0.1,0.4l-0.2-0.1l-0.2,0.1l0,0.3l-0.3,0l0,0.1l0.2,0.1l0.1,0.3l0.3,0.1l0.1,0.1l-0.1,0.2l0,0.1
	l0.1,0.2l0-0.3l0.2-0.1L62,51l0.2,0.2L62,51.3z"/>
</svg>
