<?xml version="1.0" encoding="utf-8"?>
<!-- Generator: Adobe Illustrator 18.0.0, SVG Export Plug-In . SVG Version: 6.00 Build 0)  -->
<!DOCTYPE svg PUBLIC "-//W3C//DTD SVG 1.1//EN" "http://www.w3.org/Graphics/SVG/1.1/DTD/svg11.dtd">
<svg version="1.1" id="Layer_1" xmlns="http://www.w3.org/2000/svg" xmlns:xlink="http://www.w3.org/1999/xlink" x="0px" y="0px"
	 viewBox="0 0 100 100" enable-background="new 0 0 100 100" xml:space="preserve">
<path d="M75.2,79.9L74.3,79l0.1-0.8l0.9-0.1L77,78l1,0.2l0.8-0.2l0.8-1l-0.2-0.2l-1,0.7l-1.2,0l-1.3-0.1l-0.8-0.3l-0.9,0.7L74,78.3
	l-0.5,1.5l-0.1,0.8L73,81.3l0.3,0.7l0.4,0l0.2,1l-0.3,0.9l0.4,0.3l0.6-0.1c0-0.9-0.1-1.8-0.1-2.6l0.7-0.3l-0.1,1l0.7,0.6l-0.1,0.4
	l0.3,0.3l1-0.4l-0.5,0.8l0.4,0.4l0.5-0.3l0-0.7L76.5,82l0.2-0.3l-1-1.3l0.9-0.4l0.4-0.6l0.4,0.1l0.1-0.5l-1.9,0.3L75.2,79.9z
	 M75.6,87.1l-0.6-0.3L74.1,87l0,0.4l1.3,0.1l1.5-0.3l0.1-0.6L76.2,87L75.6,87.1z M75.4,54.8l0.6-1.8l0.2-0.7l-0.5-0.3l-0.8,0.8
	L74.3,54l0.1,0.8l0.5,0.9L75.4,54.8z M79.8,66.1l-0.3-0.4l-1,0l0.6,0.8l0,0.4l-0.6-0.1l0.2,0.6l0.3,0.1l0,0.7l0.5-0.2l-0.2-0.6
	l0-0.3l0.8,0.3L79.8,66.1z M74.1,62.7l0.2,0.5l0.5,0.6l0.1-0.4l0.3,0.2l-0.3,0.3l-0.1,0.4l0.5,0.2l0.9-0.2l0.6,0.6l0.3-0.4l0.4,0.5
	l0.8,0.5l0.1-0.5L78.1,65l0.1-0.6l-1.3-0.6L76.5,64L76,63.8L75.7,63l0.2-0.8l0.6-0.3l0.3-0.9l-0.3-0.8l0.2-0.4l-0.1-0.3l-0.3,0.3
	l-0.6-0.3l-0.6,0l-0.3,1l-0.1,1.6l-0.4-0.3L74.1,62.7z M73.1,86.8l-0.6,0.1l-0.4-0.3L71.8,87l-0.6,0l-0.3,0.6l0.5,0
	c0.6-0.1,1.2-0.2,1.9-0.3L73.1,86.8z M59.9,82.8l0.3-1.3l-0.5-0.6L59,80.8l-0.4-0.6l-0.2-0.7l-0.4,0l-0.6-0.4l0.4-0.8l-0.8-0.5
	L56.6,77l-0.8-0.7l-1,0l-1-1.1l-0.6-0.4l-0.8-0.7l-0.9-1c-0.7-0.1-1.5-0.2-2.2-0.2l0.1,0.5l1.1,1.1l0.8,0.6l0.5,0.9l0.9,0.6l0.4,0.8
	l0.3,0.9l0.9,0.8l0.8,1.4l0.5,0.8l0.8,0.8l0.4,0.6l1.3,0.8l0.8,0.8l1.1,0L59.9,82.8z M77.7,69.7L77.2,70l-0.6,0.3l-0.4,0.9l0.2,0.3
	l0.7-0.6l0.5,0l0.3-0.4l0.6,0.5l-0.3,0.5l0.3,0.7l1.2,0.6l0.3-0.5l-0.3-0.7l0.5-0.5l0.4,1l0.3-0.9c-0.1-0.7-0.2-1.4-0.3-2.1
	l-0.8-0.5l0.1,0.8l-0.7,0l-0.2,0.5l-0.8,0.3L77.7,69.7z M67.1,86.1l-0.4-0.7L64.9,85l-0.2,0.4l-1.9-0.1L62.6,85l-0.4-0.1l-0.8-0.4
	l-1.2-0.1l-0.7,1l0.9,0.1l0.2,0.4l1.8,0.4l0.4-0.1l0.7,0.1l1.2,0.4l0.9,0.2l1,0.1l0.9,0l1.1,0.4l1.2-0.4l-1.2-0.6L67.1,86.1z
	 M73.2,68.3l0.7-0.6l-0.2-0.8l-0.5,1l-0.6,0.7l-0.7,0.6L71.4,70l1.3-1L73.2,68.3z M34.7,69.1L34,68.5l-0.5,1.7l0.2,1.5l0.5,0.8
	l0.9-0.2l0.4-0.3l0.2-1.1l-0.5-1.1L34.7,69.1z M71.7,78.4l0.3-0.7l1.2-0.1l-1.1-0.9l0.2-0.5l-0.7-1l0.6-0.9l0.7-0.3l-0.2-0.5
	l0.7-0.1l0.1-0.4c-0.5-0.2-1-0.4-1.5-0.6l0-0.4l-0.5-0.5l-0.4,0l-0.5,0.8L69.6,73l-0.9,0.6l-0.4,0.4l-0.5,0.6l-0.7,0.8l-1.2,0.2
	l-0.4,0.2l-0.2,0.9l-0.8,0.2l-0.7-0.3l-0.6,0.7L63.1,78l0.1,0.9l0.5,0.9l0.5,0.3l0.2,1.4l0.8,0.1l0.7-0.1l0.4,0.5l1.2-0.4l0.5,0.3
	l0.7,0.1l0.4,0.6l1.1-0.5l0.1,0.4l0.4-1.5l0-1l1-0.7L71.7,78.4z M64.7,58.6l0.4-0.5l-0.2-0.4l-0.6,0L63.2,58l-0.5,0.5l0,0.9l0.8,0.3
	l0.9-0.5L64.7,58.6z M74.1,87.9l-0.9,0.2l1.3,0.7l0.4,0l0.1-0.3l-0.4-0.3L74.1,87.9z M87.6,42.8l0.5-0.3l0.4,0.4l0.6-0.7L89,41.7
	l-0.7-0.3L87.8,42l-0.6-0.1l-0.6,0.7l0,0.6l0.7,0.3L87.6,42.8z M95.4,81.1l-1.1-0.2c-0.5-0.3-1.1-0.5-1.6-0.7l-0.9,0l-1.2,0.6
	l-0.8,1.1l-1-0.6l-0.3-1.6l-0.2-0.4l-1.6-0.4l-0.5,0.3l-1.4,0.2l0.4,0.5l0.9,0.2l0.4,0.6l1.5,0l0.1,0.3l-0.7,0l-1.1,0.4l0.8,0.5
	l0,0.4l0.2,0.4l0.4-0.1L88,82l1.5,0.9l0.8,0.1l2,0.9l0.5,0.9l0.3,1.1l-0.6,0.3L92,87l1.3,0l0.2-0.3l1,0.2l0.9,0.8
	C95.4,85.5,95.4,83.3,95.4,81.1z M83.7,81.3l-1.2,0l-0.2,0.6l0.7,0l0.6-0.1l0.8,0.1l0.9,0.4l-0.4-0.8L83.7,81.3z M88.6,84.3
	l-0.2,0.4l0.1,0.8l0.5-0.7l0-0.5L88.9,84L88.6,84.3z M94.7,32.8l-0.4,0.8l0.2,1.5l-0.6,1.6c-0.7,0.6-1.4,1.2-2.1,1.8l-0.7-0.6
	L90,40.1L89,39.8l-2,0.4L86.2,41l-1,0.6l-0.5,0.8l-1,0.4l0.4,0.8l0.6,0.3L84.5,45l0.5,0.5l0.7-0.5l0.7-2l-1-0.9l1.2,0l1.2-0.6
	l1.8-0.3l0,0.9l0.7,0.5l1.4-1.4l1.8-0.1l1.3-0.6l0.5-0.9L95,39l0.4-1l0-1.3l0.9-1.3l0-1.1l-0.6-1.8L94.7,32.8z M99.8,28.4L99.1,29
	l-0.7-0.3l-0.8-0.5l-1.2-1.5l-0.3,1.1l-0.3,1.9l-1.1,0.1l-0.5,1.1l0.1,1.4l1.1,0l0.5-1.5l1.6,0.9l0.9-1.4l1.5-0.4L99.8,28.4z
	 M82.7,79.2l-0.4-0.5l0.2-0.6l0.5,0.1l0.1-0.9l-0.1-0.4l-0.6-0.1l-0.1-0.6l-0.3,0.4l-0.2,0.8l0.3,1.3l0.4,0.6L82.7,79.2z M75.1,65.5
	l0.4,0.5l0.3-0.9l-0.4-0.4l-0.9,0L75.1,65.5z M80.5,82.1l0.7,0.2l0.4-0.3l-0.3-0.3l-1,0L80.5,82.1z M77.2,67.4L77.1,68l-0.3,0.3
	l-0.2,0.3l0.6,0.7l0.3-0.3l0.3-0.6l0.4-0.3l0.1-1l-0.7,1l0.2-0.7L77.2,67.4z M76.1,66.4l0.2,0.5l-0.1,0.5l0,0.5l0.6-0.3l0.5-0.4
	l0-0.4l-0.6,0L76.1,66.4z M83.4,40.6l0.4-0.7l0-1.4l-0.2-0.8l-0.9-1.5l-0.6-0.6l-0.4-0.2l0.1-0.1l0-0.6l0.4-0.4l0.7-0.2l0.4-0.4
	l0.2-0.2l0.5-0.3l0-1l0.3-0.5l0.4-0.5l0.4,0.1L85,31.1c0-0.2,0-0.5,0-0.7l0.5,0l0.1-1.6l-0.3-1.2l0.9-0.5l1.2,0.3l0.7-1.4l0.3-1.6
	l0.4-0.5l0.5-1.4l-1.7,0.4l-0.9,0.6l-1.5,0L84.9,22l-1.2-1.1l-1.8-0.5l-0.4-1.5l-0.4-1l-0.4-0.7l-0.6-1.7l-0.9-0.6l-1.5-0.5l-1.3,0
	l-1.3,0.3l-0.8,0.8L75,16l0,0.9l-0.6,0.5l-0.9,1.7l0,0.7l-1.4,1l-1.2-0.6l-1.2,0.1l-0.5-0.5l-0.6-0.2l-1.5,1.1L65.7,21l-0.9,0.4
	l-1.3-0.3l-0.9,0L62,20.3l-1-0.8l-1-0.2l-1.3,0.2l-1,0.3l-1.4-0.7L56.1,18l-1.2-0.4L54,17.4l-1.1-0.7l-1,1.7l0.4,0.9l-1,1.1L49.8,20
	l-1-0.1l-0.7-0.7l-1.1,0l-0.9-0.5l-1.5,0.7l-1.9,1.3c-0.5,0.1-1,0.2-1.5,0.4l-0.5-1l-1.3,0.2L39,19.8l-0.7-0.3l-0.5-0.9l-0.6-0.3
	l-1.5,0.4l-1.4-0.9l-0.5,0.8l-2.3-4.2l-1.3-1.3l0.4-0.5l-2.5,1.6l-1,0.1l0.1-0.9L26,12.8l-1.1,0.4l-0.3-1.8L22.8,11l-0.9,0.7
	l-2.5,0.6l-0.5,0.4l-3.8,0.6L14.6,14l0.7,1.2l-1,0.4l0.2,0.5l-1,0.8l1.6,1.1L15,18.7l-1.4-0.1l-0.3,0.5L12,18.3l-1.6,0L9.3,19
	c-1.1-0.6-2.3-1.2-3.4-1.8l-1.6,0l-2.1,1.8l-0.1,1.2l-1-0.9L0.3,21l0.3,0.3L0,22.5l0.9,1l0.7,0l0.6,1l-0.1,0.8l0.5,0.2l0.9-0.3
	l1.2-0.6l0.9,0.4l1-0.1l0.2,0.9l-0.2,1.4l-0.9-0.2l-0.9,0.2l0,1l-1-0.1l0,0.5l0.6,0.4l0.5,1.3l1.2,0.5l0.2,0.5L6,31.6L6.1,32
	l0.3,0.9l0.1-1l0.8-0.3l0.3,0.8l0.7,0.8l-0.9,0.4l-1-0.3l-0.2,1.1L7,34.4l-0.3,0.9l0.8,0.4l-0.1,1.3L7.5,38l0.9-0.2L9.1,37l0.7,0
	l0.4-0.2l0.7,0.1l1.1,0.6l0.8,0.1l1.2,1.1l0.8,0l0.1,1.1c-0.2,0.8-0.4,1.6-0.7,2.4l0.4,0.2l-0.4,0.7l0.3,1l0.1,0.8l0.8,0.2l0.1,0.8
	l-0.9,1.1l0.5,0.6l0.4,0.7l1,0.5l0,1l0.5,0.2l0.1,0.5L15.6,51l-0.4,1.3l1.4-0.2l1.6,0l1.9-0.2l0.8,0.8l0.3,0.8l0.7,0.3l1.2,0.9
	l0.3,0.4l-0.5,0.4l1.3,1.3l0.7,0.1l1.5-0.6l0.2,1l0,1.3c0.3,1.1,0.5,2.3,0.7,3.4l0.9,1.4l0.2,0.7l0.3,1.3l0.5,1l0.4,0.5
	c0.3,0.8,0.6,1.6,0.9,2.5l1,1l0.4-0.3l0.3-0.7l0.9-0.3l-0.3-0.3l0.5-0.8l0.5,0l0-1.7l0.4-1l-0.1-0.9L33.9,63l0.3-0.8l0.5-0.1
	l0.9-0.4l0.5-0.3l0-0.5l1-0.7l0.8-0.7l1.1-1.3l1.5-0.7l0.5-0.6l-0.1-0.8l1.2-0.2l0.7,0l0.1-0.4l0.4,0.1l0.3,0.1l0.1-0.2l0.4,0.2
	l0.3-0.6l-0.1-0.5l0.9,0l0.4,0.6L46,56l0.1,0.6l0.3,0.6L47,58l0.6,0.1l-0.1,0.4l0.8,1.2l0.2,1l-0.3,1.3l0.6,0.2l0.6,0.1l1.1-0.7
	l0.7-0.5l0.4,0.9l0.2,1.3l0.3,1.2l0.4,0.5l-0.1,1.1l0.3,0.6l-0.3,0.8l0.1,0.8l-0.3,1L52.2,70l0.2,0.6l0.2-0.6c0.4,0.3,0.7,0.7,1,1.1
	l0.2,0.5l0.4,0.4l0.2,0.4l-0.1,0.7l0.4,0.6l0.1,0.8l0.6,0.7l0.1,0.5l1.2,0.8l1,0.7l0.7-0.1l0-0.3l-0.4-0.9l-0.4-0.3L57.5,75
	l-0.1-0.3l0.1-0.5l-0.1-0.7L57,72.9l-0.6-0.6l-0.2-0.1l-0.5-0.5l-0.6-0.1l-0.6-0.6l-0.2-0.9l-0.4-0.9l-0.7,0l-0.1-0.7
	c0.3-0.8,0.6-1.6,0.9-2.4l0.1-1.1l0.9,0l-0.1,0.8l0.9,0l0.9,0.5l0.5,1.1l0.4,0.5l0.8,0.1l0.7,0.6l-0.3,0.7l0.4,0.7l1.3-1l0.8-0.9
	l1.2-0.7l0.8-0.7l0.1-1.8L63,62.9L62.4,62l-0.9-0.6c-0.6-0.8-1.1-1.7-1.7-2.5l0.2-0.7l0.8-1l1.3-0.9l0.5-0.2l1.4,0.3l-0.2,0.4
	l0.3,0.8l0.6-0.1l0.3-1.1l1.1-0.2l1.4-0.5l0.6-0.5l0.3,0.4l0.6-0.5l1.1-0.1c1-0.6,1.9-1.3,2.8-1.9l0.9-1.3c0.5-0.9,1-1.8,1.6-2.7
	l0.6-0.1l0.3-0.9l0.2-0.9l-0.6-0.4l-0.2-0.6l0.6-0.3l0-0.9l-0.7-0.9l-0.6-1.1l-0.4-1.2l-1.1-0.7l0.5-0.9l1-0.6l0.5-0.7l1.4-0.4
	l-0.2-0.7l-0.7,0L75,37.1L73.9,38l-0.8-0.4l0-0.6l-0.8-0.2L71.7,36l0.5-0.6l1-0.1l0.6-0.8l1.1-0.9l0.9-0.5l0.5,0.7l-0.8,0.9l0.2,0.5
	l-0.5,0.6l1.1-0.4l0.7-0.6l1.4-0.4l0.5,0.4l0.6,0.1l0.1,0.2l-0.3,0.7l0.1,0.2l-0.2,0.2L79,36.8l0.3,0.2l0.3,0.1l0,0.2l0.3-0.1L80,37
	l0.5,0.2l0.7,1.1l-0.7,0.2l0.4,1.3l-0.2,0.9l0.1,0.7l0.9-0.1l0.8-0.5L83.4,40.6z M80.9,87l-0.7,0l-0.9,0.2l-0.1,0.2l-1,0.4l-0.4,0.6
	l-0.1,0.3l0.1,0.1l0.9-0.2l0.7-0.8c0.6-0.2,1.3-0.5,1.9-0.7l0.4-0.3l-0.4-0.1L80.9,87z"/>
</svg>
