<svg xmlns="http://www.w3.org/2000/svg" xml:space="preserve" viewBox="0 0 100 100"><path fill-rule="evenodd" d="m84.2 96.9-.3.1h-.2l-.1.1v-.2l-.1-.1h-.3l-.4.2-.3-.1-.7.1.3.7.7.2 1.5-.7v-.1zM51 53.5l.2 1.1 1.5 1.4.9-2.1-.5-1.3zm-2.5 31.8.5-1.5-.2-1.7-.9.8-.3.7.3 1.3zM27.1 54.7l.8-1.2.5.7-.5 1.1.3.7 1.8.4c.3.5.7 1 1 1.6l-.2 1.4c-.7-.1-1.4-.1-2.2-.2l-.3 1.6.8 1.3-1.5.7.4.9c.8.1 1.5.3 2.3.4l-1.3.6-2.1 2.4.8.5 1-.9 1.3.3 1-1.1.7.4 2.5-.6h1.9l1.3-1.2-.6-1.2.7-.7.2-1.5-1.8-.5-.4-1-.9-2.8-1-.4c-.5-1.1-.9-2.2-1.4-3.3l-1.5-.1 1.3-2.3.4-2.2h-1.6l-1.5.4 1.5-3-1.7.2-1.2-.2-1.1 2.2-.5 2.8.7 1.3zm45.4 41.7-1.1-.1-1.1.1-.8-.6-.3.8 1.8.3v.3l2.1-.2.2-.5-.8.2zm-3.9-4.6 1.3.5v-1l-.7-.5-.8-.9.5-.4-.7-.9-.3-1.1.3-.4.8 1h.8l.7-.3-1-1.1 1.8-.5.8.2.9.1v.4l.5.9c.6-.5 1.3-1 1.8-1.6l1.7-.1.3-.5L76 85l-.2-.7-.6-1.3.5-1.4.8-.8.4-2.4.4.2.7-.4v-.5l1.1-1.5.5-1.2 1.3-.3.1.8 2.2.5.4.5-1.4.7-.3.4 1.6.6-.3 1 .8.4 2-1.2 1.6-.4.3-.7-1.5.1-.7-.5-.1-1.3 1.2-.8 1.4-.1 1-.7 1.2-.2v-.9l.7-.6 1.4-.2.2-.7-.3-1.2.6-1.2v-.7l-2-.7h-.8l-.9-1.1-1.1.4-1.8-.8v-.4l-.5-1-1.2-.1-.1-.7.4-.5-1-1.4-1.5.2-.4-.1-.4.5-.5-.1-.4-1.5-.3-.8.3-.2 1.2.1.6-.5-.4-.6-1-.4.1-.4-.6-.4-1-1.8.3-.7-.1-1.2-1.4-.6-.8.3-.2-.6-1.5-.7-.5-1.5-.1-1.3-.7-.6.6-.9-.4-2.6 1-1.6-.2-.5-1.5.1-1.6-.5-1.8.4-1.8.8.1 1.6.9 1 .5-.3c-.1 1.2-.3 2.5-.4 3.7l-1.2.1-1.1-2-1.4.9-.7 1.7-.1 2 .4 2-2 .8-.3 1.1h-1.4l-.1-.6-1.4-.4c-1.4.6-2.7 1.3-4.1 2l-1 .7-.7-.8-1.6-1-.8.7-1.6.5v-.9l-1.5-.6v-1l-.4-1.2 1-1.9.4.3.4-1-.8-.4-.1-.7.4-.9v-1.4l-1.2.8-.5.7-1.1.2-.4.8-.2.7v2.6l.6 1.4.1 1.4.3.9-1 1.2-.3-.5-1.2.1-.3.5-1.2.1-2 1-1.3 3.5-.7.6-2.4.9-.4 1.9-3.4 1.7-1.4-1 .5 2.5-2.4-.6-1.9.5.1 1.6 2.2.8 1.1 1.1 1.5 2.2-.3 4.1-.7 1.2-2.3-.1-1.2.1-1.6-.2h-1.9l-1.8-.4-2 1.4.6.9-.1 1.4.1.7.3.7v.8l-.3 1.1-.1.8-.6.7-.1 1.2.3.7.6.2.1 1.1-.2 1.4.7-.2.8.3.6-.5 1.4.3.4 1 .5.6.7.1.6-.7.9-.6h3.2l1-1.4 1.1-.4.3-1.2.8-.8-.6-1.1.6-1.5.9-1.1.1-.6 1.9-.4 1.4-1.3-.1-1.1.2-1.2 2.1-.6 2.9.5 1.3-1.1.6-.1.8-.9.7-.3 1.2.7.7.2.5 2 1 1.1 1.3 1.3 1.1.9 1.1.1.6.8.9.3.4.8.6.2c.3.7.7 1.4 1 2l-.3.4-.3 1v.6l.6-.1.8-1.6.6-.1.2-1-1-.7.6-1.2 1.3.3.8.9.3-.7-.1-.4-1.2-1c-.8-.4-1.6-.9-2.4-1.3l.4-.4-.4-.4h-1.1l-1.6-1.6-.9-1.5-1.4-1-.5-1 .2-.6-.1-1 1.2-.7 1.2.3c-.1.1-.3.1-.4.2v.7l.4.7.4-.9.9.3v.7l.7.9-.3.2 1.2 1.5 1.3.6.8.7c.7.4 1.3.7 2 1.1l.4.6.3.2.2.3-.2.6-.1 1.3.1.9.8.6v.4l.2.1.1.5c.4.6.9 1.3 1.3 1.9l.3 1.2.5 1.5 1.2.8h1L68 93l.9-.2zM22.8 63.6l2.6-1.4 1.1-2.1-.2-1.7.8-1.7-1.6-1.6-1.2.1c-1 1.1-2 2.1-3.1 3.1l.8 2.5-1.2 2.5zm-8.6-42.4-2.4-.3-2.4 1.9-1.8-1-2.2 1.9-2.3-2.4-2.1.6-1 2.3 3 .8.1 1-2.6.7 3.1 1.7-1.4 1.5c2 .5 4 1 5.9 1.5 1.8-.9 3.6-1.9 5.4-2.9l1.9-2.6-1.6-2.4zm42.3 70.2-1.5.2-1.7-.2-.2.9 2 .9.7.2 1.1.7.3-.9-.2-.6.5-1.4zm-8.7-5.2-.8-.1.3 1.1.1 2.3.5.5.6-.6.7.1.2-2.5-.9-1.4zM43.4 46l2 1.4 1.9-.6 2.9-3.2 1 1.7 1.1 3.9 1.2 3 .5 2.4 1.7-.1.8-2 1.8.3.8-2.5.6-4.6L61 45l1.3-3.2-1.3-1.6-1-2.1 1.1-4.3 2.8-2.8 2.3-2.7-.2-2.1 1.4-2.4 2.5-1 2 1.7.2 1.5-1 .7-3.3 3.6-1.3 2-.7 1.8.7 2.8-.3 3 1.4 1 .8 1.6 2.4-.6 2.5-1.1 2.6-.2c1.5-1.9 3-3.7 4.4-5.6l.5-1.6-2.1-2.2.6-2.1-1.3-2.5 1-3-1.7-4.1 1.3-2.8-2.3-2.7.2-2.8 1.2-.4 2.5-1.6-1.6-2.6 1.9-1.1L76 2.3l-2.6.9-2.6-.2-2.2 3.6-2.4-.2L63 8.3c-2.1 2.7-4.2 5.4-6.4 8-2 4-4 8-6.1 11.9l-2.9 3.4-3.8 2.7-1.3 2 .5 6.9zm56.1 45.2L99 89l1-.5-.6-.6-1.1-.5.1-.9-.2-.7-1.4-.9-1.5.1-1.7 1-1.2-.2-1.7.3-2.1-.7-2.5-1.4h-2.4l-1.7.6-1.7 1.3-2.8-.3-.6 1.5-2.2.1-1.6 1.8.9.9-.7 1.4 1.1 1 .9 1.8h1.6l1.4 1 1-.2.3-.7 1.6.1 1.2 1 2.2-.2 1-1 1.2.4.9-.2-.7.5.5.8.8-.8.1-1 .5.4 1.6-.5.8.3h1.2l1.7-.7h.8l1.6-.3.6-.3 1.7.2.5.5.7-.3-.8-1.5z" clip-rule="evenodd"/></svg>
