<svg xmlns="http://www.w3.org/2000/svg" xml:space="preserve" viewBox="0 0 100 100"><path d="m41.5 26.8 1.6.1.8.3 1.2-.5-.2-1.1.9-.5 1.3-.4 2 .7.8 1.3.9.8 1.2 1c.9.1 1.9.3 2.8.4l.4.4 1-.1.2-.4-1.8-.8.4-.3-1.2-.3.1-.7H53l-1-1.6-1.3-1-.3-1 1.4-.2-.4-.8-2.4-.8-.2-.9-.8-.8-1-.8-2.8-.9-2.6-1c-.1 3.4-.1 6.7-.1 9.9m10 47.6c-.7.2-1.3.3-2 .5l-1.4-.5-1-.1v.7l.9 1.3.2 1 .9 1.3h.9l.3.1 1-1 .5.4.2-1.2.5-.5-.1-1.8zm8.2-21.3v-.9l-.4-1.2-1.2-1.2-1.8-1.5-.3-1.6-.3.3-.6-.7-.6.3-.6-1.6-.9-.9.2-.4c-.7-.4-1.4-.9-2.1-1.4l-1.6-.8-.5-1 .1-.8-.4-1.3-.4-.2c-.2-.7-.4-1.4-.5-2l.2-.7-.7-.5-.5-.6-1 .6-.5-1.2.1-.5-.1-.8-.5-.8-.1-.7-.4-.2-.1-.9-.4-.7-.6.6v.4l-.3.8-.4.8.2.5-.3.3-.2 1.1.2.9-.1.4.2.7-.5 1.2-.2.8-.3.7-.3.8-1 .5-1.4-.5-.2-.5-.8-.4h-.4l-1.1-.9-.8-.5-1.2-.5-1.2-.8-.1-.4.5-.7.4-.7-.2-.6h.5l.6-.6.4-.8-.7-.7-.4.3-.6-.1-.9.4-.6-.6-.4.2-1.3-.4-.8-.6-1-.4-.8.2 1.1.5v.8l-1.3.3-.8-.2-.9.5-.7.9.2.4-.7.4-.7 1.2.3.8-1-.1h-.9l-.8-.9-1.1-.7c-.5.1-.9.3-1.4.4v.4l-.7-.2v.4l-.8.3-.4.6-.8.7-.2 1.1-.7-.3-.2.6.5.7-.6.3-.6-1.3-1 1.3c0 .5 0 .9-.1 1.4l-.9.8-.4.8-.8.7-1.6.4h-.8l-.4.1-.2.3-.9.2-1.2.6-.4-.2-.7.1-1.1.6-.7.6-1.3.5-.6 1-.1-1.1-.6 1.1.2.9-.2.8-.3.4-.2.9.3.4.1.5.7 1.2v.8L.9 52l-.7-.4.5 1.4-.7-.7.2.7.9 1.2.2 1.2.7.6v.4l.6 1-.1.9.2.7.8 1.5.2.9-.2 1 .1.6-.3.3-.7.2v.9l.8.3 1.6 1c.7 0 1.4 0 2.1.1l.7-.5.8-.4.4.1.9-.8 1-.1 1.1-.2 1.3.3.9-.1h1.3l.6-.6.3-.8 1.3-.3 1.6-.8 1.4.1c1.2-.4 2.4-.7 3.6-1l2.7-.1 1.4.7h1.1l1.9.9-.3.3.8.6.9 1.1v.8l1.2.6.6-1.2.9-.5 1.2-1.3.1 1.1-.6.7-.2.8-.8.8 1.3-.3.7-1 .4 1.1-.5.7 1.4.2.7.6.3.8.3 1.1 1 .9 1.5.4.9.1 2.1.6 1.3-1.1.8-.3-.2.8.9.3 1.2.7.9-.6.7-.6 1.4-.6 1.7-.1.9-.5-.1-.5.2-1 .4-1.1.6-.7.4-1.3.5-.7.5-1.2 1.1-.7.7-1.4.3-1.1v-.9c.2-.7.4-1.4.7-2l.1-1.3-.7-1.3zm2.9-31.6-.5-.3-.1-.5-.2.1.3 1.1.7 1 .6.6.4-.2.2-.3-.7-.5zm-4.7-3.2.7.5.3.6.3.9.5-.4-.2-.8-.5-.5-.6-.6c-.4-.2-.8-.4-1.1-.7l-.8-.4-.5.4 1.1.4zm14.4 9.5.2-.3-.6-.7-.5-1.2h-.5l.3.9zm-17.7-5.2h.8c.5-.2 1.1-.5 1.6-.7l.2-.4.8-.1.5-.9v-.8l-.3-.2h-.9l.2.9-.8.5-.4.5-.9.1-.1-.8h-.2l-.2.7-.8.1-1.3-.2-.1.5.9.4zm41.6 47.5-1-.1-1.2-.5-.2-1.1-.8-.5v1l-1.1-1.6-.4-1.3-1.2-.4-.8-.8-.5.1.6 1.1 1.2 1.3.7.6v.3l.6 1 .1 1-.3 1.2-1.1.5v.5l1.6.6.5.8-.9 1.3.6.2.3.4 1.2-.6 1.5-2.1-.1-.6.4-.5H97l.5-.9.4-1.3-.9-.2zm-5.3 4.4-1.1.6c-.2-.4-.5-.8-.7-1.3l-1.1.7-.2.8-.6.4-.7 1.1-.9.8c-.8.5-1.5.9-2.4 1.4l-1 .3-1.9 1.5-.8 1.1.3.6 1.6.1 1 .5h1.4c.6-.4 1.3-.7 1.9-1.1l.9-1.5.4-1 1.3-.6h1.2l-.6-.7.8-.6c.5-.6 1.1-1.2 1.5-1.8v-.6zm6.3-35.1-.7-.2-.6.5.1.7.8.2.9-.2.2-.8-.5-.4zm1.9-1.7-.5.1-.7.3.2.6c.6-.2 1.3-.4 1.9-.7v-.7zm-18.4 8.7-.8-.7-1.2-.9c-.4-.3-.7-.6-1.1-.9l-.8-.5h-.6l.2.5 1 1.1 1 .8 1.1.7.8.4zM69.8 25.6l-.4-.5c-.6-.4-1.3-.7-1.9-1.1l-.2.2.6.5.8.5 1.2.6zm-5-2.6-.1.2.6.6.7.3.3-.1-.6-.5z"/></svg>
