<svg xmlns="http://www.w3.org/2000/svg" xml:space="preserve" viewBox="0 0 100 100"><path d="m75.2 79.9-.9-.9.1-.8.9-.1L77 78l1 .2.8-.2.8-1-.2-.2-1 .7h-1.2l-1.3-.1-.8-.3-.9.7-.2.5-.5 1.5-.1.8-.4.7.3.7h.4l.2 1-.3.9.4.3.6-.1c0-.9-.1-1.8-.1-2.6l.7-.3-.1 1 .7.6-.1.4.3.3 1-.4-.5.8.4.4.5-.3v-.7l-.9-1.3.2-.3-1-1.3.9-.4.4-.6.4.1.1-.5-1.9.3zm.4 7.2-.6-.3-.9.2v.4l1.3.1 1.5-.3.1-.6-.8.4zm-.2-32.3L76 53l.2-.7-.5-.3-.8.8-.6 1.2.1.8.5.9zm4.4 11.3-.3-.4h-1l.6.8v.4l-.6-.1.2.6.3.1v.7l.5-.2-.2-.6v-.3l.8.3zm-5.7-3.4.2.5.5.6.1-.4.3.2-.3.3-.1.4.5.2.9-.2.6.6.3-.4.4.5.8.5.1-.5h-.3l.1-.6-1.3-.6-.4.2-.5-.2-.3-.8.2-.8.6-.3.3-.9-.3-.8.2-.4-.1-.3-.3.3-.6-.3h-.6l-.3 1-.1 1.6-.4-.3zm-1 24.1-.6.1-.4-.3-.3.4h-.6l-.3.6h.5c.6-.1 1.2-.2 1.9-.3zm-13.2-4 .3-1.3-.5-.6-.7-.1-.4-.6-.2-.7H58l-.6-.4.4-.8-.8-.5-.4-.8-.8-.7h-1l-1-1.1-.6-.4-.8-.7-.9-1c-.7-.1-1.5-.2-2.2-.2l.1.5 1.1 1.1.8.6.5.9.9.6.4.8.3.9.9.8.8 1.4.5.8.8.8.4.6 1.3.8.8.8H60zm17.8-13.1-.5.3-.6.3-.4.9.2.3.7-.6h.5l.3-.4.6.5-.3.5.3.7 1.2.6.3-.5-.3-.7.5-.5.4 1 .3-.9-.3-2.1-.8-.5.1.8h-.7l-.2.5-.8.3zM67.1 86.1l-.4-.7-1.8-.4-.2.4-1.9-.1-.2-.3-.4-.1-.8-.4-1.2-.1-.7 1 .9.1.2.4 1.8.4.4-.1.7.1 1.2.4.9.2 1 .1h.9l1.1.4 1.2-.4-1.2-.6zm6.1-17.8.7-.6-.2-.8-.5 1-.6.7-.7.6-.5.8 1.3-1zm-38.5.8-.7-.6-.5 1.7.2 1.5.5.8.9-.2.4-.3.2-1.1-.5-1.1zm37 9.3.3-.7 1.2-.1-1.1-.9.2-.5-.7-1 .6-.9.7-.3-.2-.5.7-.1.1-.4-1.5-.6V72l-.5-.5h-.4l-.5.8-1 .7-.9.6-.4.4-.5.6-.7.8-1.2.2-.4.2-.2.9-.8.2-.7-.3-.6.7-.1.7.1.9.5.9.5.3.2 1.4.8.1.7-.1.4.5 1.2-.4.5.3.7.1.4.6 1.1-.5.1.4.4-1.5v-1l1-.7zm-7-19.8.4-.5-.2-.4h-.6l-1.1.3-.5.5v.9l.8.3.9-.5zm9.4 29.3-.9.2 1.3.7h.4l.1-.3-.4-.3zm13.5-45.1.5-.3.4.4.6-.7-.1-.5-.7-.3-.5.6-.6-.1-.6.7v.6l.7.3zm7.8 38.3-1.1-.2c-.5-.3-1.1-.5-1.6-.7h-.9l-1.2.6-.8 1.1-1-.6-.3-1.6-.2-.4-1.6-.4-.5.3-1.4.2.4.5.9.2.4.6H88l.1.3h-.7l-1.1.4.8.5v.4l.2.4.4-.1.3-.6 1.5.9.8.1 2 .9.5.9.3 1.1-.6.3-.5.8h1.3l.2-.3 1 .2.9.8zm-11.7.2h-1.2l-.2.6h.7l.6-.1.8.1.9.4-.4-.8zm4.9 3-.2.4.1.8.5-.7v-.5l-.1-.3zm6.1-51.5-.4.8.2 1.5-.6 1.6-2.1 1.8-.7-.6-1.1 2.2-1-.3-2 .4-.8.8-1 .6-.5.8-1 .4.4.8.6.3-.2 1.1.5.5.7-.5.7-2-1-.9h1.2l1.2-.6 1.8-.3v.9l.7.5 1.4-1.4 1.8-.1 1.3-.6.5-.9-.3-.6.4-1v-1.3l.9-1.3v-1.1l-.6-1.8zm5.1-4.4-.7.6-.7-.3-.8-.5-1.2-1.5-.3 1.1-.3 1.9-1.1.1-.5 1.1.1 1.4h1.1l.5-1.5 1.6.9.9-1.4 1.5-.4zM82.7 79.2l-.4-.5.2-.6.5.1.1-.9-.1-.4-.6-.1-.1-.6-.3.4-.2.8.3 1.3.4.6zm-7.6-13.7.4.5.3-.9-.4-.4h-.9zm5.4 16.6.7.2.4-.3-.3-.3h-1zm-3.3-14.7-.1.6-.3.3-.2.3.6.7.3-.3.3-.6.4-.3.1-1-.7 1 .2-.7zm-1.1-1 .2.5-.1.5v.5l.6-.3.5-.4v-.4h-.6zm7.3-25.8.4-.7v-1.4l-.2-.8-.9-1.5-.6-.6-.4-.2.1-.1v-.6l.4-.4.7-.2.4-.4.2-.2.5-.3v-1l.3-.5.4-.5.4.1-.1-.2v-.7h.5l.1-1.6-.3-1.2.9-.5 1.2.3.7-1.4.3-1.6.4-.5.5-1.4-1.7.4-.9.6h-1.5l-.3-1.5-1.2-1.1-1.8-.5-.4-1.5-.4-1-.4-.7-.6-1.7-.9-.6-1.5-.5h-1.3l-1.3.3-.8.8.7.5v.9l-.6.5-.9 1.7v.7l-1.4 1-1.2-.6-1.2.1-.5-.5-.6-.2-1.5 1.1-1.4.3-.9.4-1.3-.3h-.9l-.6-.8-1-.8-1-.2-1.3.2-1 .3-1.4-.7-.2-1.1-1.2-.4-.9-.2-1.1-.7-1 1.7.4.9-1 1.1-1.5-.4-1-.1-.7-.7H47l-.9-.5-1.5.7-1.9 1.3c-.5.1-1 .2-1.5.4l-.5-1-1.3.2-.4-.5-.7-.3-.5-.9-.6-.3-1.5.4-1.4-.9-.5.8-2.3-4.2-1.3-1.3.4-.5-2.5 1.6-1 .1.1-.9-1.2-.6-1.1.4-.3-1.8-1.8-.4-.9.7-2.5.6-.5.4-3.8.6-.5.7.7 1.2-1 .4.2.5-1 .8 1.6 1.1-.1.7-1.4-.1-.3.5-1.3-.8h-1.6l-1.1.7c-1.1-.6-2.3-1.2-3.4-1.8H4.3L2.2 19l-.1 1.2-1-.9L.3 21l.3.3-.6 1.2.9 1h.7l.6 1-.1.8.5.2.9-.3 1.2-.6.9.4 1-.1.2.9-.2 1.4-.9-.2-.9.2v1l-1-.1v.5l.6.4.5 1.3 1.2.5.2.5-.3.3.1.4.3.9.1-1 .8-.3.3.8.7.8-.9.4-1-.3-.2 1.1H7l-.3.9.8.4-.1 1.3.1 1 .9-.2.7-.8h.7l.4-.2.7.1 1.1.6.8.1 1.2 1.1h.8l.1 1.1c-.2.8-.4 1.6-.7 2.4l.4.2-.4.7.3 1 .1.8.8.2.1.8-.9 1.1.5.6.4.7 1 .5v1l.5.2.1.5-1.5.5-.4 1.3 1.4-.2h1.6l1.9-.2.8.8.3.8.7.3 1.2.9.3.4-.5.4 1.3 1.3.7.1 1.5-.6.2 1v1.3c.3 1.1.5 2.3.7 3.4l.9 1.4.2.7.3 1.3.5 1 .4.5c.3.8.6 1.6.9 2.5l1 1 .4-.3.3-.7.9-.3-.3-.3.5-.8h.5v-1.7l.4-1-.1-.9-.2-1.4.3-.8.5-.1.9-.4.5-.3v-.5l1-.7.8-.7 1.1-1.3 1.5-.7.5-.6-.1-.8 1.2-.2h.7l.1-.4.4.1.3.1.1-.2.4.2.3-.6-.1-.5h.9l.4.6.4.8.1.6.3.6.6.8.6.1-.1.4.8 1.2.2 1-.3 1.3.6.2.6.1 1.1-.7.7-.5.4.9.2 1.3.3 1.2.4.5-.1 1.1.3.6-.3.8.1.8-.3 1v.7l.2.6.2-.6c.4.3.7.7 1 1.1l.2.5.4.4.2.4-.1.7.4.6.1.8.6.7.1.5 1.2.8 1 .7.7-.1v-.3l-.4-.9-.4-.3-.1-.6-.1-.3.1-.5-.1-.7-.4-.6-.6-.6-.2-.1-.5-.5-.6-.1-.6-.6-.2-.9-.4-.9h-.7l-.1-.7.9-2.4.1-1.1h.9l-.1.8h.9l.9.5.5 1.1.4.5.8.1.7.6-.3.7.4.7 1.3-1 .8-.9 1.2-.7.8-.7.1-1.8-.4-2-.6-.9-.9-.6c-.6-.8-1.1-1.7-1.7-2.5l.2-.7.8-1 1.3-.9.5-.2 1.4.3-.2.4.3.8.6-.1.3-1.1 1.1-.2 1.4-.5.6-.5.3.4.6-.5 1.1-.1c1-.6 1.9-1.3 2.8-1.9l.9-1.3c.5-.9 1-1.8 1.6-2.7l.6-.1.3-.9.2-.9-.6-.4-.2-.6.6-.3V45l-.7-.9L75 43l-.4-1.2-1.1-.7.5-.9 1-.6.5-.7 1.4-.4-.2-.7H76l-1-.7-1.1.9-.8-.4V37l-.8-.2-.6-.8.5-.6 1-.1.6-.8 1.1-.9.9-.5.5.7-.8.9.2.5-.5.6 1.1-.4.7-.6 1.4-.4.5.4.6.1.1.2-.3.7.1.2-.2.2-.2.6.3.2.3.1v.2l.3-.1.1-.2.5.2.7 1.1-.7.2.4 1.3-.2.9.1.7.9-.1.8-.5zM80.9 87h-.7l-.9.2-.1.2-1 .4-.4.6-.1.3.1.1.9-.2.7-.8c.6-.2 1.3-.5 1.9-.7l.4-.3-.4-.1z"/></svg>
