<svg xmlns="http://www.w3.org/2000/svg" xml:space="preserve" viewBox="0 0 100 100"><path d="m43.9 31.5 1-.2.3-1.9v-1.3l-.5-1.3v.4l-.9-.2-1 .9-.7-.1v2l1-.2v1.5zm7.4 1.2h1.3l1.8-.4.8.3.9-.5.4-.6-.1-1-.7-1-1-.2-1.3.2-1 .5-.9-.2-.9-.1-.4-.6-.7-.6.1-1-.5-.9h-1.2l-.7-.9-1.3-.2-.2 1.1.7.8 1.3.3.6 1.1.1 1.3.2 1.3 1.7.8zm-8.1 9.1c-.8-.6-1.5-1.2-2.2-1.8-.2-1.1-.4-2.3-.6-3.4l-.7-.9-.7-.4-.6.3.4 2.2-.3.8-.5-2-.6-.7-.6 1.1-.9-1.1-1.4.6.3-1-.6-.4-1.7 1.3-.4.8-.5 1.5 1.1.5h1l-1.5.8.3.7h.9l1.3-.2 1.2.4-.8.3-.9-.1-1 .3-.4.2.8 1.4.6-.2.9.5.3.8c.9-.1 1.8-.3 2.7-.4l1.2-.6.7-.1 1.1.5 1.1.3.2-.6-.4-.7 1-.1zm4.2-3.9.7-1.6.8-.4.9-2-1.2-.6-1.3-.1-.6.6-.3 1v1.1l.4 1.8zm.1-5.7.3-.9-.2-.8-.6-.9-.9.7-.3 1.1.8.6zM64 41.6l-.5-.8-1.5-.7-.7-1.3-1.2.4-.1-.9-.9-1-1.4-1.1-.6.8-1.2.6.1-1.4-1-2-1.6.9-.6 1.7-.5-1.3.5-1.4-1.6.6-.6.9-.6 1.8.2 2h.9l-.7.9.5.7 1 .3 1.3.5 2.3.4 1.1-.2.3-.5.5.6.6.1.7 1.1-.4.4 1.3.6 1 .8.2.6.2.7-.8 1.6-.2.9.2.5-1.3.2h-1.2l-.4 1.1.5.5 1.8-.2v-.4c.6.5 1.2 1 1.9 1.4l-.2.4.8.7 1.4.8 1.7.5-.2-.4c-.5-.7-1-1.4-1.5-2l1.6 1.1.8.4.2-1-.4-1.5-.3-.4-.9-.7-.6-.9.1-.9.8-.2 1 1.5.8.6 1.1-1.8.2-1.1-1-.1-.9-1.4-1-.4-1.5-1.1 1.2-.8zm-14-30 .5 1.6 1.1 1.3 2.2-.2 1.4.4-1 1.4-.5-.4-1.7-.2.3 1.9.9 1.4-.2 1.1-1.1.8-.5 1.2 1 .6.9 1.9-1.7-1.3-.4.2.3 2.1-1.2.6.1 1.3 1.2.1.9.3 1.9-.4 1.6.7 1.7-1.6v-.7l-1.1.1-.1-.6.9-.9.3-1.2 1-.9.6-1.1-.5-1.6.4-.6-.9-.4 1.9-.4.4-.7 1.3-.6 1.1-3 1-1.1 1.5-2.5h-1.4l.6-1 1.5-.9 1.5-2V5l-1-1-1.4-.7c-1.5-.4-2.9-.7-4.4-1.1l-1.8.9-.3-.6-1.9.2-1.1.6-.8.8-.5 2.6-.7-1.3-.8-.3-1 2-1.2.8-.8.1-.9.9.1 1.5zm-5.1 29.9-.4.8-.6.6.9.8.5-.2.9.5.4-.6c-.2-.3-.4-.7-.6-1-.4-.3-.7-.6-1.1-.9m11-6.4.7 1.1.2.1.7-.3c.5 0 .9.1 1.4.1l-.1-.6-1.1-1.2-1.4-.2-.3.1zm-.5 15.8-.7-.5-.7-.5-.4-.4-.3.2-.1-.7h-.5l-.2 1.4-.1 1.2-.5.7.9-.1.2.8.9-.7.6-.8.4.6 1 .3.6-.4-.5-.5-.5.1zm-9.8-16.1-.2-.6-1.1.3-.7-.5-.8 1 .7 1.4-1.3-.3v.7l1.6 1.6.4.8.6.2 1-.8.1-1.8-1-.9zm14.5 56.7-.5-.3h-.5V91l-.4-.1h-.2l-1.2-.9-.6.1-.3-.3-.4-.2h-1l-.2.1-.5.1H54l-.3.2-.1.2-.3.2.3.1.3-.1.1-.2h.3l.5-.4h.6l-.4.3.2.1.8.1.2.1.6.2h.4l.1.4.2.2h.4l.3.2-.4.4.9-.1.4.1h.4l.4-.1zm3.1.8v-.2h-.3l-.1-.2h-.2l-.4-.2h-.5l-.1.1-.5-.1h-.4l-.1.2.4.1v.3l.3.3-.3.1c-.4 0-.7-.1-1.1-.1l-.1.2.3.2.3-.1h.7l.4.1v.2l.2.1.3-.5.2-.1.1.2h.2l.1-.1h.5l.3.1.2-.3-.3-.2zm5.5-21.4-.6 1-1.1.1-.8-.5-.2-.6-.2-1 .6-.6-.6-.5-.9.1-1.3.8-1 1.2-.6.1.7-.9.9-1.3.8-.4.5-.7.7-.1h.9l1.4.2 1.1-.2.8-.8 1-.4c.3-.2.6-.5.9-.7v-1.2l-.3-.4H71l-.3-.9-.4-.3-1-.3-.6-.6-.8-.6.3-.7-1.5-3-.5-1.1-.4.6-.6 1.4-.9.7-.5-.7-.6-.2-.2-1.7v-1.1l-1.1-.1-.2-.5-.8-.8-.6-.5-.5.4-.7-.1-1.1-.4-.4.3.2 2.1.3 1.2-.7 1.3.8.9.4 1 .1.8-.3.8-.7.8-1 .5.4.6.3 1.7-.4.9-.5.3-.9-1-.5-1.2-.2-1.1.1-.9-.7-.1-1-.1-.7-.4-.8-.3-.5-.5-.6-.4-1.2-.5-.9.2-.3-.9-.3-1.1-.9-.2v-1.4l.2-1 .7-1.5.8-1.1.7-.2v-.9l.5-.6.9-.1.7-1 .2-.7.6-1.3.2-.8.7.5.9-.2 1.2-1.1.1-.8-.4-.9.5-.9v-.9l-.8-.9-.9-.3-1-.2v2l-.5 1.5-.7 1.2-.6-1.1.2-1.3-.8-1.1-.8 1.4v-1.8l-1.2-.4.6-.9-.9-2.2-.6-.9-.8-.3-.7 1.4-.1 2.1.7.7.7 1.1-.3 1.7h-.5l-.4 1.3v-1.6l-1-.6-.6.3.1 1.1h-.9l-1 .3-1.1-.8-.7.2-.6-.9-.5-.4-.5.2-.8.1-.4.6.6.7-.7.8-.7-1-.4.3-1.7.2-1.1-.4.9-.8-.9-.9-.6.1-.9-.3-1.5-.7-1-.8-.8-.1-.2.5-.8.3-.1-1.4-.8 1.2-1.1-1.6-.4-.1-.1.9-.5.4-.4-.8-1 .5-1 .8-.9-.2-.8.5-.6.7-.7-.2-1-.9c-.6-.2-1.2-.5-1.9-.7l-1-.6-.8.3-.5-.2-1.2-.2-1.3-.6-.5.4-1-.3v-.4l-1.1-.1-.3.4-.4-1-1-.4-1 1-.6-.1-1.1.9-.6.2-.6.9-.2.9-.8.8H2l-.4.9.9.5.6.8.4.8.8.6.5 1-1.3.1.1-.8h-.5l-1.4.8-.9.6.8.9.3.6.9.4.9-.2.5.3.2-.3.6-.4h.4L5 51l.4.3.1.7-.5.4-.5-.1-.5.6-.4-.2-.6.1-.2.7-.5.8-.3.7.5.6v.7l.5.3.5.6.8-.2.4.4-.1.5.1.7h.4l.6-.5.2.6.2-.4.4.6.3-.4.2.2.7-.4-.2.7-.1.9-.5.4-.1.2-.9.7-.3.5-.8.1-.7.6-.6.3-.7.5.1.2 1.1-.2.5-.4c.4-.2.8-.5 1.2-.7l.4.1.7-.5.2-.5 1-.6.2-.5.6-.4.7-.5.6-.9-.5-.6.9-.9.5-.8.8-.7.2.3-.7.4-.3 1.2.1.7.7-.3.6-.4.7-.3.3-.1-.1-.9.7-.3.8.5 1.2.6.9-.1c.6.2 1.1.5 1.7.7l1.3 1.3.7.3h1l.6.1.3 1.1.8.9.2 1 .6.4.3.4v.6l.8.8.1.8.8.4-.1.6.4.9 1.1.4.5.4 1.2 1h.1l.2.8.1.8-.2.2-.3-.9-.9-.3-.1.2.2.4.2.8.1 1.2c-.1.5-.1 1.1-.2 1.6l-.2.8.2.7v.7l-.1.7.3.5.1.7.5.7.3.3v.2l.5 1.1.6.8.1.4.2.1.6.1.2.2h.4l.1.2.3.1.4.4.1.4.3.7c.3.5.5 1 .8 1.5l.4.2.5.5v.3l-.2.3h-.3v.1l.4.4.4.2.2.2.1-.1c.2.2.5.4.7.5l.1.4v.5l.3.2.5.3.4.4.2.4h.1l.3-.3v-.1c-.2-.2-.3-.4-.5-.6h-.3v-.4c-.1-.2-.2-.4-.4-.6l-.2-.7-.4-.4-.1-.3-.2-.2-.1-.5h-.1l-.1-.2-.1-.1-.1-.2-.5-.5-.2-.3-.4-.2-.1-.4.1-.3.4.2h.2l.5.3v.3l.2.6.3.5v.2c.2.3.4.5.7.7l.3.1.2.5.4.3.3.2-.1.4.1.2.5.3.3.4.6.5.6.7.2.3.1.3.2.3v.2l-.1.2.1.2-.2.1.2.3.3.4.7.4.3.3.6.2h.4l.2.2.5.3.7.3.5.1.6.3.5.1.4.2.3-.1.5-.2h.4l.5.2.3.2.7.7.3.3.3.1h.4l.3.1.2.1h.4l.3.1.2.1h.4l.1-.2.2.1.1.2-.1-.1-.1.1.3.3.3.2.1.2.5.5-.1.1.2.1-.1.2v.2l.1.1.2.1.1.2.1-.2v-.2l.2.1v.2l.2.1.2.1.2.2v.1l-.1.1.1.1.3.1.1.1V99h.3l.2.1h.3l.1.3h.2l.1-.1.1.4h.3l.1-.1.2-.1-.3-.3.1-.1h.1l.3-.2.1-.2h.3l.3.2.1.2h.2l-.2.2.1.3.2.2.1-.3h.2l.1-.2-.4-.1.1-.1-.2-.2-.2-.2-.3-.1H57v-.1h-.3l-.2.2-.4.1-.3.2h-.3l-.2-.2-.1.1h-.3v-.1c-.2-.3-.5-.5-.8-.8l-.2-.3.1-.2v-.2l.1-.2v-.2l.1-.3.1-.1v-.8l.1-.3.1-.2-.1-.2v-.1l.1-.1-.2-.2-.3.1-.2-.1-.2-.1h-.1l-.3-.1-.1.1h-.6l-.1.1-.2.1h-.3l-.3-.1h-.1l-.1-.1h-.2l-.1.1c-.1 0-.2-.1-.3-.1h.2l-.2-.1.1-.2h.1l.1-.2.1-.3v-.1l.1-.2-.1-.1.1-.3v-.2h-.1v-.1h.1l.2.2c.1-.3.2-.5.3-.8l-.1-.1.2-.4.3-.4v-.3l-.2-.3-.4.1H51l-.7.2-.4.1-.1.2-.1.6-.2.4-.4.3c-.3.1-.6.2-.9.2l-.5.1-.6.2-.1-.4-.7-.2-.2-.3-.1-.3-.4-.5-.1-.5-.2-.3-.2-.5.1-.3v-.9l.1-.5.2-.6h-.2.2l-.1-.2v-.8l.1-.3.3-.3.6-.3.6-.5.5-.2.4-.1.5.2.6-.1.5.4h.5l.2-.1.2.1.1-.1-.1-.1V85l-.1-.2.3-.1.5-.1.6.1.7-.1.4.2.3.3h.1l.6-.3.2.1.5.6.2.4-.1.5.1.3c.2.4.4.8.6 1.1l.2.2.1.3.3.1.2-.1.2-.4v-.7l-.3-.8v-.3l-.3-.5-.2-.6-.1-.5.1-.5.3-.4.4-.4.7-.5.1-.3.3-.3h.3l.4-.4.7-.2.4-.6-.1-1.1v-.3l-.2-.1v-.8l-.4-.3.4.1-.2-.4.1-.4.1.7.3.3-.2.5h.1c.2-.3.3-.6.6-.9v-.3l-.2-.1-.1-.4.2.2h.1v.2l.5-.6.1-.6H60l.2-.2v.1h.4l.9-.3-.2-.2-.9.2.5-.2c.2 0 .4 0 .6-.1l.5-.1h.3l.4-.1.1-.2-.2-.2.1.3h-.3l-.2-.6v-.5l.1-.2.3-.5c.4-.2.9-.4 1.3-.6l.7-.4-.1-.3.7-.1h1l-1.1.7v.7l.5.1.7-.6.7-.3 1.4-.5.8-.6-.4-.3zm-17.9-.2-.5.3-.5.2-.4-.3-.6.2V71c.3-.3.6-.5.9-.8l.6-.3.3-.4.4-.1.1-.2.1-.1.6.2h.4l.2.1.2.5.7.1-.1.3.2.3v.4l.3.1c0 .1-.1.2-.1.3h-.2l-.1-.3-.6.1-.7.2-.4-.4-.4-.1.2-.5zm3.2 3.2v-.2l.3-.4.1-.4-.1-.4-.5-.4-.5-.1-.1.3-.1.1-.1.5-.1-.3-.3.2-.2.3-.2.4v.4l.2.5v.6l-.3.4-.1.1-.2.1h-.2l-.1-.1-.2-.4v-.4l-.1-.4c.1-.4.2-.7.3-1.1l.3-.7h-.1l-.2.5-.1-.1.2-.3.4-.6.4-.1.5-.2c.2 0 .3.1.5.1l.6-.1-.3-.4.1-.1.1.2.5.1h.5l.5.1.6.2.2.3.4.7-.2.3-.6-.1-.3-.6.1.6-.3.5v.4l-.1.2-.4.3V74l-.1-.5-.2-.1-.4.4zm2.6 1.2-.5.2-.3.1-.4.2-.5.1h-.3l-.4-.2.2-.3.3.1.5-.3.3-.2h.2l.3.1.2-.1.3-.1.6-.1v.1zm1.8-.9-.5-.1h-.5c-.1 0-.2.1-.3.1h-.2l-.3-.1.2-.3.2-.1c.3-.1.6-.2 1-.2l.3.2.2-.2.2-.1.1.1s0 .1.1.1v.3zm15-4.9-.4.1.2-.7-.6-.3-.3.2-.6-.3.2-.3-.4-.2-.4.3c.2-.5.5-1 .8-1.5l.1-.3h-.3l-.5.3-.4.6-.7 1.6-.5.6.3.3-.5.3.1.3h1.2l.7-.1.6.2-.4.4h.4l.7-.8.2.1-.1.8.4.2h.3l.3-.8-.2-.6zM98.9 9.6 97 8.7l-3.1 1.7-1.6 1.6.7-2.5-.5-1.6-1.2 1.4-1.9-1.6-2.2.5-.3-.8c1.9-.3 3.9-.5 5.8-.7l1.2-1.9L90 .6l-5-.7-2.2.5-.8 2-2.2-.2-2.1 3.1-.1 2 1.5 2.4-1.3-1.4-.9-.4-1.5-1.8-1.7 2.5-.7-1.4h-1.9l-1.9.7-1.5 1.2.3 1.9-.9.4-2.2 2.8L64 16l1.7 1.3-.2 1.3c-1.6 1.1-3.1 2.1-4.7 3.2l-.2 1.2 1.4 1.2 2.7.8-1.3.2-1.6.8 1.1 1.7.7.8c1.1-.1 2.1-.2 3.2-.3l1.3.2 1.7 1.5v1l.8.9c.4 1.3.8 2.7 1.3 4l.4.8-.7 1.9.5.5.6-.3c.5.6 1.1 1.3 1.7 1.9l-1.3-.5h-.6l-.2 1v1.3l.8.6.6-.3c.4-.3.7-.6 1.1-.9l-.1 1.4-.2.7-1 .6-.6 2 .4.6-.3 1.3.9 1.4.1 1.3.3.9 1.1 1.7.4 1.3.6.7h1.3l.9 1 .9-.1c.2-.8.4-1.6.6-2.3l-.3-1.1 1-1.1.3-.9v-1l.5-.9c.6-.2 1.2-.5 1.7-.7l.4-.1 1.4-1.1.9-1.7.7-.6h.7l1.8-.6 1.7-1.4 1.7-1.6c-.8-.1-1.7-.1-2.5-.2l.7-1-.2-1.3c.4.6.9 1.2 1.3 1.9l1.1-.4-.1-1.5-.8-1.2-.9-.5.3-.6 1.2.9v-.9l-.7-1.5h.9l.9-.3.2-.9-.7-.9 1.4-.2-.8-2.1.7-.2-.1-2.2-1.3-1.4 1-.9 1-.1-.8-1.9v-3.4l1.2-4.8-1.5-.2 2-.6.4-.9 2.6-2.9zM47 18.7h1.2l-.5.9v1.2l.7 1.3 1.3.4 1.1-.2 1.2-2.4.9-1-.9-1.2-.5-2.4-2.1-1.5-.8-2.2-1.5.2.3.9-.7.3-.4 1.2-.4 1.7.4 1.6zm-2 4.1.5.7.9-.6.2-1.1-.8-1.1-.4-.2-.8-.1v1.3zM41.1 21l-.6.9 1.4.1 1 1 1 .3-.2-1.3-.5-1.5-1.7-1.2-1.2-.5v1.3zm-9.9 7.6 1.2-1.1.6-.1.5-1 .1-2.2-.9.4h-1l-1.3 1.8-1.1 2 .9.6zm1.4 2.1.9.4 2.9-.3-1.4 1.1.1.8 1-.1 1.6-1 2.1-.4.4-1.2-.1-1.3-.7-.1-.6.4-.2-.9-.2-1.3-.7-.3-.6 1L38 30l-1-.1-1.1-1.5-1.8-.9-.6.7zm-3.4 9.4 1.7-.9v-.9l.8-1.4 1.5-1.5.8-.6-.7-.9-.6-.7-1.6-.2-.9-.5-2.1.4.6 1.4-.5 1.4c-.2.8-.5 1.6-.7 2.4l1.5 1.1z"/></svg>
