<?xml version="1.0" encoding="utf-8"?>
<!-- Generator: Adobe Illustrator 18.0.0, SVG Export Plug-In . SVG Version: 6.00 Build 0)  -->
<!DOCTYPE svg PUBLIC "-//W3C//DTD SVG 1.1//EN" "http://www.w3.org/Graphics/SVG/1.1/DTD/svg11.dtd">
<svg version="1.1" id="Layer_1" xmlns="http://www.w3.org/2000/svg" xmlns:xlink="http://www.w3.org/1999/xlink" x="0px" y="0px"
	 viewBox="0 0 100 100" enable-background="new 0 0 100 100" xml:space="preserve">
<path fill-rule="evenodd" clip-rule="evenodd" d="M84.2,96.9L83.9,97l-0.2,0l-0.1,0.1l0-0.2l-0.1-0.1l-0.3,0l-0.4,0.2l-0.3-0.1
	l-0.7,0.1l0.3,0.7l0.7,0.2l1.5-0.7l0-0.1L84.2,96.9z M51,53.5l0.2,1.1l1.5,1.4l0.9-2.1l-0.5-1.3L51,53.5z M48.5,85.3l0.5-1.5
	l-0.2-1.7l-0.9,0.8l-0.3,0.7l0.3,1.3L48.5,85.3z M27.1,54.7l0.8-1.2l0.5,0.7l-0.5,1.1l0.3,0.7l1.8,0.4c0.3,0.5,0.7,1,1,1.6l-0.2,1.4
	c-0.7-0.1-1.4-0.1-2.2-0.2l-0.3,1.6l0.8,1.3l-1.5,0.7l0.4,0.9c0.8,0.1,1.5,0.3,2.3,0.4L29,64.7l-2.1,2.4l0.8,0.5l1-0.9l1.3,0.3
	l1-1.1l0.7,0.4l2.5-0.6l1.9,0l1.3-1.2l-0.6-1.2l0.7-0.7l0.2-1.5l-1.8-0.5l-0.4-1l-0.9-2.8l-1-0.4c-0.5-1.1-0.9-2.2-1.4-3.3L30.7,53
	l1.3-2.3l0.4-2.2l-1.6,0l-1.5,0.4l1.5-3l-1.7,0.2l-1.2-0.2l-1.1,2.2l-0.5,2.8l0.7,1.3L27.1,54.7z M72.5,96.4l-1.1-0.1l-1.1,0.1
	l-0.8-0.6l-0.3,0.8l1.8,0.3l0,0.3l2.1-0.2l0.2-0.5l-0.8,0.2L72.5,96.4z M68.6,91.8l1.3,0.5l0-1l-0.7-0.5l-0.8-0.9l0.5-0.4l-0.7-0.9
	l-0.3-1.1l0.3-0.4l0.8,1l0.8,0l0.7-0.3l-1-1.1l1.8-0.5l0.8,0.2l0.9,0.1l0,0.4l0.5,0.9c0.6-0.5,1.3-1,1.8-1.6l1.7-0.1l0.3-0.5
	l-1.3-0.6l-0.2-0.7L75.2,83l0.5-1.4l0.8-0.8l0.4-2.4l0.4,0.2l0.7-0.4l0-0.5l1.1-1.5l0.5-1.2l1.3-0.3l0.1,0.8l2.2,0.5l0.4,0.5
	l-1.4,0.7l-0.3,0.4l1.6,0.6l-0.3,1l0.8,0.4l2-1.2l1.6-0.4l0.3-0.7l-1.5,0.1l-0.7-0.5l-0.1-1.3l1.2-0.8l1.4-0.1l1-0.7l1.2-0.2l0-0.9
	l0.7-0.6l1.4-0.2l0.2-0.7l-0.3-1.2l0.6-1.2l0-0.7L91,67.6l-0.8,0l-0.9-1.1l-1.1,0.4l-1.8-0.8l0-0.4l-0.5-1l-1.2-0.1l-0.1-0.7
	l0.4-0.5L84,62l-1.5,0.2l-0.4-0.1l-0.4,0.5l-0.5-0.1l-0.4-1.5l-0.3-0.8l0.3-0.2l1.2,0.1l0.6-0.5l-0.4-0.6l-1-0.4l0.1-0.4l-0.6-0.4
	L79.7,56l0.3-0.7l-0.1-1.2l-1.4-0.6l-0.8,0.3l-0.2-0.6L76,52.5L75.5,51l-0.1-1.3l-0.7-0.6l0.6-0.9l-0.4-2.6l1-1.6l-0.2-0.5l-1.5,0.1
	l-1.6-0.5l-1.8,0.4L69,44.3l0.1,1.6l0.9,1l0.5-0.3c-0.1,1.2-0.3,2.5-0.4,3.7l-1.2,0.1l-1.1-2l-1.4,0.9l-0.7,1.7l-0.1,2L66,55l-2,0.8
	l-0.3,1.1l-1.4,0l-0.1-0.6l-1.4-0.4c-1.4,0.6-2.7,1.3-4.1,2l-1,0.7l-0.7-0.8l-1.6-1l-0.8,0.7L51,58l0-0.9l-1.5-0.6l0-1l-0.4-1.2
	l1-1.9l0.4,0.3l0.4-1l-0.8-0.4L50,50.6l0.4-0.9l0-1.4l-1.2,0.8l-0.5,0.7L47.6,50l-0.4,0.8l-0.2,0.7l0,2.6l0.6,1.4l0.1,1.4l0.3,0.9
	l-1,1.2l-0.3-0.5l-1.2,0.1l-0.3,0.5L44,59.2l-2,1l-1.3,3.5L40,64.3l0,0c-0.8,0.3-1.6,0.6-2.4,0.9l-0.4,1.9l-3.4,1.7l-1.4-1l0.5,2.5
	l-2.4-0.6l-1.9,0.5l0.1,1.6l2.2,0.8l1.1,1.1l1.5,2.2l-0.3,4.1l-0.7,1.2l-2.3-0.1l-1.2,0.1L27.4,81l-1.9,0l-1.8-0.4l-2,1.4l0.6,0.9
	l-0.1,1.4l0.1,0.7l0.3,0.7l0,0.8l-0.3,1.1l-0.1,0.8l-0.6,0.7l-0.1,1.2l0.3,0.7l0.6,0.2l0.1,1.1l-0.2,1.4l0.7-0.2l0.8,0.3l0.6-0.5
	l1.4,0.3l0.4,1l0.5,0.6l0.7,0.1l0.6-0.7l0.9-0.6c1.1,0,2.1,0,3.2,0l1-1.4l1.1-0.4l0.3-1.2l0.8-0.8l-0.6-1.1l0.6-1.5l0.9-1.1l0.1-0.6
	l1.9-0.4l1.4-1.3l-0.1-1.1l0.2-1.2l2.1-0.6l2.9,0.5l1.3-1.1l0.6-0.1l0.8-0.9l0.7-0.3l1.2,0.7l0.7,0.2l0.5,2l1,1.1l1.3,1.3l1.1,0.9
	l1.1,0.1l0.6,0.8l0.9,0.3l0.4,0.8l0.6,0.2c0.3,0.7,0.7,1.4,1,2l-0.3,0.4l-0.3,1l0,0.6l0.6-0.1l0.8-1.6l0.6-0.1l0.2-1l-1-0.7l0.6-1.2
	l1.3,0.3l0.8,0.9l0.3-0.7l-0.1-0.4l-1.2-1c-0.8-0.4-1.6-0.9-2.4-1.3l0.4-0.4l-0.4-0.4l-1.1,0l-1.6-1.6L54.8,81l-1.4-1l-0.5-1
	l0.2-0.6l-0.1-1l1.2-0.7l1.2,0.3c-0.1,0.1-0.3,0.1-0.4,0.2l0,0.7l0.4,0.7l0.4-0.9l0.9,0.3l0,0.7l0.7,0.9l-0.3,0.2l1.2,1.5l1.3,0.6
	l0.8,0.7c0.7,0.4,1.3,0.7,2,1.1l0.4,0.6l0.3,0.2l0.2,0.3l-0.2,0.6l-0.1,1.3l0.1,0.9l0.8,0.6l0,0.4l0.2,0.1l0.1,0.5
	c0.4,0.6,0.9,1.3,1.3,1.9l0.3,1.2l0.5,1.5l1.2,0.8l1,0l-0.5-1.6l0.9-0.2L68.6,91.8z M22.8,63.6l2.6-1.4l1.1-2.1l-0.2-1.7l0.8-1.7
	l-1.6-1.6l-1.2,0.1c-1,1.1-2,2.1-3.1,3.1l0.8,2.5l-1.2,2.5L22.8,63.6z M14.2,21.2l-2.4-0.3l-2.4,1.9l-1.8-1l-2.2,1.9l-2.3-2.4
	L1,21.9l-1,2.3L3,25l0.1,1l-2.6,0.7l3.1,1.7l-1.4,1.5c2,0.5,4,1,5.9,1.5c1.8-0.9,3.6-1.9,5.4-2.9l1.9-2.6l-1.6-2.4L14.2,21.2z
	 M56.5,91.4l-1.5,0.2l-1.7-0.2l-0.2,0.9l2,0.9l0.7,0.2l1.1,0.7l0.3-0.9l-0.2-0.6l0.5-1.4L56.5,91.4z M47.8,86.2L47,86.1l0.3,1.1
	l0.1,2.3l0.5,0.5l0.6-0.6l0.7,0.1l0.2-2.5l-0.9-1.4L47.8,86.2z M43.4,46l2,1.4l1.9-0.6l2.9-3.2l1,1.7l1.1,3.9l1.2,3l0.5,2.4l1.7-0.1
	l0.8-2l1.8,0.3l0.8-2.5l0.6-4.6L61,45l1.3-3.2L61,40.2l-1-2.1l1.1-4.3l2.8-2.8l2.3-2.7l-0.2-2.1l1.4-2.4l2.5-1l2,1.7l0.2,1.5l-1,0.7
	l-3.3,3.6l-1.3,2l-0.7,1.8l0.7,2.8l-0.3,3l1.4,1l0.8,1.6l2.4-0.6l2.5-1.1l2.6-0.2v0c1.5-1.9,3-3.7,4.4-5.6l0.5-1.6l-2.1-2.2l0.6-2.1
	l-1.3-2.5l1-3l-1.7-4.1l1.3-2.8L76.3,14l0.2-2.8l1.2-0.4l2.5-1.6l0,0l-1.6-2.6l1.9-1.1l-4.5-3.2l-2.6,0.9l-2.6-0.2l-2.2,3.6
	l-2.4-0.2l-3.2,1.9c-2.1,2.7-4.2,5.4-6.4,8c-2,4-4,8-6.1,11.9l-2.9,3.4l-3.8,2.7l-1.3,2l0.5,6.9L43.4,46z M99.5,91.2L99,89l1-0.5
	l-0.6-0.6l-1.1-0.5l0.1-0.9l-0.2-0.7l-1.4-0.9L95.3,85l-1.7,1l-1.2-0.2l-1.7,0.3l-2.1-0.7L86.1,84l-2.4,0L82,84.6l-1.7,1.3l-2.8-0.3
	l-0.6,1.5l-2.2,0.1L73.1,89l0.9,0.9l-0.7,1.4l1.1,1l0.9,1.8l1.6,0l1.4,1l1-0.2l0.3-0.7l1.6,0.1l1.2,1l2.2-0.2l1-1l1.2,0.4l0.9-0.2
	L87,94.8l0.5,0.8c0.3-0.3,0.5-0.5,0.8-0.8l0.1-1l0.5,0.4l1.6-0.5l0.8,0.3l1.2,0l1.7-0.7l0.8,0l1.6-0.3l0.6-0.3l1.7,0.2l0.5,0.5
	l0.7-0.3v0l-0.8-1.5L99.5,91.2z"/>
</svg>
