<?xml version="1.0" encoding="utf-8"?>
<!-- Generator: Adobe Illustrator 18.0.0, SVG Export Plug-In . SVG Version: 6.00 Build 0)  -->
<!DOCTYPE svg PUBLIC "-//W3C//DTD SVG 1.1//EN" "http://www.w3.org/Graphics/SVG/1.1/DTD/svg11.dtd">
<svg version="1.1" id="Layer_1" xmlns="http://www.w3.org/2000/svg" xmlns:xlink="http://www.w3.org/1999/xlink" x="0px" y="0px"
	 viewBox="0 0 100 100" enable-background="new 0 0 100 100" xml:space="preserve">
<path d="M30.2,30.6c0.1,0.2,0.2,0.5,0.3,0.7l0.1,0.1c0.1,0.1,0.2,0.2,0.2,0.3l0.1,0l0.1,0l0.1,0.1l0,0.1l0,0.1l0,0l0.1,0.1l0.1,0.1
	l0.1,0.1l0.1,0.1l0.1,0.1l0.1,0l0,0l0,0c0.1,0,0.1,0.1,0.2,0.1l0.1,0.1c0.2,0.4,0.4,0.7,0.5,1.1l0.1,0.4l0,0l-0.1-0.1l0,0l0,0.1
	l0,0.1l0,0.1l-0.1,0l-0.1,0l0,0l0.1,0.1c0.1,0.2,0.3,0.4,0.4,0.6l0,0.1l0,0.1l0.1,0.1l0.2,0.2l0.2,0.1l0,0l0,0l0.8-1.3l0-0.1
	l-0.1-0.1l0-0.1l0-0.1l0.7-2.2l0,0l0,0l0,0l0,0l-0.2,0l0,0l0,0l0-0.1l0,0l0.1,0l-0.1-0.2L34.5,31l-0.3-0.4L34,30.5l-0.2-0.2
	l-0.1-0.1l-0.2-0.2c-0.2-0.1-0.3-0.2-0.5-0.3l-0.1-0.1l-0.1,0l-0.1,0.1l-0.2,0.2l-0.1,0.2l0,0l-0.1,0L32.2,30l-0.1-0.1l0-0.1
	l0.2-0.4l-0.1-0.1l-0.1-0.2L32.2,29c-0.1-0.1-0.1-0.1-0.2-0.1l-0.1,0l-0.2-0.1l-0.2,0l-0.2,0l-0.2,0l-0.4,0.1l-0.2,0.1l-0.1,0.1
	l-0.2,0.2l-0.1,0.1l-0.1,0.2l0,0.1L30,30.3C30.1,30.4,30.1,30.5,30.2,30.6z M31.4,38l0.2,0.1l0.1,0l0.2,0l0.2-0.1l0.4-0.4l-0.1-0.2
	c-0.1-0.1-0.1-0.2-0.2-0.3L32.1,37c-0.2-0.1-0.4-0.2-0.6-0.4l0,0l-0.1-0.1l-0.1-0.1l0,0l0,0l-0.1,0l-0.1,0L31,36.4l-0.2-0.1
	c-0.1-0.1-0.1-0.1-0.2-0.2l-0.2-0.1l-0.2,0.2l0,0.2l0.1,0.1l0,0.1l0.1,0.1l0.1,0l0,0l0,0.2l0.1,0.1l0.1,0.1l0.2,0l0.1,0l0.1-0.1
	l0.1,0.1l0,0.1l-0.1,0.2c-0.2,0.4-0.4,0.8-0.6,1.2l-0.1,0l0,0l-0.2-0.1l-0.1,0l0,0l0,0l0,0l0,0.1l0.1,0.1l0.1,0l0.1,0l0.2-0.1
	c0.3-0.1,0.6-0.2,0.9-0.3l0,0l-0.1-0.1l0,0l0-0.1L31.4,38L31.4,38z M26.6,38.6l0.1,0.2l0,0.1l0.1,0.3l0,0l0.2,0.4l0.1,0.1l0.2,0.2
	l0.4,0.2l0.1,0l0.1,0l0.1,0l0.1,0l0,0l0.1-0.1l0.1-0.2l0-0.1l0-0.1l0-0.2l-0.2-0.1l-0.2,0c-0.1-0.1-0.3-0.2-0.4-0.3
	c-0.3-0.4-0.5-0.7-0.8-1.1l-0.2-0.2l-0.1-0.1l-0.1-0.2l-0.1-0.1l-0.1,0l-0.1,0.1l0,0.2L26.6,38.6z M100.6,57.6L100.6,57.6l-0.3-0.1
	L99.9,57l-0.1-0.3l0-0.4c-0.1-0.3-0.1-0.5-0.2-0.8l0-0.5l0.3-0.1l0.1-0.1l0.1-0.1l0.1-0.2l-0.2-0.5l0.1-0.3l0.2-0.2
	c-0.1-0.2-0.1-0.4-0.1-0.6c0-0.3,0-0.5,0-0.8l0.2-0.2l0.1-0.1l0.1-0.2l-0.1-0.2l-0.2-0.3l-0.1-0.2l0-0.1l0.1-0.2l0.1-0.3l0-0.2
	l-0.1-0.3c0-0.1,0-0.1,0.1-0.2l0.1-0.1l0.1-0.2l-0.1-0.3l-0.1-0.2l-0.1-0.5l-0.3-0.4l-0.1-0.2L99.9,47l0-0.3l0-0.2l0-0.3l-0.1-0.4
	l0.1-0.3l-0.4-0.8l-0.1-0.1l-0.1-0.2l-0.1-0.5L99,43.6l0-0.2l0.1-0.3l0-0.3l0-0.2l-0.3-0.3l-0.1-0.2l-0.4-0.3l-0.4-0.1l0-0.1
	l-0.1-0.5l-0.2-0.3l0-0.2c-0.4-0.7-0.8-1.4-1.3-2.1l-0.2-0.2l-0.3-0.2L95.6,38l-0.5,0l-0.3-0.1l-0.3-0.1L94,37.7l-0.3-0.2l-0.1-0.3
	L93.3,37l-0.4-0.2l0-0.2l-0.2-0.1l-0.3,0L92,36.5l-0.1-0.1l0-0.2l-0.2-0.4c0.1-0.2,0.1-0.4,0.2-0.5L91.7,35l-0.1-0.2l-0.4-0.1
	l-0.2-0.1l-0.3,0l-0.3,0.1c-0.2,0-0.3-0.1-0.5-0.1l-0.2-0.1l-0.2-0.2l-0.2,0c-0.3,0-0.5,0-0.8,0l-0.3,0l-0.4,0.1l-0.2,0l-0.1,0
	l-0.2,0l-0.3-0.2l-0.1-0.1l-0.2,0l-0.3-0.1L86.1,34c-0.2,0-0.4,0-0.6-0.1l-0.1-0.1l-0.1-0.1L85,33.3l-0.3-0.1l-0.2,0l-0.3,0.2
	l-0.3,0.1l-0.2-0.1l-0.4-0.1l0-0.2l0-0.2l0-0.1l0.1-0.1l0.3,0l0.1,0c0.7-0.1,1.3-0.3,2-0.5c0.3,0,0.6-0.1,1-0.1l0.4,0l0.3,0.1
	l0.1,0.1l0.2,0.1l0.2,0l0.1,0l0.7,0l0.2-0.1l0.3-0.1l0.2-0.1l0-0.1l-0.2-0.1l-0.1-0.1L89,31.3l0.1-0.3l0-0.3c0.2,0,0.3,0,0.5,0.1
	l0.4,0.1l0.1,0l0.2,0.1l-0.1,0.2l0.1,0.2l0.1,0.1l0.1,0.1l0.2,0l0.2-0.1l0.1-0.1l0-0.2l0.1-0.1l0.2-0.1l0.1,0.1l0.1,0.2l0.1,0.1
	l0.1,0l0.2-0.1l0.2-0.2l0.2,0l0.1-0.1l0.2-0.1l0.3,0.1l0.2,0.1l0.2,0l0.1-0.1l0.2-0.2c0.1-0.1,0.3-0.2,0.4-0.3l0.4-0.1l0.2-0.2
	l0-0.1l-0.2-0.1L94.4,30l-0.2-0.4l0-0.2l-0.1-0.5l0-0.3l-0.2-0.5c-0.1-0.5-0.3-1.1-0.4-1.6l-0.1-0.6l-0.1-0.2l-0.2-0.3L93,25.2
	l-0.3-0.2l-0.1-0.5l-0.3-0.7l0-0.3l0-0.5L92,22.7l-0.2-0.1l-0.2-0.3l0.2-0.7l-0.1-0.4l0-0.3l0-0.2l0-0.2l-0.2-0.2l-0.2-0.3l-0.1-0.1
	L91,20l-0.3,0l-0.2-0.1l-0.1-0.3l0.7,0.2l0.2-0.1l0.1-0.1l0-0.2l0.1-0.2l0.1,0.1l0,0.2l0.1,0.3l0.1,0.1l0.3,0l0.2-0.3l0-0.2L92.3,19
	c0.1-0.3,0.1-0.6,0.2-0.8l0-0.2l0-0.2l-0.1-0.3l-0.6-1l-0.5-0.4l-0.4-0.4l-0.4-0.3l-0.2-0.1L89.5,15l-0.3-0.2l-0.3-0.1l-0.3,0.2
	l-0.2,0.2l0,0.2l-0.2,0.2l-0.3,0.4l-0.1,0l-0.1-0.2l-0.2-0.2L87.5,15l0-0.3l-0.2-0.3l-0.4-0.1l-0.1,0.3l0,0.1l0.1,0.1l0.1,0.2
	l-0.3,0.1l-0.5,0L86,15.2l-0.3,0.3l-0.3,0.1l-0.2,0l0.1-0.1l0.2-0.2l0.1-0.2l-0.1-0.2l-0.2-0.1l-0.1-0.1l0-0.2l0-0.3l0.2-0.1l0.2,0
	l0-0.1l-0.1-0.1l0-0.3l-0.2-0.2l-0.1,0l-0.2,0.1l-0.1,0.1l0,0.2l-0.2,0.1l-0.2-0.1l-0.2-0.2l-0.3-0.1l-0.2-0.2l-0.2-0.1l-0.4,0
	l-0.3-0.1l-0.1-0.1l-0.5-0.2l-0.3-0.2c-0.1,0-0.2-0.1-0.3-0.1l-0.6,0.1l-0.5-0.2l-0.4-0.1l-0.2,0l-0.4,0.1l-0.2-0.1l-0.3,0l-0.2,0
	l-0.2,0.1l-0.3,0.3L78.2,13l-0.4,0.2c-0.2,0.1-0.5,0.2-0.7,0.3l-0.2,0.1l-0.1,0.2l-0.1,0.1l-0.1-0.4l0.1-0.6l-0.1-0.3l-0.1-0.1
	l-0.2,0l-0.2,0l0-0.3l0-0.2L76,11.8l-0.2-0.1l-0.2-0.1l-0.3-0.2l-0.2-0.1l0-0.1l0.1-0.3l0.1-0.7l0-0.2L75,9.8l-0.1-0.1l0.1-0.2
	l0.1,0l0.2-0.1l0.2-0.1l0.1-0.2l-0.2-0.2l-0.2-0.2l-0.3-0.1l-0.3,0l-0.2,0.1L74.1,9L74,9.4l0,0.3L73.8,10l-0.1,0.2
	c-0.2,0.1-0.3,0.3-0.4,0.4L73,10.7l-0.1,0l-0.3,0L72,10.7l-0.2-0.1l-0.2,0L71,10.3l-0.5,0L70,10.4l-0.4,0l-0.5-0.1l-0.2,0l-0.3,0.1
	l-0.2,0l-0.1,0l-0.2,0l-0.4-0.1l-0.2-0.2l-0.3-0.2L67,9.6l0-0.2l0-0.3l0.1-0.3l0-0.2L67,8.5l-0.1-0.1l-0.2,0.3l-0.3,0.2L66,9l-0.1,0
	l-0.3-0.3l-0.1-0.1l0-0.1l0.2-0.1l0-0.2l-0.1-0.2l-0.1-0.3l-0.1-0.1l-0.1-0.1l-0.4,0.4c-0.2,0.2-0.3,0.4-0.5,0.6l-0.7-0.1l-0.1-0.1
	l-0.2-0.1l-0.2-0.1l-0.1-0.1l0-0.2l0-0.3l0.2-0.3l0.2-0.4l-0.1-0.2l-0.1-0.1l-0.2,0.1l-0.2,0L63,7l-0.2,0.2l-0.1,0
	c-0.3-0.2-0.6-0.4-0.9-0.6l0-0.4L61.8,6l-0.3,0l-0.2,0.2l-0.2,0L60.8,6l-0.4-0.1l-0.5,0l-0.2-0.2l-0.1-0.2l-0.1-0.4l-0.3,0l0,0.1
	l0.1,0.1l0.1,0.1l0,0.1L59,5.6l-0.2,0.1l-0.1,0.1l-0.3,0.3l-0.2,0.2l-0.1,0l-0.3-0.2l-0.2-0.1l-0.5-0.5L57,5.4l-0.2-0.3l-0.3-0.2
	l-0.3,0.4l-0.2,0.1l-0.2,0L55.3,5l-0.2,0.3l-0.3,0l-0.3,0.1c-0.3,0-0.7,0-1,0l-1.2,0.3l-0.7,0.1L51,6.1l-0.3,0.2l-0.5,0.3L50,6.6
	l-0.3,0.3l-0.2,0.3l-0.1,0.2l-0.1,0.2l-0.2-0.2l-0.1-0.2l0-0.4l-0.1-0.2l-0.1,0l-0.1,0.2l-0.1,0.1L48.2,7l-0.2-0.2l-0.2-0.1l-0.1,0
	l-0.3,0.1L47,6.9l-0.2-0.1l-0.2,0l-0.1,0L45.4,7l-0.1,0l0-0.1l0-0.2l0.1-0.2l0.1-0.2l0.1-0.2l-0.1-0.2l-0.2-0.1l-0.2,0.1l-0.2,0.2
	L44.7,6l-0.1,0l-0.3-0.1L44.1,6l-0.1,0L44,6.2l0,0.1c0.1,0.1,0.2,0.2,0.2,0.4l0,0.2l0,0.2l0,0.5l-0.1,0.2L44,7.8l-0.2,0.1l-0.1,0
	l-0.3-0.6L43.1,7L43,6.9l-0.1,0l-0.2-0.1l-0.2-0.2l-0.1,0l0,0.1l0,0.1l0.2,0.1L42.5,7l-0.1,0.2l-0.1,0.1l-0.1,0.1l0,0.3L42.1,8L42,8
	l-0.2-0.1l-0.1-0.1l-0.3-0.2l-0.2-0.1l-0.1,0l-0.1,0.1L41,7.8L41.1,8l0.1,0.2l0.4,0.2l0.3,0.1l0.1,0l0.1-0.1l0.1,0.1l0,0.2L42.1,9
	c0,0.3,0,0.6-0.1,0.9L41.9,10l-0.2,0.2l-0.4,0.4l-0.2,0.4L40.9,11l-0.2,0l-0.2,0l0,0.1l0.1,0.1l0.2,0.3l0,0.2l-0.1,0.1l-0.5,0
	l-0.3,0.2l-0.1,0.2l-0.1,0.4l0,0.1l-0.1,0.1l0,0.3l0,0.2l0.1,0.1l0.2,0l0.1,0.1l0,0.1l-0.1,0.1l0,0.1l0.1,0.1l0.3,0l0.3-0.2l0.4-0.2
	l0.1,0.2l0,0.1l-0.2,0.4l0,0.3l-0.1,0.2l-0.1,0.1l-0.5,0l-0.2,0.1l-0.2,0l-0.2,0.1l0,0.1l-0.1,0.7l0,0.4l0,0.3l-0.1,0.2l0,0.1l0,0.3
	l0.1,0.2l0.1,0.1l0.1,0l0.1,0.1l-0.1,0.1l-0.1,0.1l-0.3,0.3l-0.5,0.1L38.5,18l-0.1,0.1l-0.2,0.2L38,18.4l-0.3,0l-0.3,0.3l-0.5,0.3
	l-0.7,0.8c-0.1,0.2-0.2,0.4-0.3,0.6l-0.2,0.3l-0.2,0.2l-0.3,0.4L35.1,22L35,22.2l0,0.3l-0.2,0.8l0,0.3l-0.2,0l-0.1,0.1l-0.1,0.5
	l-0.1,0.1l-0.1,0.3l0,0.2l0.2,0.4l0,0.2l-0.1,0.1l0.1,0.5l0.3,0.9l0.2,0.3l0.2,0.3l0.2,0l0.2,0.1l0.2,0l0.4,0l0.6-0.1l0.1-0.1
	l0.3-0.4l0.1-0.1l0.1-0.1l0.2,0l0.2,0.2l0.2,0.3l0.2,0.2l0,0c0.7-0.2,1.3-0.4,2-0.6l0-0.1l0.1,0l0.1,0.1l0.3,0l0,0.2l-0.1,0.2l0,0.1
	l-1.6,1.1l-0.1,0.1l0,0.1L38.9,29l-0.2,0.2l0.1,0.3l-0.1,0.1l-0.2,0.1l-0.1,0.2L38.4,30l-0.1,0l0,0.1c-0.1,0.2-0.3,0.4-0.5,0.6
	l0.1,0.2l0,0.2l0,0.2l0,0.1l0,0.1l-0.1,0.1l0,0.2l-0.4,0l-0.3,0l-0.1,0.5l0,0.4l-0.1,0.1l0,0.1l0,0.2l0.1,0.2l0.2,0.4l0.1,0.4
	l0.2,0.5l0.3,0.5l0,0.2l-0.1,0l0,0.1l0,0.2l-0.1,0.2L37.9,36l-0.2,0l-0.2-0.2l-0.1-0.2l-0.1-0.2l-0.2-0.2L37,35.2l0,0.1l-0.1,0.1
	l-0.1,0.1l-0.2,0l-0.2,0.1l-0.2,0.5l-0.1,0.2l0,0.2l0,0.2l0,0.3l0,0.1l-0.1,0.1l0,0.1l0,0.1l0,0.1l0.1,0.3l0.1,0.4l-0.1,0.1l0.1,0.2
	l0.1,0.1l0.2,0.5c0.2,0.4,0.6,0.8,0.9,1.2l-0.1,0.1l-0.1,0.1l-0.1,0.1L37,40.4l-0.1,0l-0.1-0.1l-0.1-0.1l-0.1-0.1l-0.2-0.1l-0.2-0.1
	l-0.1,0l0.1,0.2l-0.1,0L35.8,40l-0.2,0c-0.1,0-0.3-0.1-0.4-0.1l0-0.1l0-0.2L35,39.1l-0.1-0.2l0,0l0,0l0,0.4l-0.1,0.2l0,0.3l0,0.1
	l0.1,0.2l-0.1,0.1l-0.1,0l-0.1,0l0,0.1l0,0l-0.2,0l-0.3-0.2l-0.1,0l-0.1,0l-0.1,0l-0.1-0.1l0,0l0.1-0.4l0-0.2l-0.2-0.1l-0.1,0.2
	c0,0.1-0.1,0.1-0.1,0.2l-0.1,0l0-0.2l0-0.1l0.1,0l0-0.1l0.1-0.1l0-0.1l0.1-0.2l0-0.1l0-0.1l-0.1,0l-0.1,0l-0.2,0.3l-0.2,0.3
	l-0.2,0.2l-0.9,0.5l-0.1,0l-0.1,0l-0.1,0l-0.1,0.1l0,0.2l-0.1,0.1l0,0l-0.1,0l-0.2,0l-0.3,0l-0.2,0l-0.1,0l-0.1,0.1l0,0.1l0.1,0.1
	l0.1,0.3l0.1,0.2l0.1,0.2l-0.1,0.1l-0.2,0.1l0,0.2l0.1,0.1l-0.1,0.1l-0.1,0c-0.1,0-0.3,0-0.4,0c-0.2,0-0.3,0-0.5-0.1l-0.1,0l-0.1,0
	c-0.2,0-0.3,0-0.5,0l0,0.1l0,0.2l-0.1,0.4c-0.1,0.2-0.3,0.3-0.5,0.5l0.1-0.4l0.1-0.4l0-0.2l-0.1-0.1l-0.1-0.2l-0.2-0.1l-0.4-0.2
	l-0.3-0.1l-0.2,0L27,41.9L26.7,43l-0.1,0.3l0,0.1l0.1,0l0.2,0l0.2,0.1l0,0.1l0,0.1l-0.2,0.1l-0.2,0l-0.3,0.1l-0.1,0l-0.4,0.3
	l-0.2,0.1l-0.1,0.1L25,44.5l-0.2,0l-0.2,0l-0.1,0l-0.1-0.1l0.1-0.1l0-0.1l-0.1,0l-0.2,0.1L24,44.5l-0.2,0l-0.2,0
	c0.3-0.2,0.7-0.3,1-0.4l0.4-0.3l0.5-0.4l0.2-0.2l0-0.2l-0.1-0.5l0.1-0.4L25.5,42l-0.2-0.1l-0.3-0.1L25,41.9L24.9,42
	c-0.4,0.5-0.8,0.9-1.3,1.4l-0.1,0.1l0-0.2l-0.1-0.1l-0.1-0.1l0.1-0.2l0.1-0.2l0.4-0.8l0.4-0.5l0.4-0.4l0.1-0.2l0-0.4l-0.2-0.3
	l-0.1-0.2L24,39.4l-0.2-0.1l-0.2,0.2l-0.3,0.5l-0.1,0.4l-0.2,0.1l-0.2,0.1l-0.2,0.1c-0.3,0.1-0.7,0.1-1,0.2l-0.3,0l-0.1-0.1l0-0.5
	l0-0.1l0.1-0.1l0-0.1l0-0.1l0-0.1l0.4-0.6l0-0.2l0.1-0.4l0.3-0.4l0.1-0.4l0-0.2l0-0.2l0-0.1l-0.2-0.2l-0.2-0.4l-0.1-1.1l0-0.6l0-0.3
	l-0.1-0.4l0-0.2c0-0.2-0.1-0.5-0.2-0.7l-0.1-0.5L21.3,33l-0.1,0l-0.1,0.1L21,33.1L21,33.3l-0.1,0.1l-0.1-0.3l0-0.2l0-0.2l-0.1-0.1
	l-0.2,0l-0.1,0.1L20.4,33l-0.1-0.1l0-0.1l0-0.1l0.1-0.1l-0.1-0.1l-0.2-0.1l-0.2-0.1l0-0.1l0.1-0.1l0.1,0l0.3,0.1l0.2,0l0-0.1
	l-0.1-0.2l-0.1-0.1l-0.1,0l-0.4,0l-0.1,0l-0.1-0.1l0.1-0.1l0.1,0l0.2-0.1l0.1-0.1l0-0.2L20,30.7l-0.1-0.1l-0.1,0l0,0.2l0,0.1
	l-0.2,0.2l-0.1-0.1l0-0.1l0.1-0.2l-0.1-0.2l-0.2,0l-0.1,0.1L19,30.9l0-0.1l-0.1-0.1l0-0.1l0-0.1l0.2,0l0-0.1L19,30.2L18.7,30
	L18.5,30l-0.2,0l-0.2,0.1l0,0.2l-0.3-0.1l-0.2-0.1l-0.1,0l-0.2,0l0.1-0.1l0.1-0.1l0.2,0l0.2,0l0-0.1l0-0.2l-0.1-0.1l0.1-0.1l0.2-0.1
	L18,29l-0.3-0.2l-0.2-0.1l0,0.1l0.1,0.1L17.5,29l-0.4-0.1l-0.3-0.2l-0.1,0.1l0,0.2l-0.3,0.1L16.2,29l0.1-0.1l0-0.2l-0.1-0.1
	c-0.2-0.1-0.4-0.2-0.6-0.3l-0.1,0l0,0.1l0,0.1l0,0.1l-0.1,0.1l-0.1,0.1L15.3,29l-0.2,0.2L15,28.8l0-0.2l0.1-0.4L15,28L14.8,28
	l-0.2,0L14.6,28l0.1,0.3l-0.1,0.1l-0.1,0.1l0-0.1l0-0.1l-0.2-0.3l0-0.1l-0.1-0.1l-0.1-0.1l0-0.1L14,27.5l-0.2,0l-0.4,0l-0.3-0.1
	l-0.1,0.1l-0.1,0.1l0,0.2l-0.2,0l-0.1-0.1l0-0.1l0-0.1l-0.1-0.1l0-0.1l-0.2-0.1l-0.2,0.3l-0.2,0.1l-0.2,0l-0.1-0.1l0-0.1l0.2-0.1
	l-0.1-0.1L11.6,27l-0.3,0.1L10.9,27l-0.5-0.2l-0.3,0l-0.3,0.1l-0.1,0.1l-0.2,0l-0.3,0L9,27l-0.2-0.1l-0.2-0.2l-0.1,0l-0.2,0.2
	l-0.1,0L8,26.7l0-0.4l0-0.2l0.1-0.1L8,26l-0.1,0.1l-0.1,0.1l-0.1,0.5l0,0.1l0.1,0.3l0.2,0.1l0.2,0l-0.2,0.2l-0.3,0.3l-0.2,0.1
	l-0.1,0l-0.1-0.2l0-0.1l-0.1-0.1l-0.1,0L7,27.7l-0.1,0.1l-0.1-0.1l-0.1-0.5l-0.1-0.1l-0.1,0l-0.1,0l0,0.1l0.1,0.3l0,0.1l-0.1,0.1
	l-0.1,0.1l-0.1-0.1l0-0.1l-0.2,0l-0.1,0l-0.1-0.1l0,0l-0.2-0.2l-0.1,0l-0.1,0l-0.1,0L5.2,27L5,27L5,26.9l0-0.1l0.1-0.1l0-0.1l0-0.2
	l-0.1,0l-0.1,0l-0.1,0.1l0-0.1l0-0.1l0-0.1l-0.1,0l-0.2-0.1l-0.1-0.1c-0.1-0.1-0.2-0.2-0.3-0.2l0-0.1l0.1,0l0.1-0.1l0.3-0.2l0-0.2
	l0-0.1l-0.1-0.1l-0.1,0l-0.3,0.1l-0.1-0.1l0-0.1L4,24.9l-0.1-0.2l0-0.1l-0.1,0l-0.1,0l0-0.2l0.1-0.1l0.1-0.1l0.2,0l0.3,0l0.5,0
	l0.1,0l0-0.1l-0.2-0.1l-0.2,0l-0.1-0.1l0,0l-0.1-0.1l-0.2,0l-0.1,0l-0.1-0.1l0-0.1l0-0.1L4,23.3l0.1-0.1l0.3-0.1l0.2,0.1l0.1,0
	L4.5,23l-0.2-0.1l0-0.1l-0.1-0.2l0.1-0.1l0.2-0.1l0.2,0.1l0.1,0l-0.1-0.1l-0.1-0.1l-0.2,0l0-0.1l0-0.1l0.1,0l-0.1-0.2l-0.1-0.1
	l-0.1,0l-0.1,0.2L4.1,22l0,0.1l0.1,0.1l0,0.1l-0.1,0l0,0.1l0.1,0.2l-0.1,0.2l0,0.1l0,0.2L4,23l-0.2,0l-0.3,0L3.3,23l-0.1-0.1
	l-0.1-0.1L3,22.5l0.1-0.2l-0.1,0l-0.1,0.1l-0.2,0.1l-0.3,0l-0.1-0.1l-0.1-0.1l0-0.1l0.1,0l0.1-0.2l-0.1-0.1l-0.4,0L2,21.6l0-0.1
	l0.1-0.1l0.1,0l0.1-0.1l0-0.3l-0.1-0.2L2,20.5l0-0.1l0-0.2l-0.1-0.1l0-0.1l-0.1-0.4l0.1-0.1l0.1-0.1l0.2,0.1l0.1,0l-0.1-0.1L2,19.3
	l-0.1-0.1l0-0.1l0.2,0L2.2,19l0.1-0.1l0.2,0l0-0.1l-0.2-0.1l-0.1,0l-0.1,0l0-0.1l-0.1-0.1L2,18.6l-0.1,0l-0.1,0l-0.1-0.1l0.1-0.1
	c-0.1-0.2-0.2-0.4-0.3-0.6l-0.1-0.4l0-0.5l0-0.1l0-0.2l0-0.1l0.1-0.2l0.1-0.1l0.1,0l0.1,0.1l0.1,0l0.1-0.1l0.1-0.1L1.9,16l-0.2,0
	L1.4,16l-0.2-0.1l-0.1,0l-0.1,0.2l-0.1,0.5l0.1,0.4l-0.1,0.5l-0.1,0.2L0.8,18l0,0.2l0,0.4l-0.1,0.5l-0.1,0.3l0,0.7l0,0.1l0.1,0
	L1,20.4l0,0.1l0,0.3l0.1,0.1L1.3,21l0.1,0.2l0,0.1l0,0.1l0.1,0.3l0,0.1l-0.1,0.1l-0.2,0L1,22l0.2,0.2l0.2,0l0,0.1l-0.1,0.1l0,0.4
	l0.2,0.1l0.1,0l0.1,0.1L1.6,23l-0.1,0l-0.1,0.2l-0.2,0.2l0.1,0.2l0.1,0.2l0.2,0.1L1.8,24L2,23.9L2,23.9l0.1,0.1l0,0.1l-0.1,0.2
	l0,0.1l0.1,0.1l0,0l-0.1,0.2l0.1,0l0.1,0l0.1,0.1l0,0l-0.1,0.1l0.1,0.1l0.1,0l0.1-0.1l0.1,0L2.7,25l-0.1,0.1l-0.2,0.2l0,0.1l0,0.2
	l0.2,0l0.1,0l0,0.1l-0.1,0.1l0,0.1l0.2,0.2l0,0.1l0.1,0l0.2,0l0.3,0.2l0.1,0.1l0,0.1l0,0.1l-0.2,0.1l0,0.1l0,0.1l0.1,0.2l0.1,0.1
	l0.3,0.1l0.1,0.1l0.1,0.1l0.2,0.1l0.1,0l0.3,0.1l0.1,0.1l-0.1,0l-0.1,0l0,0.1l0.1,0.1l-0.1,0l-0.1-0.1l-0.1,0l-0.3-0.1l-0.1,0l0,0.1
	l0.2,0.2l0,0.1l0,0.1c0.2,0.1,0.4,0.2,0.6,0.3l0.1,0l0.1,0l0,0l0-0.3l0.1-0.2L4.9,28L5,28l0,0.1l0.1,0.2c0.1,0.1,0.3,0.2,0.4,0.3
	l0.2,0.1l0.3,0l0.2-0.1l0.1,0.1l0.3,0.2l0.2,0.2l0.2,0l0.2,0.1l-0.1,0.1l0.2,0.1l0.3-0.1l0.2-0.1L8,29.6l0.1,0.2L8.3,30l0.2,0.1
	l-0.4,0.5l0,0.3l0,0.1l0,0.1l0.2,0l0.3,0l0.3,0.1l0.4,0.2c0.3,0,0.6,0,0.9,0c0.5,0.1,0.9,0.1,1.4,0.3l0.4,0.2l0.5,0.2
	c0.2,0,0.4,0,0.7,0l0.2,0l0.4,0.1c0.3,0.2,0.6,0.5,0.9,0.7l0.4,0.4l0.1,0.3l0.1,0.6l0,0.3l0,0.5l0,0.2l-0.2,0.4l0.1,0.3l-0.1,0.1
	l0,0.2l0,0.3l0,0.2l-0.1,0.1l0.3,0.8l0,0.1l0,0.1l0,0.2L15.4,38l-0.1,0.1l-0.1,0.1l0.1,0.2l0,0.2l0.1,0.3l-0.1,0.3l0,0.1l0,0.1
	l-0.1,0l-0.2-0.1l-0.3-0.2l-0.2,0l0,0.2l-0.1,0.2l0,0.3l0,0.2l0,0.2l-0.2,0.2l-0.4,0l-0.5,0.3l-0.2,0.2L13.3,41l-0.1,0.2l0.1,0.1
	l0.2,0.1l0.3-0.1l0.2,0l0.2,0l-0.5,0.4l0,0.1l0.1,0.1l0.3,0l0.3,0l0.2,0.1l0.1,0.2l0.1,0.4l-0.3,0.4L14.5,43l0,0.3l-0.1,0.1
	l-0.2,0.2l-0.1,0.2l-0.1,0.2l-0.2,0.2l-0.3,0.2l-0.2,0.1l0,0.1l0.3,0.4l0,0.1l0,0.2l-0.4,0.2l0,0.1l0.1,0.2l-0.1,0.2l0,0.1L13,46.4
	l-0.4-0.2l-0.2-0.1l-0.2,0l-0.2,0.2l0,0.2l0,0.2l0.3,0.1l0.1,0.1l0,0.1l0,0.2l0.2,0.1l0,0.1l0.1,0.1l0.3,0l0.3,0.1l0.2,0.3l0,0.2
	l-0.3,0.7l0,0.4l0.1,0.6l0.2,0.2l0.1,0.2l-0.1,0.2l0,0.3l0,0.1l0.1,0.2l0.1,0.2l0.1,0.2l0,0.2l0,0.2l-0.1,0.2l-0.1,0.4l0.1,0.1
	l-0.1,0.1l-0.1,0.1l0,0.1l0.1,1l0.1,0.3l0,0.2l0,0.2l0.1,0.3l0.1,0.2l0,0.1l0,0.1l0,0.2l-0.1,0.1l-0.1-0.1l-0.2,0l-0.1,0.1l0,0.1
	l0,0.2l0,0.2l0.1,0l0.1,0.1l0.3-0.1l0.5-0.3l0.2-0.2l0-0.2l-0.1-0.5l0-0.2l-0.1-0.2l0-0.5l0.1-0.3l0.1-0.3l0.1-0.2l0.1-0.2l0.1,0.2
	l0,0.1l0,0.1l0.1,0.1l0.1,0.1l0.2,0.6l0,0.2l0,0.1l-0.1,0.1l0,0.2l0,0.2l0,0.1l0,0.2l0.1,0.2l0.3,0l0.2-0.1l0-0.2l0-0.2l0.1-0.3
	l0.1-0.1l0.5-0.3l0.3-0.1l0-0.1l0.1-0.1l-0.1-0.2l0-0.2l0.1-0.1l0.3-0.1l0.4,0.1l0.1,0.1l0.1-0.1l0-0.1l-0.1-0.2l0-0.1l0.2-0.3
	l0.1-0.3l0.1-0.1l0.2,0l0.1,0l0,0.1l0,0.3l0.2,0.3l0,0.2l0.1,0.1l0.1,0.2l-0.1,0.2l-0.3,0.2L18,53.9l0.1,0.6l0,0.2l0.1,0.2l0.2,0.2
	l0,0.2l0.1,0.2l0,0.2l0.2,0.2l0.5,0.6l0,0.2l0.1,0.2l0.1,0.3l-0.1,0.3l0,0.3l0,0.3l0.2,0.4l0.2,0.6l0.1,0.1l-0.2,0.1L19.1,59
	l-0.3-0.1l-0.3,0l-0.4,0.1l-0.3,0.2l-0.1,0.2l0,0.1l0,0.2l-0.1,0.1l0.1,0.2l0,0.1l0.2,0l0.2-0.1l0.2-0.1l0.2,0l0.2-0.1l0.2-0.2
	l0.1,0l0.1,0.1l0.1,0.1l0.3,0.4l0.2,0.2l0.1,0.1l0.1,0.1l0,0.1l-0.1,0.1l-0.2,0l-0.4,0.1l-0.1,0l-0.2,0l-0.3-0.1l-0.1,0.1l0.1,0.1
	L18.5,61l-0.3,0.1L18.2,61l-0.1,0l-0.1,0.1l-0.1,0.6l0,0.2l0.2,0c0.3-0.1,0.7-0.2,1-0.3l0.1,0l0.2,0.7l0.2,0.3l0.1,0.5l0.1,0.3
	l0.1,0.2l0.1,0l0.2,0l0.3,0.1l0.1,0.1l0.7,0.8l0.8,1.1l0.1,0.2l0.3,0.5l0.4,0.4l0.1,0.4l0.3,0.4L24,68l0.1,0.1l0.3,0.2l0.1,0.2
	l0.1,0.4l0.3,0.4l0.1,0.2l0.2,0.1l0.3,0.2l0.3,0.1l0.1,0.1l0.1,0.2l0.1,0.2l0,0.3l0.2,0.2l0.4,0.2l0.2,0l0.4-0.2l0.2-0.1l0.1,0
	l0.2,0.2l0.1,0.3l0.8,0.4l0.3,0.1l0.5-0.1c0.1,0,0.2,0,0.3,0l0.2,0.1l0.1,0l0.1-0.5l0.1,0l0,0.1l0.1,0.2l0,0.5l0.1,0.1l0.4,0.1
	l0.3,0.1l0.5-0.1l0.3,0l0.2,0l0.4,0.2l0.3-0.1l0.1-0.1l0-0.5l0-0.2l0-0.2l0.1,0l0.1,0.1l0.2,0.4l0.1,0.1l0.2,0.6l0.2,0.2l0.1,0
	l0.1,0l0.1-0.1l0.1,0l0.2,0l0.2,0l-0.1-0.2l-0.1-0.2l-0.2-0.2l-0.6-0.2l-0.2-0.3c0-0.2-0.1-0.5-0.1-0.7l0-0.1l0.1-0.2l0.1-0.1
	l0.1-0.1l0.1,0l0.1-0.1l0-0.1l0,0l0-0.2l0-0.1l0.1,0l0.1,0l0.1-0.1l0,0c0-0.1,0.1-0.2,0.1-0.2l0.1,0l0.2,0.1l0.1,0.1l0,0.5l0.1,0
	l0.1,0l0.1,0l0,0.1L35,71l0,0.3l0.1,0l0.1-0.1l0.1-0.1l0-0.1l-0.1-0.1l-0.1-0.2l0-0.1l0.2-0.1l0.4,0l0.2-0.1l0.1-0.1l0.1,0l0.1,0.1
	l0,0.1l0.1,0.4l0.2,0.5l0.1,0.1l0.5,0.2l0.1,0.1l0,0.1l0,0.1l0,0.1l0,0.1l0.3,0.4l0.1,0.1l0.1,0l0.2,0.2l0.1,0l0.1,0l0.2-0.1l0.2,0
	L39,73l0,0.4l0.1,0l0.1-0.1c0.1-0.2,0.2-0.5,0.3-0.7c0.1-0.2,0.2-0.3,0.3-0.5l0-0.2l0-0.1l-0.1-0.3L39.7,71l-0.3-0.1l-0.5-0.2
	l-0.1-0.1l-0.1-0.1l-0.1-0.2l0.2-0.1l0.1,0l0.6,0l0.2,0l0.2-0.1l0-0.3l-0.2-0.6l-0.2-0.3l-0.3-0.3l-0.3-0.2l-0.2,0l0,0l0-0.2
	l0.1-0.1l0-0.1l-0.1-0.1l0-0.2l0-0.2l-0.1-0.3l-0.4-0.5l-0.1-0.3l0-0.1l0.1-0.2L38,66l0.1,0l0.1,0l0-0.1l0-0.1l0.1-0.1l0.1,0l0.1,0
	l0.3,0.2l0.1,0l0.2,0l0.1-0.1l0.2-0.2l0-0.1l0-0.2l0-0.1L39.2,65l0,0l0,0l0.1-0.1l0-0.1l0-0.1l-0.1-0.1l-0.1-0.2l0.1-0.1
	c0.9,0.3,1.7,0.5,2.6,0.8l0.2,0l0.1-0.1l0.1-0.1l-0.1-0.2l-0.4-0.5l-0.1-0.2l0-0.1l0-0.2l0.1-0.1l0.1-0.1l0.1-0.1l0.1-0.1
	c0-0.4,0-0.8,0-1.2l0.2-0.2l0.2-0.1l0.5-0.2l0.2-0.2l0.2,0l0.3,0l0.1,0l0.1,0l0-0.1l0,0l0-0.1l0.2-0.2l0.1,0l0.5-0.2l0.1,0.1
	l0.2,0.1l0.4,0.1l0,0.3l0,0.2l0,0.1l0.2,0l0.1-0.1l0.1-0.1l0,0.1l0,0.3l0.1,0.2l0.1,0.1l0.4,0.1l0.1,0l0,0l0.1,0l0,0.1l0,0l0,0.1
	l0.1,0.1l0.4,0.4l0.2,0.2l0.1,0l0.1-0.1l0.1,0l0.1-0.1l0.1,0l0.3,0.3l0-0.1l0-0.1L47.5,62l-0.1-0.1L47,61.3l-0.1-0.2l0-0.2l0-0.1
	l0-0.2l0-0.1l0-0.1l-0.2,0l-0.2,0l-0.1,0l-0.1-0.1L46,60l0-0.2l0-0.1l0.1,0l0,0l0.1-0.1l0-0.1l-0.1-0.2l0,0l0,0l0,0l0-0.1l0.3,0l0,0
	l0,0l0-0.1l0-0.1l-0.2-0.1l0-0.1l0-0.1l0,0l0,0l-0.8-0.9l-0.2-0.2l0-0.1l0-0.1l0.1,0l0.1,0l0-0.2l0-0.2l0.1-0.2l0.1,0l0,0l0.5,0.7
	l0.3,0.3l0.1,0l0.6,0.3l0.1,0l0.1,0.2l0.1,0.1l0.6,0.4l0.6,0.2l0.1,0l0.1,0l0.1-0.1l0,0.1l0,0.1l0.1,0.1l0.2,0l0.1,0.1l0.1,0l0.3,0
	l0.1,0.2l0,0.1l0.1,0.1l0.1,0.1l0,0l0,0l0.1,0.1l0.4,0.2l0.1,0l0.1,0.1l0,0.1l0,0.1l0.3,0l0,0.1l0.1,0l0.1,0.2l0.1,0l0.1,0.1
	l0.1,0.1l0.1,0l0,0.2l0.1,0.1l0.1,0l0.1-0.1l0.2,0.1l0.4,0l0.1,0.1l0.1,0.1l0,0.1l0,0l0,0l-0.1,0l0,0l0,0.1c0,0.1,0,0.1,0,0.2
	l0.1,0.1l0.1,0l0-0.1l0.1,0l0.1,0.1l0,0l0,0.1l0,0.2l0.1,0.2l0.1,0.1l0.1,0l0.1,0.1c0.2,0.2,0.4,0.4,0.6,0.6l0.1,0l0.2-0.1l0.2-0.2
	l0-0.1l0,0l0.1,0.1l0.4-0.1L55,63l-0.3,0.3l-0.3,0.4l0.1,0.1l0.3,0.3l0.1,0.1l0,0.1l0.1,0l0.1,0.1l0.2,0.2l0.1,0.1l0,0l0.4,0.4
	l0.2,0.1l0,0.1l0,0.1l0,0.1c0.1,0.2,0.1,0.4,0.2,0.6l0,0l0.1,0.1l0,0.1l-0.1,0l-0.1,0.1l0,0.1l0,0.1l0.1,0.1l0.1,0.1l0,0.2l0,0.1
	l0.1,0l0.5-0.2l0.2,0l0.1,0.1l0,0.1c-0.1,0.2-0.3,0.5-0.4,0.7l0,0.1L57,68l0.1,0.1l0.1-0.1l0.1,0l0.1,0.1l-0.1,0.2l0,0.1l0,0.1
	l0.1,0l0.1,0.1l0,0.1l0,0L57.3,69l0,0.1l0.1,0.1l0.1,0.2l0,0.4L57.4,70l-0.2,0l-0.1-0.1l-0.1,0l0,0.1l0,0.1l0.1,0.1l0.3,0.4l0.1,0.2
	l0,0.1l0,0l-0.2-0.3l-0.4-0.3l-0.1,0.1l-0.2,0.3l-0.1,0.1l-0.1,0.2l-0.1,0.1l-0.6,0.2l-0.1-0.1l-0.1-0.1l-0.1,0.1l-0.1,0l0,0.2
	l0.1,0.2l0.1,0l0.1,0l0.2,0.1L56,72l0.1,0.3l0.1,0.2l0.1,0l0-0.2l0-0.2l0.1-0.2l0.2,0.1l0.1,0l0,0.2l-0.1,0.3l0,0.2l0.1,0.1l0.1,0
	l0.1,0l0,0.2l0.2,0.1l0.1,0.2l0.1,0.4c0.1,0.2,0.3,0.5,0.5,0.7l0.1,0l0.1,0l0.1,0.1l0,0.2l0,0.1l0,0.2l0.1,0.2l0.1,0.2l0,0.2
	l0.2,0.5l0.1,0l0.1,0.1l0,0.3l0,0.2l0,0.2l0.1,0.1l0.1,0l0.2,0.1l0.1,0.1l0.1,0.3l0.2,0.1l0.4-0.1l0.1-0.1l0.1,0.1l-0.3,0.4l-0.1,0
	l-0.1,0l-0.1,0.1l-0.1,0l0,0.2l0.2,0.7l0,0.2l-0.1,0.2l-0.1,0.1l0.1,0.4l0,0.1l-0.1,0l-0.2-0.3l-0.1,0l-0.1,0.1l-0.1,0l-0.2,0
	l-0.1,0l-0.1,0.1l-0.2,0l0,0.1l0,0.2l0.1,0.1c0.2,0.2,0.3,0.5,0.5,0.8l-0.1,0.1l0,0.2l0.1,0.2l0.2,0.6l0.1,0.3L59,82.2l-0.1,0
	l-0.2-0.4l-0.1-0.4l-0.1-0.2l-0.1,0.1l-0.1,0l-0.1,0.1l-0.1,0.2l0.1,0.2l0.1,0.1l-0.1,0.1L58.2,82l-0.2,0.1l-0.4,0l-0.1,0.3l-0.1,0
	l-0.1,0.1l0.1,0.1l0.3,0.1l0.3,0.1l0.3,0.4l0,0.1L58,83.3L57.8,83l-0.4,0.1l-0.2,0l-0.1,0.2l-0.2,0l-0.2-0.2l-0.3,0.4l0,0.4
	l-0.1,0.2l0,0.1l0.4,0.2l0.3,0.1c0.1,0.1,0.2,0.2,0.3,0.3l-0.1,0l-0.1,0l-0.3-0.1l-0.2,0l-0.2-0.1l-0.2-0.1l-0.1,0.1l0,0.2l0.1,0.2
	l0.1-0.1l0.1,0l0.1,0.6l-0.1,0.4l-0.1,0l-0.2,0l-0.1,0.2l0.1,0.3l0.2,0.3l0.2,0.4l0.1-0.1l0-0.3l0-0.1l0.1,0.1l0.2,0.1l0.7,0.4
	l0.3,0.1l0.2,0l0.2,0.2c0.1,0.1,0.1,0.2,0.2,0.3l0.1,0.1l0.1,0.1l0.3,0l0.5,0.1l0.4,0l0.2-0.1l0.5,0l0.4-0.1l0.2,0l0.2-0.3l0.3-0.1
	l0.2,0l0.3,0.2l0.4,0.3l0.3-0.2l0.1-0.3l-0.1-0.4l-0.4-0.6l0-0.1l0-0.1l0.3,0.2l0.2-0.1l0.2,0.1l0.6,0.9c0.1,0.1,0.3,0.3,0.4,0.4
	l0.4,0.1l0.2,0.3l0.1,0.2l0.2,0.2L65,89l0.3,0l0.7,0.1l0.2,0l0.3,0.1l0.2,0l0.1-0.1l0.1-0.3l0.4,0.1l0.4-0.2l0.4,0.1l0.4-0.1
	l0.4,0.1l0.2,0c0.2,0.1,0.3,0.2,0.5,0.3l0.5,0.3l0.2,0.1l0.1,0l0.1-0.1l-0.1-0.3l-0.1-0.3l0-0.2l0.1-0.1l0.1-0.2l0.1-0.2l0.3,0.1
	l0.2,0l0.2-0.1l0.5-0.2l0-0.2l0.1-0.2l0.2,0c0.1,0.2,0.3,0.5,0.4,0.7l0.1,0l0.1-0.2l0.2-0.2l0.2-0.1l0.2-0.1l0.3-0.2l0.3-0.2
	l0.3-0.2l0.7-0.2l0.1-0.1l0.2-0.1l0.3,0l0,0.2l0.1,0.1l0.1,0.1l0.1,0.1c0.3,0.1,0.7,0.1,1,0.2l0.3-0.1l0.3-0.3l0.1-0.3l0.2-0.4
	l0-0.3l0.2,0l0.1,0.1l0,0.4l0.1,0.3l0.1,0.5l0.1,0.3l0.2,0.1l0.2-0.1l0.1-0.2l0.1-0.1l0.2,0.2l0.2,0l0.2-0.1l0.1-0.3l0.1-0.2
	l0.1-0.1l0.3-0.1l0.2,0l0.2,0l0.3-0.2l0.1-0.2l0.4-0.1l0.7-0.5l0.3,0l0.3-0.1l0.6-0.5l0-0.1l0.1,0l0.3,0l0.2,0l0.4-0.2l0.3-0.3
	l0-0.2l0.1-0.2l0.4,0l0.2-0.1l0.4-0.2l0.2,0l-0.1-0.5l0.1-0.2l0-0.4l0.1-0.1l0.2,0.2l0.1,0.1l0.2,0l0.1,0l0.4-0.2l0.2-0.2l0-0.3
	l0.4-0.3l0.2-0.4l0.4-0.4l0.2-0.2l0.2-0.3l0.1-0.3l0.1-0.2l0-0.2l-0.1-0.3c-0.2-0.4-0.4-0.7-0.7-1.1l0-0.2l0.1-0.1l0.1-0.2l0.1-0.1
	l0.4-0.2l0.2-0.3l0.2,0l0.7,0l0.6,0.2l0.2-0.1l0.3-0.2l0.2-0.1l0.1-0.2l0.1-0.2l-0.1-0.2L91,76.4l0-0.3l0.1-0.2l0.2-0.1l0.2-0.1
	l0.1-0.2l0-0.3l0.1-0.4c0.1-0.3,0.2-0.6,0.3-0.9l0-0.2L92,73.4l0-0.1l0.1-0.4l0.1-0.5l0.3-1.1l0.2-0.1l0.1,0.4
	c0,0.4-0.1,0.7-0.1,1.1l0.1,0l0-0.1l0.1-0.3l0-0.4l0-0.3l0.1-0.2l0.1-0.1l0.2-0.1l0.1-0.1l0.1-0.1l0-0.2l0.2-0.3l0.1-0.1l0.2-0.1
	l0.1-0.2l0-0.2l0-0.3l0-0.3l0.1-0.4l-0.1-0.2l0-0.2l0-0.2l0.1-0.3l0-0.3l0.2,0l0.3,0.2l0,0.2l0,0.3l-0.1,0.6l0.1,0.2l0.3,0.3
	l0.5-0.1l0.2-0.1l0.1-0.2l0.1-0.2l0.3-0.1l0.7-0.1l0.3-0.1l0.2-0.1l0.1-0.1l0.2-0.2l0.1-0.5c0-0.3,0.1-0.7,0.1-1L98,65.8l-0.4-0.4
	l-0.4-0.1L97.1,65l-0.2-0.7l0-0.4l0.3-0.4l0.3-0.4l0.3-0.1l0-0.2l0.1-0.2l0.2,0l0.1-0.1l0.3-0.3l0.3-0.6l0.8-1.1l0.1-0.3l0.3-0.3
	l0.2-0.3l0-0.2l0-0.1l0.3-0.4l0.2-0.4l-0.1-0.3l0-0.2L100.6,57.6L100.6,57.6z M49.7,47.3L49.7,47.3L49.7,47.3L49.7,47.3L49.7,47.3
	L49.7,47.3L49.7,47.3L49.7,47.3L49.7,47.3L49.7,47.3L49.7,47.3L49.7,47.3L49.7,47.3L49.7,47.3L49.7,47.3L49.7,47.3L49.7,47.3
	L49.7,47.3L49.7,47.3L49.7,47.3L49.7,47.3L49.7,47.3L49.7,47.3L49.7,47.3L49.7,47.3L49.7,47.3L49.7,47.3L49.7,47.3L49.7,47.3
	L49.7,47.3L49.7,47.3L49.7,47.3L49.7,47.3L49.7,47.3L49.7,47.3L49.7,47.3L49.7,47.3L49.7,47.3L49.7,47.3L49.7,47.3L49.7,47.3
	L49.7,47.3L49.7,47.3L49.7,47.3L49.7,47.3L49.7,47.3L49.7,47.3L49.7,47.3L49.7,47.3L49.7,47.3L49.7,47.3L49.7,47.3L49.7,47.3
	L49.7,47.3L49.7,47.3L49.7,47.3L49.7,47.3L49.7,47.3L49.7,47.3L49.7,47.3L49.7,47.3L49.7,47.3L49.7,47.3L49.7,47.3L49.7,47.3
	L49.7,47.3L49.7,47.3L49.7,47.3L49.7,47.3L49.7,47.3L49.7,47.3L49.7,47.3L49.7,47.3L49.7,47.3L49.7,47.3L49.7,47.3L49.7,47.3
	L49.7,47.3L49.7,47.3L49.7,47.3L49.7,47.3L49.7,47.3L49.7,47.3L49.7,47.3L49.7,47.3L49.7,47.3L49.7,47.3L49.7,47.3L49.7,47.3
	L49.7,47.3L49.7,47.3L49.7,47.3L49.7,47.3L49.7,47.3L49.7,47.3L49.7,47.3L49.7,47.3L49.7,47.3L49.7,47.3L49.7,47.3L49.7,47.3
	L49.7,47.3L49.7,47.3L49.7,47.3L49.7,47.3L49.7,47.3L49.7,47.3L49.7,47.3L49.7,47.3L49.7,47.3L49.7,47.3L49.7,47.3L49.7,47.3
	L49.7,47.3L49.7,47.3L49.7,47.3L49.7,47.3L49.7,47.3L49.7,47.3L49.7,47.3L49.7,47.3L49.7,47.3L49.7,47.3L49.7,47.3L49.7,47.3
	L49.7,47.3L49.7,47.3L49.7,47.3L49.7,47.3L49.7,47.3L49.7,47.3L49.7,47.3L49.7,47.3L49.7,47.3L49.7,47.3L49.7,47.3L49.7,47.3
	L49.7,47.3L49.7,47.3L49.7,47.3L49.7,47.3L49.7,47.3L49.7,47.3L49.7,47.3L49.7,47.3L49.7,47.3L49.7,47.3L49.7,47.3L49.7,47.3
	L49.7,47.3L49.7,47.3L49.7,47.3L49.7,47.3L49.7,47.3L49.7,47.3L49.7,47.3L49.7,47.3L49.7,47.3L49.7,47.3L49.7,47.3L49.7,47.3
	L49.7,47.3L49.7,47.3L49.7,47.3L49.7,47.3L49.7,47.3L49.7,47.3L49.7,47.3L49.7,47.3L49.7,47.3L49.7,47.3L49.7,47.3L49.7,47.3
	L49.7,47.3L49.7,47.3L49.7,47.3L49.7,47.3L49.7,47.3L49.7,47.3L49.7,47.3L49.7,47.3L49.7,47.3L49.7,47.3L49.7,47.3z M10.4,35.1
	l0,0.3l0.1,0l0.1,0l0.2-0.3l0.2-0.1l0,0.3L11,35.4L11,35.5l-0.2,0.2l0,0.1l0,0.1l0.1,0l0.1,0l0.2-0.1l0.1,0.1l0,0l0,0L11.1,36
	l-0.2,0.1l-0.1,0.1l-0.1,0.1l0,0l0,0.1l0,0.1l0.1,0.1l0.1,0l0.2,0l0.1,0l0,0l0,0l0,0l-0.1,0.1L11,36.8l0,0.2l0.1,0.2l0.1,0l0.1,0
	l0.1,0l0.1,0l0.1,0l0.1,0l0.1,0c0.1,0,0.1-0.1,0.2-0.1l0.1-0.1l0.1-0.1l0.1-0.1l0-0.1l0-0.2l0.1-0.1l0.2,0l0,0l0.1-0.1l0-0.1
	l-0.2-0.3l-0.1,0c-0.1,0-0.2,0.1-0.3,0.1l0,0l0-0.1l0.1-0.1l0.2-0.1l0.1-0.1l0,0l-0.4-0.5l0-0.1l0,0l0.2-0.1l0.2-0.1l0.1-0.1l0-0.1
	l0-0.1l0.3-0.3l0.1,0l0.1,0.1l0.1,0.1l0,0.1l0,0.6l0.1,0l0.2-0.1l0.1-0.1l0-0.2l0-0.2l-0.1-0.2l0-0.1l0-0.1l0.1-0.1l0.1,0l0.1,0.2
	l0,0.2l0,0.1l-0.2,0.5l-0.2,0.3L13,35.7l-0.1,0.1l0,0.1l0,0.1l0.2,0.2l0.1,0l0.1,0l0.2,0l0.1,0l0.1-0.1l0-0.1l0.1,0l0.1,0l0,0l0-0.3
	l0.1-0.4l0-0.2l0.1-0.1l0.1-0.1l0-0.3l0-0.6L14,33.7l-0.3-0.5l-0.1-0.1L13.5,33l-0.2-0.1L13,32.7c-0.6-0.3-1.3-0.5-2-0.7l-0.1,0
	l-0.3-0.1c-0.5,0-0.9,0-1.4,0l-0.4,0l-0.5-0.1l-0.2,0l-0.6,0l-0.1,0.1l0,0l0,0.2l-0.2-0.1l-0.1,0l-0.4-0.1l-0.1,0l-0.2,0.1l-0.1,0
	l-0.1,0.8l0,0.4l0,0.1l0,0.1l0.1,0.1l0.1,0.1l0.1,0l0.1,0l0.1,0l0.2,0l0.1-0.1l0.1,0l0.2,0c0.2,0.1,0.4,0.2,0.6,0.3l0.1,0l0.1,0
	l0.1,0l0.1,0l0,0L9,33.4l0-0.1l0-0.1L9,33.1l0.1-0.3l0.1-0.1l0.1,0l0.2-0.1l0.3-0.1l0,0l0,0l-0.2,0.2l0,0.1l0,0.2l0,0.2l0.1,0.4
	l0.2,0.2l0.1,0l0.1-0.1l0.1-0.1l0.1-0.2l0.1-0.2l0.1-0.1l0.1,0l0.1-0.1l0-0.1l0,0l0.1,0c0.1,0,0.2,0.1,0.4,0.1l0.1,0l0,0l-0.4,0.1
	l0,0l0,0l0,0.3L10.6,34l0,0.1l0.2,0.2l0,0.2l-0.3,0.4L10.4,35.1z"/>
</svg>
