<svg xmlns="http://www.w3.org/2000/svg" xml:space="preserve" viewBox="0 0 100 100"><path d="m48.4 90.7-1.1-.5-1.4 1.2.6.9 1.1-.9.6.7 1.7-.6.4-.7-1-.9zm30.5-67-.4-1.6-.5-.4-1.1-.1-1-.4-1.6-1.4-1.9-1h-1.9l-2.4-.7-1.5.4.2-.7-.6-.7c-1.2-.5-2.4-.9-3.7-1.3l-1 .8v-1.3l-2.2-.2-.4-.4.9-1v-.9l-.7-.2-.7-2.2-.3-.7-.3.3-.2-.5-1.3-1.1c-.9-.3-1.8-.5-2.7-.8l-1 .1-.1.2-1.5-.3c-.4-.3-.8-.7-1.2-1.1h-.5v-.7l-.8-.8c-.4-.2-.9-.5-1.3-.8h-.7l-.2-1-1-.6-1-.1-.3-.6 1.1-.4c-1 0-2 0-3.1.1v.3l-.7.6-1-.2-.7-.6-1.3.1h-1.1v-.4l-.8-.7h-.9L35-.2l-.4.4.2.6-1.6.5.1 1 .4.4-.3.9-.5.1-.5-1 .4-.7v-.7l-.4-.6.7-.1V.3l.2-.4-.3-.3-.4-.1-.6.6-1.5.9-1-.1-.1.3h-.8l-.6.7-.2 1.1v.4l-.5.2-.9.9h-.6l-.2.1.3.7-.2.4-.5-.1-.2.5.5.7.2 1.1-.3.3.3 1.2-.2.7.5.3c-.4.5-.7 1-1 1.4l-.6.1-.3.5.1.6-.5.1.2.4-.9.5-.7.3.1.5-.5.8-.2.8-.5.1.2 1.1-.3.4.8.6.5-.6.3.5-.7 1-1 .8-.4.9.6 1.2-.4.6.9.5 1 .8.4.9.5.6c.8 1.7 1.6 3.3 2.4 4.9l1.1 1.7-.2.3.5 1.1 1 .8 2.2 1.4 2.5 1.3.1.5 1.3.8.3 1.9.1 2.2c-.4 2.9-.8 5.7-1 8.6l-.7 1.7.2 1.8-.4 1.1.3 2.2c-.7 2.4-1.6 4.8-2.3 7.3h-.6l.1 1.8.4 1.6-.6 1.1c-.3 1.8-.5 3.7-.8 5.5l.8.2.4-2.1.8.5-.6 3.5-1.4-.6-.5 2.9-1.2 1.6 1.9.5-1.4 1.5-.5 1.8.2 3.3.6 1.3-.4 1.2.4 1.3.2 1.4.4.4.3.2 1.2 1.6 1.3 1.2 1.6 1.2 1.3.3.9.7.7.2.6.1 1.1-.7.4-.9.6.8 1.2-.1.6-1.1-1.8-.5-1.5-1.5-.5-1.3-.1-1.8-.2-.1-.7-1-.4-2.1.5-.9 1.1-.8.8-2.3 1.5-1.1.4-1.7-1.2-.4-1.2-1.3.4-1.4 1-.9h1.2l.3-.9.2-1.8 1-1.1 1.2-.5-.4-.9-.7.5-.8-.4-.2-1.7.5-.4 1.2.6 1.3-.2.8-.6-.2-.8.3-1.2-.3-1 1.4.2 2.5-.3 1.9-.9 1.2-2 .1-.8-.8-.7.2-1.1-1.6-1.3.1-.8.8.8h.9l1.2.7.7-.2.9.3 1.4-.8.5-1 .8-.9.6-1.4.9-.7 1.1-1.2 1.4-2.6.9-.8.3-.7.2-1.4-.2-.8.2-1 1.1-1.4 1.5-1.1 1.4-.4.9-.6 2-.5h1.4l.3-.8 1-.6.2-1.4 1.3-1.7.2-1.8.4-.5c.1-1 .3-1.9.5-2.9l-.5-2.4.4-.9h.3l.9-1.1.8-1.4 1.8-1.8.6-.8.5-2.1z"/></svg>
